G04 EAGLE Gerber RS-274X export*
G75*
%MOMM*%
%FSLAX34Y34*%
%LPD*%
%INBottom Silkscreen*%
%IPPOS*%
%AMOC8*
5,1,8,0,0,1.08239X$1,22.5*%
G01*
%ADD10C,0.177800*%
%ADD11R,4.679694X0.007113*%
%ADD12R,4.829047X0.007109*%
%ADD13R,4.935728X0.007113*%
%ADD14R,5.028184X0.007113*%
%ADD15R,5.106416X0.007113*%
%ADD16R,5.177538X0.007113*%
%ADD17R,5.248656X0.007113*%
%ADD18R,5.305550X0.007109*%
%ADD19R,5.362450X0.007113*%
%ADD20R,5.412231X0.007113*%
%ADD21R,5.462016X0.007113*%
%ADD22R,5.511800X0.007113*%
%ADD23R,5.561584X0.007113*%
%ADD24R,5.604256X0.007109*%
%ADD25R,5.646928X0.007113*%
%ADD26R,5.682488X0.007113*%
%ADD27R,5.718050X0.007113*%
%ADD28R,5.760719X0.007113*%
%ADD29R,5.803394X0.007113*%
%ADD30R,5.831841X0.007109*%
%ADD31R,5.874513X0.007113*%
%ADD32R,5.902959X0.007113*%
%ADD33R,5.931406X0.007113*%
%ADD34R,5.974081X0.007113*%
%ADD35R,6.002528X0.007113*%
%ADD36R,6.030975X0.007113*%
%ADD37R,6.059425X0.007109*%
%ADD38R,6.087872X0.007113*%
%ADD39R,6.116319X0.007113*%
%ADD40R,6.144769X0.007113*%
%ADD41R,6.173216X0.007113*%
%ADD42R,6.201663X0.007113*%
%ADD43R,6.230113X0.007109*%
%ADD44R,6.258559X0.007113*%
%ADD45R,6.279897X0.007113*%
%ADD46R,6.301231X0.007113*%
%ADD47R,6.329681X0.007113*%
%ADD48R,6.358128X0.007113*%
%ADD49R,6.379463X0.007109*%
%ADD50R,6.400800X0.007113*%
%ADD51R,6.429250X0.007113*%
%ADD52R,6.443472X0.007113*%
%ADD53R,6.471919X0.007113*%
%ADD54R,6.493256X0.007113*%
%ADD55R,6.514594X0.007109*%
%ADD56R,6.535928X0.007113*%
%ADD57R,6.557263X0.007113*%
%ADD58R,6.578600X0.007113*%
%ADD59R,6.599938X0.007113*%
%ADD60R,6.614159X0.007113*%
%ADD61R,6.642606X0.007113*%
%ADD62R,6.656831X0.007109*%
%ADD63R,6.678169X0.007113*%
%ADD64R,6.699506X0.007113*%
%ADD65R,6.713728X0.007113*%
%ADD66R,6.735063X0.007113*%
%ADD67R,6.756400X0.007113*%
%ADD68R,6.770625X0.007109*%
%ADD69R,6.784850X0.007113*%
%ADD70R,6.806184X0.007113*%
%ADD71R,6.827519X0.007113*%
%ADD72R,6.841744X0.007113*%
%ADD73R,6.855969X0.007113*%
%ADD74R,6.877303X0.007109*%
%ADD75R,6.898641X0.007113*%
%ADD76R,6.912863X0.007113*%
%ADD77R,6.927088X0.007113*%
%ADD78R,6.941313X0.007113*%
%ADD79R,6.955538X0.007113*%
%ADD80R,6.969759X0.007109*%
%ADD81R,6.991097X0.007113*%
%ADD82R,7.012431X0.007113*%
%ADD83R,7.026656X0.007113*%
%ADD84R,7.040881X0.007113*%
%ADD85R,7.055106X0.007113*%
%ADD86R,7.069328X0.007113*%
%ADD87R,7.083550X0.007109*%
%ADD88R,7.097775X0.007113*%
%ADD89R,7.112000X0.007113*%
%ADD90R,7.126225X0.007113*%
%ADD91R,7.140450X0.007113*%
%ADD92R,7.154672X0.007113*%
%ADD93R,7.168894X0.007109*%
%ADD94R,7.183119X0.007113*%
%ADD95R,7.197344X0.007113*%
%ADD96R,7.211569X0.007113*%
%ADD97R,7.225794X0.007113*%
%ADD98R,7.240016X0.007113*%
%ADD99R,7.254241X0.007109*%
%ADD100R,7.261353X0.007113*%
%ADD101R,7.275575X0.007113*%
%ADD102R,7.282688X0.007113*%
%ADD103R,7.296913X0.007113*%
%ADD104R,7.311138X0.007113*%
%ADD105R,7.325359X0.007109*%
%ADD106R,7.339584X0.007113*%
%ADD107R,7.353806X0.007113*%
%ADD108R,7.360919X0.007113*%
%ADD109R,7.368031X0.007113*%
%ADD110R,7.382256X0.007113*%
%ADD111R,7.396481X0.007113*%
%ADD112R,7.410706X0.007109*%
%ADD113R,7.424928X0.007113*%
%ADD114R,7.432041X0.007113*%
%ADD115R,7.439150X0.007113*%
%ADD116R,7.453375X0.007113*%
%ADD117R,7.467600X0.007113*%
%ADD118R,7.474713X0.007109*%
%ADD119R,7.481825X0.007113*%
%ADD120R,7.496050X0.007113*%
%ADD121R,7.510272X0.007113*%
%ADD122R,7.517384X0.007113*%
%ADD123R,7.524494X0.007113*%
%ADD124R,7.538719X0.007109*%
%ADD125R,7.552944X0.007113*%
%ADD126R,7.560056X0.007113*%
%ADD127R,7.567169X0.007113*%
%ADD128R,7.581394X0.007113*%
%ADD129R,7.588503X0.007113*%
%ADD130R,7.595616X0.007109*%
%ADD131R,7.609841X0.007113*%
%ADD132R,7.616953X0.007113*%
%ADD133R,7.624062X0.007113*%
%ADD134R,7.638288X0.007113*%
%ADD135R,7.645400X0.007113*%
%ADD136R,7.652513X0.007113*%
%ADD137R,7.666737X0.007109*%
%ADD138R,7.673847X0.007113*%
%ADD139R,7.680959X0.007113*%
%ADD140R,7.695184X0.007113*%
%ADD141R,7.709406X0.007113*%
%ADD142R,7.716519X0.007109*%
%ADD143R,7.723631X0.007113*%
%ADD144R,7.737856X0.007113*%
%ADD145R,0.640081X0.007113*%
%ADD146R,0.945894X0.007113*%
%ADD147R,0.817878X0.007113*%
%ADD148R,1.038353X0.007113*%
%ADD149R,0.953006X0.007113*%
%ADD150R,0.412497X0.007113*%
%ADD151R,0.647194X0.007113*%
%ADD152R,0.938784X0.007113*%
%ADD153R,0.768097X0.007113*%
%ADD154R,0.981456X0.007113*%
%ADD155R,0.945897X0.007113*%
%ADD156R,0.426722X0.007113*%
%ADD157R,0.931672X0.007113*%
%ADD158R,0.746759X0.007113*%
%ADD159R,0.953009X0.007113*%
%ADD160R,0.440947X0.007113*%
%ADD161R,0.654306X0.007109*%
%ADD162R,0.924559X0.007109*%
%ADD163R,0.732534X0.007109*%
%ADD164R,0.931672X0.007109*%
%ADD165R,0.448056X0.007109*%
%ADD166R,0.661419X0.007113*%
%ADD167R,0.917447X0.007113*%
%ADD168R,0.718313X0.007113*%
%ADD169R,0.903225X0.007113*%
%ADD170R,0.924559X0.007113*%
%ADD171R,0.462278X0.007113*%
%ADD172R,0.910334X0.007113*%
%ADD173R,0.711200X0.007113*%
%ADD174R,0.889000X0.007113*%
%ADD175R,0.469391X0.007113*%
%ADD176R,0.668528X0.007113*%
%ADD177R,0.903222X0.007113*%
%ADD178R,0.704088X0.007113*%
%ADD179R,0.874778X0.007113*%
%ADD180R,0.483616X0.007113*%
%ADD181R,0.696975X0.007113*%
%ADD182R,0.860553X0.007113*%
%ADD183R,0.490728X0.007113*%
%ADD184R,0.675641X0.007113*%
%ADD185R,0.896113X0.007113*%
%ADD186R,0.689866X0.007113*%
%ADD187R,0.846328X0.007113*%
%ADD188R,0.504953X0.007113*%
%ADD189R,0.675641X0.007109*%
%ADD190R,0.889000X0.007109*%
%ADD191R,0.689866X0.007109*%
%ADD192R,0.839216X0.007109*%
%ADD193R,0.512062X0.007109*%
%ADD194R,0.682753X0.007113*%
%ADD195R,0.881888X0.007113*%
%ADD196R,0.689863X0.007113*%
%ADD197R,0.832106X0.007113*%
%ADD198R,0.526288X0.007113*%
%ADD199R,0.874775X0.007113*%
%ADD200R,0.824994X0.007113*%
%ADD201R,0.547625X0.007113*%
%ADD202R,0.867663X0.007113*%
%ADD203R,0.817881X0.007113*%
%ADD204R,0.554737X0.007113*%
%ADD205R,0.860550X0.007113*%
%ADD206R,0.810769X0.007113*%
%ADD207R,0.568963X0.007113*%
%ADD208R,0.696978X0.007113*%
%ADD209R,0.853438X0.007113*%
%ADD210R,0.803656X0.007113*%
%ADD211R,0.576072X0.007113*%
%ADD212R,0.853441X0.007113*%
%ADD213R,0.590294X0.007113*%
%ADD214R,0.704091X0.007109*%
%ADD215R,0.696975X0.007109*%
%ADD216R,0.796544X0.007109*%
%ADD217R,0.846328X0.007109*%
%ADD218R,0.597406X0.007109*%
%ADD219R,0.704091X0.007113*%
%ADD220R,0.832103X0.007113*%
%ADD221R,0.789431X0.007113*%
%ADD222R,0.839216X0.007113*%
%ADD223R,0.611631X0.007113*%
%ADD224R,0.824991X0.007113*%
%ADD225R,0.618744X0.007113*%
%ADD226R,0.782322X0.007113*%
%ADD227R,0.632969X0.007113*%
%ADD228R,0.810766X0.007113*%
%ADD229R,0.725422X0.007113*%
%ADD230R,0.654303X0.007113*%
%ADD231R,0.725425X0.007109*%
%ADD232R,0.725422X0.007109*%
%ADD233R,0.775209X0.007109*%
%ADD234R,0.803656X0.007109*%
%ADD235R,0.661416X0.007109*%
%ADD236R,0.725425X0.007113*%
%ADD237R,0.796544X0.007113*%
%ADD238R,0.732534X0.007113*%
%ADD239R,0.775209X0.007113*%
%ADD240R,0.732538X0.007113*%
%ADD241R,0.739647X0.007113*%
%ADD242R,0.782319X0.007113*%
%ADD243R,0.739650X0.007113*%
%ADD244R,0.775206X0.007113*%
%ADD245R,0.746762X0.007113*%
%ADD246R,0.768094X0.007113*%
%ADD247R,0.753872X0.007113*%
%ADD248R,0.739650X0.007109*%
%ADD249R,0.760984X0.007109*%
%ADD250R,0.753872X0.007109*%
%ADD251R,0.760984X0.007113*%
%ADD252R,0.753875X0.007113*%
%ADD253R,0.718313X0.007109*%
%ADD254R,0.789431X0.007109*%
%ADD255R,0.682750X0.007113*%
%ADD256R,0.782322X0.007109*%
%ADD257R,0.675638X0.007109*%
%ADD258R,0.746759X0.007109*%
%ADD259R,0.867666X0.007109*%
%ADD260R,0.789434X0.007113*%
%ADD261R,0.661416X0.007113*%
%ADD262R,0.896109X0.007113*%
%ADD263R,0.647191X0.007113*%
%ADD264R,0.796547X0.007113*%
%ADD265R,0.640078X0.007113*%
%ADD266R,1.109472X0.007113*%
%ADD267R,0.796547X0.007109*%
%ADD268R,0.632966X0.007109*%
%ADD269R,1.109472X0.007109*%
%ADD270R,0.640081X0.007109*%
%ADD271R,0.625856X0.007113*%
%ADD272R,0.604519X0.007113*%
%ADD273R,0.967231X0.007113*%
%ADD274R,0.597406X0.007113*%
%ADD275R,0.974344X0.007113*%
%ADD276R,0.810769X0.007109*%
%ADD277R,0.590294X0.007109*%
%ADD278R,0.988569X0.007109*%
%ADD279R,0.590297X0.007113*%
%ADD280R,1.002794X0.007113*%
%ADD281R,0.583184X0.007113*%
%ADD282R,1.009903X0.007113*%
%ADD283R,1.017016X0.007113*%
%ADD284R,0.568959X0.007113*%
%ADD285R,1.024128X0.007113*%
%ADD286R,0.561847X0.007113*%
%ADD287R,0.960119X0.007113*%
%ADD288R,0.824994X0.007109*%
%ADD289R,0.554734X0.007109*%
%ADD290R,0.974344X0.007109*%
%ADD291R,1.045466X0.007109*%
%ADD292R,0.547622X0.007113*%
%ADD293R,0.554734X0.007113*%
%ADD294R,1.052578X0.007113*%
%ADD295R,0.540513X0.007113*%
%ADD296R,0.988569X0.007113*%
%ADD297R,1.066800X0.007113*%
%ADD298R,0.533400X0.007113*%
%ADD299R,0.995678X0.007113*%
%ADD300R,1.073913X0.007113*%
%ADD301R,1.002791X0.007113*%
%ADD302R,1.081025X0.007113*%
%ADD303R,0.519175X0.007113*%
%ADD304R,1.095247X0.007113*%
%ADD305R,0.839219X0.007113*%
%ADD306R,0.512062X0.007113*%
%ADD307R,1.102359X0.007113*%
%ADD308R,0.839219X0.007109*%
%ADD309R,0.504950X0.007109*%
%ADD310R,1.024128X0.007109*%
%ADD311R,0.497838X0.007113*%
%ADD312R,1.031241X0.007113*%
%ADD313R,1.123694X0.007113*%
%ADD314R,1.038350X0.007113*%
%ADD315R,0.497841X0.007113*%
%ADD316R,1.137919X0.007113*%
%ADD317R,1.045462X0.007113*%
%ADD318R,1.145031X0.007113*%
%ADD319R,1.052575X0.007113*%
%ADD320R,1.152144X0.007113*%
%ADD321R,0.476503X0.007113*%
%ADD322R,1.059688X0.007113*%
%ADD323R,1.159256X0.007113*%
%ADD324R,0.469391X0.007109*%
%ADD325R,1.066800X0.007109*%
%ADD326R,1.173481X0.007109*%
%ADD327R,1.081022X0.007113*%
%ADD328R,0.462281X0.007113*%
%ADD329R,1.180591X0.007113*%
%ADD330R,0.455166X0.007113*%
%ADD331R,1.088134X0.007113*%
%ADD332R,0.455169X0.007113*%
%ADD333R,1.187703X0.007113*%
%ADD334R,0.448056X0.007113*%
%ADD335R,1.194816X0.007113*%
%ADD336R,0.440944X0.007113*%
%ADD337R,1.209041X0.007113*%
%ADD338R,0.433831X0.007113*%
%ADD339R,1.216153X0.007113*%
%ADD340R,0.860553X0.007109*%
%ADD341R,0.426719X0.007109*%
%ADD342R,1.116584X0.007109*%
%ADD343R,0.433831X0.007109*%
%ADD344R,1.223266X0.007109*%
%ADD345R,0.419606X0.007113*%
%ADD346R,1.123697X0.007113*%
%ADD347R,0.426719X0.007113*%
%ADD348R,1.230375X0.007113*%
%ADD349R,0.412494X0.007113*%
%ADD350R,1.130806X0.007113*%
%ADD351R,1.244600X0.007113*%
%ADD352R,0.867666X0.007113*%
%ADD353R,0.405384X0.007113*%
%ADD354R,1.258825X0.007113*%
%ADD355R,0.398272X0.007113*%
%ADD356R,1.265938X0.007113*%
%ADD357R,0.391159X0.007113*%
%ADD358R,1.273050X0.007113*%
%ADD359R,0.384047X0.007109*%
%ADD360R,1.159256X0.007109*%
%ADD361R,0.391159X0.007109*%
%ADD362R,1.280159X0.007109*%
%ADD363R,0.384047X0.007113*%
%ADD364R,1.166369X0.007113*%
%ADD365R,1.294384X0.007113*%
%ADD366R,0.376934X0.007113*%
%ADD367R,1.173478X0.007113*%
%ADD368R,1.301497X0.007113*%
%ADD369R,0.369822X0.007113*%
%ADD370R,0.369825X0.007113*%
%ADD371R,1.308609X0.007113*%
%ADD372R,0.362712X0.007113*%
%ADD373R,1.315722X0.007113*%
%ADD374R,0.355600X0.007113*%
%ADD375R,1.201928X0.007113*%
%ADD376R,1.322834X0.007113*%
%ADD377R,0.348488X0.007113*%
%ADD378R,1.329947X0.007113*%
%ADD379R,0.874778X0.007109*%
%ADD380R,0.341375X0.007109*%
%ADD381R,1.216150X0.007109*%
%ADD382R,0.348488X0.007109*%
%ADD383R,1.344166X0.007109*%
%ADD384R,0.881891X0.007113*%
%ADD385R,0.334263X0.007113*%
%ADD386R,1.216150X0.007113*%
%ADD387R,1.351278X0.007113*%
%ADD388R,0.881891X0.007109*%
%ADD389R,0.824991X0.007109*%
%ADD390R,0.967231X0.007109*%
%ADD391R,0.533400X0.007109*%
%ADD392R,0.903222X0.007109*%
%ADD393R,0.896113X0.007109*%
%ADD394R,0.874775X0.007109*%
%ADD395R,0.903225X0.007109*%
%ADD396R,0.704088X0.007109*%
%ADD397R,0.853441X0.007109*%
%ADD398R,0.689863X0.007109*%
%ADD399R,0.682750X0.007109*%
%ADD400R,0.810766X0.007109*%
%ADD401R,0.910338X0.007113*%
%ADD402R,0.910338X0.007109*%
%ADD403R,0.938784X0.007109*%
%ADD404R,0.945897X0.007109*%
%ADD405R,2.197609X0.007113*%
%ADD406R,0.953006X0.007109*%
%ADD407R,2.197609X0.007109*%
%ADD408R,0.960119X0.007109*%
%ADD409R,0.995681X0.007113*%
%ADD410R,0.960122X0.007113*%
%ADD411R,0.682753X0.007109*%
%ADD412R,0.739647X0.007109*%
%ADD413R,0.917450X0.007113*%
%ADD414R,0.832106X0.007109*%
%ADD415R,1.038353X0.007109*%
%ADD416R,1.009906X0.007109*%
%ADD417R,1.237491X0.007113*%
%ADD418R,8.278369X0.007113*%
%ADD419R,8.278369X0.007109*%
%ADD420R,8.264144X0.007113*%
%ADD421R,0.056897X0.007113*%
%ADD422R,0.085344X0.007113*%
%ADD423R,0.099566X0.007113*%
%ADD424R,0.099569X0.007113*%
%ADD425R,0.113791X0.007113*%
%ADD426R,0.113794X0.007113*%
%ADD427R,0.135128X0.007113*%
%ADD428R,0.128016X0.007113*%
%ADD429R,0.149353X0.007109*%
%ADD430R,0.142241X0.007109*%
%ADD431R,0.156463X0.007113*%
%ADD432R,0.170688X0.007113*%
%ADD433R,0.184913X0.007113*%
%ADD434R,0.177800X0.007113*%
%ADD435R,0.192025X0.007113*%
%ADD436R,0.199138X0.007113*%
%ADD437R,0.206250X0.007113*%
%ADD438R,0.206250X0.007109*%
%ADD439R,0.213359X0.007109*%
%ADD440R,0.213363X0.007113*%
%ADD441R,0.220472X0.007113*%
%ADD442R,0.227584X0.007113*%
%ADD443R,0.234697X0.007113*%
%ADD444R,0.241809X0.007113*%
%ADD445R,0.248922X0.007113*%
%ADD446R,0.270256X0.007113*%
%ADD447R,0.298703X0.007113*%
%ADD448R,0.256031X0.007109*%
%ADD449R,0.248919X0.007109*%
%ADD450R,0.327153X0.007109*%
%ADD451R,0.256031X0.007113*%
%ADD452R,0.256034X0.007113*%
%ADD453R,0.462278X0.007109*%
%ADD454R,0.512066X0.007113*%
%ADD455R,0.547622X0.007109*%
%ADD456R,0.597409X0.007113*%
%ADD457R,0.604522X0.007113*%
%ADD458R,0.611631X0.007109*%
%ADD459R,0.668528X0.007109*%
%ADD460R,0.248919X0.007113*%
%ADD461R,0.213359X0.007113*%
%ADD462R,0.206247X0.007113*%
%ADD463R,0.199134X0.007109*%
%ADD464R,0.199138X0.007109*%
%ADD465R,0.163575X0.007113*%
%ADD466R,2.019809X0.007113*%
%ADD467R,0.142238X0.007113*%
%ADD468R,2.019809X0.007109*%
%ADD469R,0.120906X0.007109*%
%ADD470R,0.128016X0.007109*%
%ADD471R,0.711200X0.007109*%
%ADD472R,0.106681X0.007113*%
%ADD473R,0.092456X0.007113*%
%ADD474R,0.078231X0.007113*%
%ADD475R,0.049781X0.007113*%
%ADD476R,0.049784X0.007113*%
%ADD477R,0.654303X0.007109*%
%ADD478R,0.597409X0.007109*%
%ADD479R,0.519178X0.007113*%
%ADD480R,0.284481X0.007113*%
%ADD481R,0.341375X0.007113*%
%ADD482R,0.312928X0.007113*%
%ADD483R,0.320041X0.007113*%
%ADD484R,0.284481X0.007109*%
%ADD485R,0.369825X0.007109*%
%ADD486R,0.391163X0.007113*%
%ADD487R,0.149353X0.007113*%
%ADD488R,0.469394X0.007113*%
%ADD489R,0.497841X0.007109*%
%ADD490R,0.576072X0.007109*%
%ADD491R,0.632969X0.007109*%
%ADD492R,0.654306X0.007113*%
%ADD493R,0.817881X0.007109*%
%ADD494R,0.817878X0.007109*%
%ADD495R,0.675638X0.007113*%
%ADD496R,0.583184X0.007109*%
%ADD497R,0.832103X0.007109*%
%ADD498R,0.561850X0.007113*%
%ADD499R,0.846325X0.007109*%
%ADD500R,0.846325X0.007113*%
%ADD501R,0.476506X0.007113*%
%ADD502R,0.405381X0.007113*%
%ADD503R,0.384050X0.007109*%
%ADD504R,0.298706X0.007113*%
%ADD505R,0.234694X0.007113*%
%ADD506R,0.184913X0.007109*%
%ADD507R,0.910334X0.007109*%
%ADD508R,0.924563X0.007113*%
%ADD509R,0.938781X0.007109*%
%ADD510R,0.953009X0.007109*%
%ADD511R,0.967234X0.007113*%
%ADD512R,0.974347X0.007109*%
%ADD513R,0.981453X0.007113*%
%ADD514R,0.995681X0.007109*%
%ADD515R,1.017016X0.007109*%
%ADD516R,1.045466X0.007113*%
%ADD517R,1.073913X0.007109*%
%ADD518R,1.073909X0.007113*%
%ADD519R,1.088137X0.007113*%
%ADD520R,1.102363X0.007113*%
%ADD521R,1.116584X0.007113*%
%ADD522R,1.137922X0.007113*%
%ADD523R,1.152144X0.007109*%
%ADD524R,1.173481X0.007113*%
%ADD525R,1.201928X0.007109*%
%ADD526R,1.194816X0.007109*%
%ADD527R,1.223266X0.007113*%
%ADD528R,1.230378X0.007113*%
%ADD529R,1.223263X0.007113*%
%ADD530R,1.237488X0.007113*%
%ADD531R,1.251713X0.007113*%
%ADD532R,1.258825X0.007109*%
%ADD533R,1.273047X0.007113*%
%ADD534R,1.280159X0.007113*%
%ADD535R,1.287272X0.007113*%
%ADD536R,1.301494X0.007113*%
%ADD537R,1.315719X0.007113*%
%ADD538R,1.308606X0.007113*%
%ADD539R,1.329944X0.007113*%
%ADD540R,1.322831X0.007113*%
%ADD541R,1.344169X0.007113*%
%ADD542R,1.344166X0.007113*%
%ADD543R,1.365503X0.007109*%
%ADD544R,1.365506X0.007109*%
%ADD545R,1.379728X0.007113*%
%ADD546R,1.401063X0.007113*%
%ADD547R,1.401066X0.007113*%
%ADD548R,1.422400X0.007113*%
%ADD549R,1.429512X0.007113*%
%ADD550R,1.450847X0.007113*%
%ADD551R,1.486406X0.007113*%
%ADD552R,1.479297X0.007113*%
%ADD553R,1.521969X0.007109*%
%ADD554R,1.514856X0.007109*%
%ADD555R,1.571753X0.007113*%
%ADD556R,1.564641X0.007113*%
%ADD557R,7.403594X0.007113*%
%ADD558R,7.353806X0.007109*%
%ADD559R,7.332472X0.007113*%
%ADD560R,7.325359X0.007113*%
%ADD561R,7.282688X0.007109*%
%ADD562R,7.268463X0.007113*%
%ADD563R,7.254241X0.007113*%
%ADD564R,7.218681X0.007113*%
%ADD565R,7.204456X0.007113*%
%ADD566R,7.190231X0.007109*%
%ADD567R,7.176006X0.007113*%
%ADD568R,7.161784X0.007113*%
%ADD569R,7.112000X0.007109*%
%ADD570R,7.090663X0.007113*%
%ADD571R,7.076441X0.007113*%
%ADD572R,7.062216X0.007113*%
%ADD573R,7.047994X0.007113*%
%ADD574R,7.012431X0.007109*%
%ADD575R,6.998206X0.007113*%
%ADD576R,6.983984X0.007113*%
%ADD577R,6.969759X0.007113*%
%ADD578R,6.919975X0.007109*%
%ADD579R,6.905753X0.007113*%
%ADD580R,6.884416X0.007113*%
%ADD581R,6.870194X0.007113*%
%ADD582R,6.820406X0.007113*%
%ADD583R,6.799072X0.007109*%
%ADD584R,6.770625X0.007113*%
%ADD585R,6.742175X0.007113*%
%ADD586R,6.727950X0.007113*%
%ADD587R,6.685281X0.007109*%
%ADD588R,6.671056X0.007113*%
%ADD589R,6.656831X0.007113*%
%ADD590R,6.628384X0.007113*%
%ADD591R,6.585713X0.007113*%
%ADD592R,6.571487X0.007109*%
%ADD593R,6.550153X0.007113*%
%ADD594R,6.528816X0.007113*%
%ADD595R,6.507481X0.007113*%
%ADD596R,6.486144X0.007113*%
%ADD597R,6.457694X0.007113*%
%ADD598R,6.443472X0.007109*%
%ADD599R,6.415025X0.007113*%
%ADD600R,6.393688X0.007113*%
%ADD601R,6.372350X0.007113*%
%ADD602R,6.343906X0.007113*%
%ADD603R,6.322569X0.007113*%
%ADD604R,6.272784X0.007109*%
%ADD605R,6.244338X0.007113*%
%ADD606R,6.215888X0.007113*%
%ADD607R,6.187441X0.007113*%
%ADD608R,6.166103X0.007113*%
%ADD609R,6.137656X0.007113*%
%ADD610R,6.109206X0.007109*%
%ADD611R,6.080759X0.007113*%
%ADD612R,6.045200X0.007113*%
%ADD613R,6.016750X0.007113*%
%ADD614R,5.988306X0.007113*%
%ADD615R,5.959856X0.007113*%
%ADD616R,5.924297X0.007109*%
%ADD617R,5.888738X0.007113*%
%ADD618R,5.860288X0.007113*%
%ADD619R,5.817616X0.007113*%
%ADD620R,5.789169X0.007113*%
%ADD621R,5.746494X0.007113*%
%ADD622R,5.710938X0.007109*%
%ADD623R,5.675375X0.007113*%
%ADD624R,5.632706X0.007113*%
%ADD625R,5.590031X0.007113*%
%ADD626R,5.540247X0.007113*%
%ADD627R,5.490463X0.007113*%
%ADD628R,5.447794X0.007113*%
%ADD629R,5.390894X0.007109*%
%ADD630R,5.341113X0.007113*%
%ADD631R,5.284216X0.007113*%
%ADD632R,5.220206X0.007113*%
%ADD633R,5.156200X0.007113*%
%ADD634R,5.077969X0.007113*%
%ADD635R,4.999738X0.007109*%
%ADD636R,4.907281X0.007113*%
%ADD637R,4.786375X0.007113*%
%ADD638R,4.608575X0.007113*%
%ADD639R,3.162300X0.012700*%
%ADD640R,3.238500X0.012700*%
%ADD641R,3.289300X0.012700*%
%ADD642R,3.340100X0.012700*%
%ADD643R,3.352800X0.012700*%
%ADD644R,3.365500X0.012700*%
%ADD645R,3.416300X0.012700*%
%ADD646R,3.441700X0.012700*%
%ADD647R,3.467100X0.012700*%
%ADD648R,0.419100X0.012700*%
%ADD649R,0.520700X0.012700*%
%ADD650R,0.114300X0.012700*%
%ADD651R,0.546100X0.012700*%
%ADD652R,0.901700X0.012700*%
%ADD653R,0.952500X0.012700*%
%ADD654R,0.927100X0.012700*%
%ADD655R,0.977900X0.012700*%
%ADD656R,1.003300X0.012700*%
%ADD657R,1.016000X0.012700*%
%ADD658R,1.028700X0.012700*%
%ADD659R,1.079500X0.012700*%
%ADD660R,1.092200X0.012700*%
%ADD661R,1.130300X0.012700*%
%ADD662R,1.155700X0.012700*%
%ADD663R,1.168400X0.012700*%
%ADD664R,1.181100X0.012700*%
%ADD665R,1.206500X0.012700*%
%ADD666R,1.219200X0.012700*%
%ADD667R,1.231900X0.012700*%
%ADD668R,1.041400X0.012700*%
%ADD669R,1.257300X0.012700*%
%ADD670R,1.244600X0.012700*%
%ADD671R,1.054100X0.012700*%
%ADD672R,1.193800X0.012700*%
%ADD673R,0.673100X0.012700*%
%ADD674R,0.622300X0.012700*%
%ADD675R,0.584200X0.012700*%
%ADD676R,0.558800X0.012700*%
%ADD677R,0.533400X0.012700*%
%ADD678R,0.495300X0.012700*%
%ADD679R,0.469900X0.012700*%
%ADD680R,0.457200X0.012700*%
%ADD681R,0.139700X0.012700*%
%ADD682R,0.190500X0.012700*%
%ADD683R,0.444500X0.012700*%
%ADD684R,0.241300X0.012700*%
%ADD685R,0.292100X0.012700*%
%ADD686R,0.317500X0.012700*%
%ADD687R,0.342900X0.012700*%
%ADD688R,0.368300X0.012700*%
%ADD689R,0.393700X0.012700*%
%ADD690R,0.431800X0.012700*%
%ADD691R,0.482600X0.012700*%
%ADD692R,0.508000X0.012700*%
%ADD693R,0.571500X0.012700*%
%ADD694R,0.596900X0.012700*%
%ADD695R,0.635000X0.012700*%
%ADD696R,0.685800X0.012700*%
%ADD697R,0.698500X0.012700*%
%ADD698R,0.774700X0.012700*%
%ADD699R,1.320800X0.012700*%
%ADD700R,1.346200X0.012700*%
%ADD701R,1.333500X0.012700*%
%ADD702R,0.850900X0.012700*%
%ADD703R,0.876300X0.012700*%
%ADD704R,1.371600X0.012700*%
%ADD705R,0.647700X0.012700*%
%ADD706R,0.749300X0.012700*%
%ADD707R,1.308100X0.012700*%
%ADD708R,1.816100X0.012700*%
%ADD709R,1.295400X0.012700*%
%ADD710R,1.841500X0.012700*%
%ADD711R,1.282700X0.012700*%
%ADD712R,1.866900X0.012700*%
%ADD713R,1.892300X0.012700*%
%ADD714R,1.917700X0.012700*%
%ADD715R,3.251200X0.012700*%
%ADD716R,3.213100X0.012700*%
%ADD717R,3.187700X0.012700*%
%ADD718R,3.111500X0.012700*%
%ADD719R,3.035300X0.012700*%
%ADD720R,0.825500X0.012700*%
%ADD721R,0.723900X0.012700*%
%ADD722R,0.711200X0.012700*%
%ADD723R,0.609600X0.012700*%
%ADD724R,0.660400X0.012700*%
%ADD725R,2.336800X0.012700*%
%ADD726R,2.324100X0.012700*%
%ADD727R,2.311400X0.012700*%
%ADD728R,2.298700X0.012700*%
%ADD729R,2.273300X0.012700*%
%ADD730R,2.260600X0.012700*%
%ADD731R,2.247900X0.012700*%
%ADD732R,2.222500X0.012700*%
%ADD733R,2.197100X0.012700*%
%ADD734R,2.184400X0.012700*%
%ADD735R,2.171700X0.012700*%
%ADD736R,2.159000X0.012700*%
%ADD737R,2.120900X0.012700*%
%ADD738R,2.095500X0.012700*%
%ADD739R,2.070100X0.012700*%
%ADD740R,2.044700X0.012700*%
%ADD741R,3.606800X0.012700*%
%ADD742R,3.581400X0.012700*%
%ADD743R,3.568700X0.012700*%
%ADD744R,3.543300X0.012700*%
%ADD745R,3.556000X0.012700*%
%ADD746R,3.517900X0.012700*%
%ADD747R,3.505200X0.012700*%
%ADD748R,3.492500X0.012700*%
%ADD749R,3.390900X0.012700*%
%ADD750R,3.314700X0.012700*%
%ADD751R,3.263900X0.012700*%
%ADD752R,0.800100X0.012700*%
%ADD753R,2.425700X0.012700*%
%ADD754R,0.215900X0.012700*%
%ADD755C,0.000000*%


D10*
X139111Y33689D02*
X139111Y41117D01*
X135397Y41117D01*
X134159Y39879D01*
X134159Y37403D01*
X135397Y36165D01*
X139111Y36165D01*
X136635Y36165D02*
X134159Y33689D01*
X128164Y31213D02*
X126926Y31213D01*
X125688Y32451D01*
X125688Y38641D01*
X129402Y38641D01*
X130640Y37403D01*
X130640Y34927D01*
X129402Y33689D01*
X125688Y33689D01*
X122169Y33689D02*
X122169Y41117D01*
X118454Y41117D01*
X117216Y39879D01*
X117216Y37403D01*
X118454Y36165D01*
X122169Y36165D01*
X119692Y36165D02*
X117216Y33689D01*
X105226Y33689D02*
X105226Y41117D01*
X105226Y33689D02*
X101512Y33689D01*
X100274Y34927D01*
X100274Y39879D01*
X101512Y41117D01*
X105226Y41117D01*
X95517Y33689D02*
X93041Y33689D01*
X95517Y33689D02*
X96755Y34927D01*
X96755Y37403D01*
X95517Y38641D01*
X93041Y38641D01*
X91803Y37403D01*
X91803Y36165D01*
X96755Y36165D01*
X88284Y38641D02*
X85808Y33689D01*
X83331Y38641D01*
X78574Y33689D02*
X76098Y33689D01*
X78574Y33689D02*
X79812Y34927D01*
X79812Y37403D01*
X78574Y38641D01*
X76098Y38641D01*
X74860Y37403D01*
X74860Y36165D01*
X79812Y36165D01*
X71341Y41117D02*
X70103Y41117D01*
X70103Y33689D01*
X71341Y33689D02*
X68865Y33689D01*
X64456Y33689D02*
X61980Y33689D01*
X60742Y34927D01*
X60742Y37403D01*
X61980Y38641D01*
X64456Y38641D01*
X65694Y37403D01*
X65694Y34927D01*
X64456Y33689D01*
X57223Y31213D02*
X57223Y38641D01*
X53508Y38641D01*
X52270Y37403D01*
X52270Y34927D01*
X53508Y33689D01*
X57223Y33689D01*
X47513Y33689D02*
X45037Y33689D01*
X47513Y33689D02*
X48751Y34927D01*
X48751Y37403D01*
X47513Y38641D01*
X45037Y38641D01*
X43799Y37403D01*
X43799Y36165D01*
X48751Y36165D01*
X40280Y33689D02*
X40280Y38641D01*
X39042Y38641D01*
X37804Y37403D01*
X37804Y33689D01*
X37804Y37403D02*
X36566Y38641D01*
X35328Y37403D01*
X35328Y33689D01*
X31809Y33689D02*
X31809Y38641D01*
X28095Y38641D01*
X26857Y37403D01*
X26857Y33689D01*
X22100Y34927D02*
X22100Y39879D01*
X22100Y34927D02*
X20862Y33689D01*
X20862Y38641D02*
X23338Y38641D01*
X136635Y19889D02*
X139111Y22365D01*
X139111Y24841D01*
X136635Y27317D01*
X129749Y27317D02*
X128511Y26079D01*
X129749Y27317D02*
X132226Y27317D01*
X133464Y26079D01*
X133464Y21127D01*
X132226Y19889D01*
X129749Y19889D01*
X128511Y21127D01*
X124992Y19889D02*
X122516Y22365D01*
X122516Y24841D01*
X124992Y27317D01*
X110874Y19889D02*
X105921Y19889D01*
X105921Y24841D02*
X110874Y19889D01*
X105921Y24841D02*
X105921Y26079D01*
X107159Y27317D01*
X109636Y27317D01*
X110874Y26079D01*
X102402Y26079D02*
X102402Y21127D01*
X102402Y26079D02*
X101164Y27317D01*
X98688Y27317D01*
X97450Y26079D01*
X97450Y21127D01*
X98688Y19889D01*
X101164Y19889D01*
X102402Y21127D01*
X97450Y26079D01*
X93931Y24841D02*
X91455Y27317D01*
X91455Y19889D01*
X93931Y19889D02*
X88979Y19889D01*
X85460Y21127D02*
X84222Y19889D01*
X81746Y19889D01*
X80508Y21127D01*
X80508Y26079D01*
X81746Y27317D01*
X84222Y27317D01*
X85460Y26079D01*
X85460Y24841D01*
X84222Y23603D01*
X80508Y23603D01*
X165611Y84889D02*
X165611Y92317D01*
X161897Y92317D01*
X160659Y91079D01*
X160659Y88603D01*
X161897Y87365D01*
X165611Y87365D01*
X163135Y87365D02*
X160659Y84889D01*
X154664Y82413D02*
X153426Y82413D01*
X152188Y83651D01*
X152188Y89841D01*
X155902Y89841D01*
X157140Y88603D01*
X157140Y86127D01*
X155902Y84889D01*
X152188Y84889D01*
X148669Y84889D02*
X148669Y92317D01*
X144954Y92317D01*
X143716Y91079D01*
X143716Y88603D01*
X144954Y87365D01*
X148669Y87365D01*
X146192Y87365D02*
X143716Y84889D01*
X128012Y92317D02*
X126774Y91079D01*
X128012Y92317D02*
X130488Y92317D01*
X131726Y91079D01*
X131726Y86127D01*
X130488Y84889D01*
X128012Y84889D01*
X126774Y86127D01*
X126774Y88603D01*
X129250Y88603D01*
X123255Y84889D02*
X123255Y92317D01*
X119541Y92317D01*
X118303Y91079D01*
X118303Y88603D01*
X119541Y87365D01*
X123255Y87365D01*
X114784Y89841D02*
X113546Y89841D01*
X113546Y84889D01*
X114784Y84889D02*
X112308Y84889D01*
X113546Y92317D02*
X113546Y93555D01*
X109136Y92317D02*
X109136Y84889D01*
X106660Y89841D02*
X109136Y92317D01*
X106660Y89841D02*
X104184Y92317D01*
X104184Y84889D01*
X99427Y89841D02*
X96951Y89841D01*
X95713Y88603D01*
X95713Y84889D01*
X99427Y84889D01*
X100665Y86127D01*
X99427Y87365D01*
X95713Y87365D01*
X90956Y86127D02*
X90956Y91079D01*
X90956Y86127D02*
X89718Y84889D01*
X89718Y89841D02*
X92194Y89841D01*
X85308Y84889D02*
X82832Y84889D01*
X85308Y84889D02*
X86546Y86127D01*
X86546Y88603D01*
X85308Y89841D01*
X82832Y89841D01*
X81594Y88603D01*
X81594Y87365D01*
X86546Y87365D01*
X69604Y88603D02*
X64652Y88603D01*
X52661Y84889D02*
X52661Y92317D01*
X52661Y88603D02*
X47709Y88603D01*
X47709Y92317D02*
X47709Y84889D01*
X44190Y84889D02*
X44190Y92317D01*
X44190Y84889D02*
X40476Y84889D01*
X39238Y86127D01*
X39238Y91079D01*
X40476Y92317D01*
X44190Y92317D01*
X35719Y92317D02*
X35719Y84889D01*
X33243Y89841D02*
X35719Y92317D01*
X33243Y89841D02*
X30767Y92317D01*
X30767Y84889D01*
X27248Y84889D02*
X24772Y84889D01*
X26010Y84889D02*
X26010Y92317D01*
X27248Y92317D02*
X24772Y92317D01*
X13129Y92317D02*
X8177Y92317D01*
X13129Y92317D02*
X13129Y84889D01*
X8177Y84889D01*
X10653Y88603D02*
X13129Y88603D01*
X4658Y89841D02*
X-294Y84889D01*
X4658Y84889D02*
X-294Y89841D01*
X-5051Y91079D02*
X-5051Y86127D01*
X-6289Y84889D01*
X-6289Y89841D02*
X-3813Y89841D01*
D11*
X59829Y127957D03*
D12*
X59794Y128028D03*
D13*
X59829Y128099D03*
D14*
X59794Y128170D03*
D15*
X59829Y128241D03*
D16*
X59829Y128312D03*
D17*
X59829Y128384D03*
D18*
X59829Y128455D03*
D19*
X59829Y128526D03*
D20*
X59794Y128597D03*
D21*
X59829Y128668D03*
D22*
X59794Y128739D03*
D23*
X59829Y128810D03*
D24*
X59829Y128881D03*
D25*
X59829Y128952D03*
D26*
X59794Y129024D03*
D27*
X59829Y129095D03*
D28*
X59829Y129166D03*
D29*
X59829Y129237D03*
D30*
X59829Y129308D03*
D31*
X59829Y129379D03*
D32*
X59829Y129450D03*
D33*
X59829Y129521D03*
D34*
X59829Y129593D03*
D35*
X59829Y129664D03*
D36*
X59829Y129735D03*
D37*
X59829Y129806D03*
D38*
X59829Y129877D03*
D39*
X59829Y129948D03*
D40*
X59829Y130019D03*
D41*
X59829Y130090D03*
D42*
X59829Y130162D03*
D43*
X59829Y130233D03*
D44*
X59829Y130304D03*
D45*
X59794Y130375D03*
D46*
X59829Y130446D03*
D47*
X59829Y130517D03*
D48*
X59829Y130588D03*
D49*
X59794Y130659D03*
D50*
X59829Y130730D03*
D51*
X59829Y130802D03*
D52*
X59829Y130873D03*
D53*
X59829Y130944D03*
D54*
X59794Y131015D03*
D55*
X59829Y131086D03*
D56*
X59794Y131157D03*
D57*
X59829Y131228D03*
D58*
X59794Y131299D03*
D59*
X59829Y131371D03*
D60*
X59829Y131442D03*
D61*
X59829Y131513D03*
D62*
X59829Y131584D03*
D63*
X59794Y131655D03*
D64*
X59829Y131726D03*
D65*
X59829Y131797D03*
D66*
X59794Y131868D03*
D67*
X59829Y131940D03*
D68*
X59829Y132011D03*
D69*
X59829Y132082D03*
D70*
X59794Y132153D03*
D71*
X59829Y132224D03*
D72*
X59829Y132295D03*
D73*
X59829Y132366D03*
D74*
X59794Y132437D03*
D75*
X59829Y132508D03*
D76*
X59829Y132580D03*
D77*
X59829Y132651D03*
D78*
X59829Y132722D03*
D79*
X59829Y132793D03*
D80*
X59829Y132864D03*
D81*
X59794Y132935D03*
D82*
X59829Y133006D03*
D83*
X59829Y133077D03*
D84*
X59829Y133149D03*
D85*
X59829Y133220D03*
D86*
X59829Y133291D03*
D87*
X59829Y133362D03*
D88*
X59829Y133433D03*
D89*
X59829Y133504D03*
D90*
X59829Y133575D03*
D91*
X59829Y133646D03*
D92*
X59829Y133718D03*
D93*
X59829Y133789D03*
D94*
X59829Y133860D03*
D95*
X59829Y133931D03*
D96*
X59829Y134002D03*
D97*
X59829Y134073D03*
D98*
X59829Y134144D03*
D99*
X59829Y134215D03*
D100*
X59794Y134286D03*
D101*
X59794Y134358D03*
D102*
X59829Y134429D03*
D103*
X59829Y134500D03*
D104*
X59829Y134571D03*
D105*
X59829Y134642D03*
D106*
X59829Y134713D03*
D107*
X59829Y134784D03*
D108*
X59794Y134855D03*
D109*
X59829Y134927D03*
D110*
X59829Y134998D03*
D111*
X59829Y135069D03*
D112*
X59829Y135140D03*
D113*
X59829Y135211D03*
D114*
X59794Y135282D03*
D115*
X59829Y135353D03*
D116*
X59829Y135424D03*
D117*
X59829Y135496D03*
D118*
X59794Y135567D03*
D119*
X59829Y135638D03*
D120*
X59829Y135709D03*
D121*
X59829Y135780D03*
D122*
X59794Y135851D03*
D123*
X59829Y135922D03*
D124*
X59829Y135993D03*
D125*
X59829Y136064D03*
D126*
X59794Y136136D03*
D127*
X59829Y136207D03*
D128*
X59829Y136278D03*
D129*
X59794Y136349D03*
D130*
X59829Y136420D03*
D131*
X59829Y136491D03*
D132*
X59794Y136562D03*
D133*
X59829Y136633D03*
D134*
X59829Y136705D03*
D135*
X59794Y136776D03*
D136*
X59829Y136847D03*
D137*
X59829Y136918D03*
D138*
X59794Y136989D03*
D139*
X59829Y137060D03*
D140*
X59829Y137131D03*
X59829Y137202D03*
D141*
X59829Y137274D03*
D142*
X59794Y137345D03*
D143*
X59829Y137416D03*
D144*
X59829Y137487D03*
D145*
X95318Y137558D03*
D146*
X83903Y137558D03*
D147*
X69964Y137558D03*
D148*
X48521Y137558D03*
D149*
X35079Y137558D03*
D150*
X23202Y137558D03*
D151*
X95354Y137629D03*
D152*
X83939Y137629D03*
D153*
X70284Y137629D03*
D154*
X48237Y137629D03*
D155*
X35115Y137629D03*
D156*
X23202Y137629D03*
D151*
X95354Y137700D03*
D157*
X83974Y137700D03*
D158*
X70462Y137700D03*
D159*
X48094Y137700D03*
D152*
X35151Y137700D03*
D160*
X23202Y137700D03*
D161*
X95389Y137771D03*
D162*
X84010Y137771D03*
D163*
X70675Y137771D03*
D162*
X47952Y137771D03*
D164*
X35186Y137771D03*
D165*
X23238Y137771D03*
D166*
X95425Y137842D03*
D167*
X84046Y137842D03*
D168*
X70817Y137842D03*
D169*
X47845Y137842D03*
D170*
X35222Y137842D03*
D171*
X23238Y137842D03*
D166*
X95425Y137914D03*
D172*
X84081Y137914D03*
D173*
X70924Y137914D03*
D174*
X47774Y137914D03*
D167*
X35257Y137914D03*
D175*
X23274Y137914D03*
D176*
X95460Y137985D03*
D177*
X84117Y137985D03*
D178*
X71031Y137985D03*
D179*
X47703Y137985D03*
D172*
X35293Y137985D03*
D180*
X23274Y137985D03*
D176*
X95460Y138056D03*
D177*
X84117Y138056D03*
D181*
X71137Y138056D03*
D182*
X47632Y138056D03*
D169*
X35328Y138056D03*
D183*
X23309Y138056D03*
D184*
X95496Y138127D03*
D185*
X84152Y138127D03*
D186*
X71244Y138127D03*
D187*
X47561Y138127D03*
D185*
X35364Y138127D03*
D188*
X23309Y138127D03*
D189*
X95496Y138198D03*
D190*
X84188Y138198D03*
D191*
X71315Y138198D03*
D192*
X47525Y138198D03*
D190*
X35399Y138198D03*
D193*
X23345Y138198D03*
D194*
X95531Y138269D03*
D195*
X84223Y138269D03*
D196*
X71386Y138269D03*
D197*
X47490Y138269D03*
D195*
X35435Y138269D03*
D198*
X23345Y138269D03*
D194*
X95531Y138340D03*
D199*
X84259Y138340D03*
D196*
X71457Y138340D03*
D200*
X47454Y138340D03*
D199*
X35471Y138340D03*
D201*
X23380Y138340D03*
D186*
X95567Y138411D03*
D202*
X84294Y138411D03*
D196*
X71528Y138411D03*
D203*
X47419Y138411D03*
D202*
X35506Y138411D03*
D204*
X23416Y138411D03*
D186*
X95567Y138483D03*
D205*
X84330Y138483D03*
D186*
X71600Y138483D03*
D206*
X47383Y138483D03*
D182*
X35542Y138483D03*
D207*
X23416Y138483D03*
D208*
X95603Y138554D03*
D209*
X84366Y138554D03*
D186*
X71671Y138554D03*
D210*
X47348Y138554D03*
D182*
X35542Y138554D03*
D211*
X23451Y138554D03*
D208*
X95603Y138625D03*
D187*
X84401Y138625D03*
D208*
X71706Y138625D03*
D210*
X47348Y138625D03*
D212*
X35577Y138625D03*
D213*
X23451Y138625D03*
D214*
X95638Y138696D03*
D192*
X84437Y138696D03*
D215*
X71777Y138696D03*
D216*
X47312Y138696D03*
D217*
X35613Y138696D03*
D218*
X23487Y138696D03*
D219*
X95638Y138767D03*
D220*
X84472Y138767D03*
D173*
X71848Y138767D03*
D221*
X47276Y138767D03*
D222*
X35648Y138767D03*
D223*
X23487Y138767D03*
D173*
X95674Y138838D03*
D224*
X84508Y138838D03*
D173*
X71920Y138838D03*
D221*
X47276Y138838D03*
D220*
X35684Y138838D03*
D225*
X23522Y138838D03*
D173*
X95674Y138909D03*
D147*
X84543Y138909D03*
D168*
X71955Y138909D03*
D226*
X47241Y138909D03*
D224*
X35720Y138909D03*
D227*
X23522Y138909D03*
D168*
X95709Y138980D03*
D228*
X84579Y138980D03*
D168*
X72026Y138980D03*
D226*
X47241Y138980D03*
D203*
X35755Y138980D03*
D145*
X23558Y138980D03*
D168*
X95709Y139052D03*
D210*
X84614Y139052D03*
D229*
X72062Y139052D03*
D226*
X47241Y139052D03*
D206*
X35791Y139052D03*
D230*
X23558Y139052D03*
D231*
X95745Y139123D03*
D216*
X84650Y139123D03*
D232*
X72133Y139123D03*
D233*
X47205Y139123D03*
D234*
X35826Y139123D03*
D235*
X23594Y139123D03*
D236*
X95745Y139194D03*
D237*
X84650Y139194D03*
D238*
X72169Y139194D03*
D239*
X47205Y139194D03*
D237*
X35862Y139194D03*
D176*
X23629Y139194D03*
D240*
X95780Y139265D03*
D221*
X84686Y139265D03*
D241*
X72204Y139265D03*
D239*
X47205Y139265D03*
D221*
X35897Y139265D03*
D194*
X23629Y139265D03*
D240*
X95780Y139336D03*
D242*
X84721Y139336D03*
D243*
X72275Y139336D03*
D153*
X47170Y139336D03*
D242*
X35933Y139336D03*
D208*
X23700Y139336D03*
D243*
X95816Y139407D03*
D244*
X84757Y139407D03*
D245*
X72311Y139407D03*
D153*
X47170Y139407D03*
D244*
X35968Y139407D03*
D173*
X23700Y139407D03*
D243*
X95816Y139478D03*
D246*
X84792Y139478D03*
D247*
X72346Y139478D03*
D153*
X47170Y139478D03*
X36004Y139478D03*
D168*
X23736Y139478D03*
D248*
X95816Y139549D03*
D249*
X84828Y139549D03*
D250*
X72417Y139549D03*
D249*
X47134Y139549D03*
X36040Y139549D03*
D163*
X23736Y139549D03*
D245*
X95851Y139620D03*
D247*
X84863Y139620D03*
D251*
X72453Y139620D03*
X47134Y139620D03*
X36040Y139620D03*
D241*
X23771Y139620D03*
D245*
X95851Y139692D03*
D158*
X84899Y139692D03*
D153*
X72489Y139692D03*
D251*
X47134Y139692D03*
D247*
X36075Y139692D03*
X23771Y139692D03*
D252*
X95887Y139763D03*
D241*
X84935Y139763D03*
D226*
X72560Y139763D03*
D251*
X47134Y139763D03*
D158*
X36111Y139763D03*
D251*
X23807Y139763D03*
D252*
X95887Y139834D03*
D238*
X84970Y139834D03*
D226*
X72631Y139834D03*
D247*
X47099Y139834D03*
D241*
X36146Y139834D03*
D246*
X23842Y139834D03*
D251*
X95923Y139905D03*
D229*
X85006Y139905D03*
D221*
X72666Y139905D03*
D247*
X47099Y139905D03*
D238*
X36182Y139905D03*
D242*
X23842Y139905D03*
D249*
X95923Y139976D03*
D253*
X85041Y139976D03*
D216*
X72702Y139976D03*
D250*
X47099Y139976D03*
D231*
X36217Y139976D03*
D254*
X23878Y139976D03*
D251*
X95923Y140047D03*
D173*
X85077Y140047D03*
D210*
X72737Y140047D03*
D247*
X47099Y140047D03*
D168*
X36253Y140047D03*
D210*
X23878Y140047D03*
D153*
X95958Y140118D03*
D178*
X85112Y140118D03*
D206*
X72773Y140118D03*
D247*
X47099Y140118D03*
D173*
X36288Y140118D03*
D206*
X23914Y140118D03*
D153*
X95958Y140189D03*
D181*
X85148Y140189D03*
D203*
X72809Y140189D03*
D247*
X47099Y140189D03*
D178*
X36324Y140189D03*
D203*
X23949Y140189D03*
D239*
X95994Y140261D03*
D181*
X85148Y140261D03*
D203*
X72880Y140261D03*
D158*
X47063Y140261D03*
D181*
X36360Y140261D03*
D220*
X23949Y140261D03*
D239*
X95994Y140332D03*
D196*
X85183Y140332D03*
D224*
X72915Y140332D03*
D158*
X47063Y140332D03*
D196*
X36395Y140332D03*
D187*
X24020Y140332D03*
D239*
X95994Y140403D03*
D255*
X85219Y140403D03*
D220*
X72951Y140403D03*
D158*
X47063Y140403D03*
D194*
X36431Y140403D03*
D182*
X24020Y140403D03*
D256*
X96029Y140474D03*
D257*
X85255Y140474D03*
D192*
X72986Y140474D03*
D258*
X47063Y140474D03*
D189*
X36466Y140474D03*
D259*
X24056Y140474D03*
D226*
X96029Y140545D03*
D176*
X85290Y140545D03*
D187*
X73022Y140545D03*
D158*
X47063Y140545D03*
D176*
X36502Y140545D03*
D179*
X24091Y140545D03*
D260*
X96065Y140616D03*
D261*
X85326Y140616D03*
D212*
X73058Y140616D03*
D158*
X47063Y140616D03*
D261*
X36537Y140616D03*
D174*
X24091Y140616D03*
D260*
X96065Y140687D03*
D230*
X85361Y140687D03*
D182*
X73093Y140687D03*
D158*
X47063Y140687D03*
D230*
X36573Y140687D03*
D262*
X24127Y140687D03*
D260*
X96065Y140758D03*
D263*
X85397Y140758D03*
D199*
X73164Y140758D03*
D158*
X47063Y140758D03*
D230*
X36573Y140758D03*
D177*
X24163Y140758D03*
D264*
X96100Y140830D03*
D265*
X85432Y140830D03*
D195*
X73200Y140830D03*
D266*
X59758Y140830D03*
D158*
X47063Y140830D03*
D263*
X36609Y140830D03*
D167*
X24163Y140830D03*
D267*
X96100Y140901D03*
D268*
X85468Y140901D03*
D190*
X73235Y140901D03*
D269*
X59758Y140901D03*
D258*
X47063Y140901D03*
D270*
X36644Y140901D03*
D162*
X24198Y140901D03*
D264*
X96100Y140972D03*
D271*
X85503Y140972D03*
D185*
X73271Y140972D03*
D266*
X59758Y140972D03*
D243*
X47028Y140972D03*
D227*
X36680Y140972D03*
D152*
X24198Y140972D03*
D210*
X96136Y141043D03*
D225*
X85539Y141043D03*
D185*
X73342Y141043D03*
D266*
X59758Y141043D03*
D243*
X47028Y141043D03*
D271*
X36715Y141043D03*
D155*
X24234Y141043D03*
D210*
X96136Y141114D03*
D223*
X85575Y141114D03*
D177*
X73378Y141114D03*
D266*
X59758Y141114D03*
D243*
X47028Y141114D03*
D225*
X36751Y141114D03*
D149*
X24269Y141114D03*
D210*
X96136Y141185D03*
D272*
X85610Y141185D03*
D172*
X73413Y141185D03*
D266*
X59758Y141185D03*
D243*
X47028Y141185D03*
D223*
X36786Y141185D03*
D273*
X24269Y141185D03*
D206*
X96171Y141256D03*
D274*
X85646Y141256D03*
D167*
X73449Y141256D03*
D266*
X59758Y141256D03*
D243*
X47028Y141256D03*
D272*
X36822Y141256D03*
D275*
X24305Y141256D03*
D276*
X96171Y141327D03*
D277*
X85681Y141327D03*
D162*
X73484Y141327D03*
D269*
X59758Y141327D03*
D248*
X47028Y141327D03*
D218*
X36857Y141327D03*
D278*
X24376Y141327D03*
D206*
X96171Y141398D03*
D213*
X85681Y141398D03*
D157*
X73520Y141398D03*
D266*
X59758Y141398D03*
D243*
X47028Y141398D03*
D279*
X36893Y141398D03*
D280*
X24376Y141398D03*
D203*
X96207Y141470D03*
D281*
X85717Y141470D03*
D152*
X73555Y141470D03*
D266*
X59758Y141470D03*
D243*
X47028Y141470D03*
D281*
X36929Y141470D03*
D282*
X24411Y141470D03*
D203*
X96207Y141541D03*
D211*
X85752Y141541D03*
D155*
X73591Y141541D03*
D266*
X59758Y141541D03*
D243*
X47028Y141541D03*
D211*
X36964Y141541D03*
D283*
X24447Y141541D03*
D203*
X96207Y141612D03*
D284*
X85788Y141612D03*
D149*
X73626Y141612D03*
D266*
X59758Y141612D03*
D243*
X47028Y141612D03*
D284*
X37000Y141612D03*
D285*
X24483Y141612D03*
D200*
X96243Y141683D03*
D286*
X85824Y141683D03*
D287*
X73662Y141683D03*
D266*
X59758Y141683D03*
D243*
X47028Y141683D03*
D286*
X37035Y141683D03*
D148*
X24483Y141683D03*
D288*
X96243Y141754D03*
D289*
X85859Y141754D03*
D290*
X73733Y141754D03*
D269*
X59758Y141754D03*
D248*
X47028Y141754D03*
D289*
X37071Y141754D03*
D291*
X24518Y141754D03*
D200*
X96243Y141825D03*
D292*
X85895Y141825D03*
D154*
X73769Y141825D03*
D266*
X59758Y141825D03*
D243*
X47028Y141825D03*
D293*
X37071Y141825D03*
D294*
X24554Y141825D03*
D200*
X96243Y141896D03*
D295*
X85930Y141896D03*
D296*
X73804Y141896D03*
D266*
X59758Y141896D03*
D243*
X47028Y141896D03*
D201*
X37106Y141896D03*
D297*
X24554Y141896D03*
D197*
X96278Y141967D03*
D298*
X85966Y141967D03*
D299*
X73840Y141967D03*
D266*
X59758Y141967D03*
D243*
X47028Y141967D03*
D295*
X37142Y141967D03*
D300*
X24589Y141967D03*
D197*
X96278Y142039D03*
D198*
X86001Y142039D03*
D301*
X73875Y142039D03*
D266*
X59758Y142039D03*
D243*
X47028Y142039D03*
D298*
X37177Y142039D03*
D302*
X24625Y142039D03*
D197*
X96278Y142110D03*
D303*
X86037Y142110D03*
D282*
X73911Y142110D03*
D266*
X59758Y142110D03*
D243*
X47028Y142110D03*
D198*
X37213Y142110D03*
D304*
X24625Y142110D03*
D305*
X96314Y142181D03*
D306*
X86072Y142181D03*
D283*
X73947Y142181D03*
D266*
X59758Y142181D03*
D243*
X47028Y142181D03*
D303*
X37249Y142181D03*
D307*
X24660Y142181D03*
D308*
X96314Y142252D03*
D309*
X86108Y142252D03*
D310*
X73982Y142252D03*
D269*
X59758Y142252D03*
D248*
X47028Y142252D03*
D193*
X37284Y142252D03*
D269*
X24696Y142252D03*
D305*
X96314Y142323D03*
D311*
X86144Y142323D03*
D312*
X74018Y142323D03*
D266*
X59758Y142323D03*
D243*
X47028Y142323D03*
D188*
X37320Y142323D03*
D313*
X24767Y142323D03*
D305*
X96314Y142394D03*
D183*
X86179Y142394D03*
D314*
X74053Y142394D03*
D266*
X59758Y142394D03*
D243*
X47028Y142394D03*
D315*
X37355Y142394D03*
D316*
X24767Y142394D03*
D187*
X96349Y142465D03*
D183*
X86179Y142465D03*
D317*
X74089Y142465D03*
D266*
X59758Y142465D03*
D243*
X47028Y142465D03*
D183*
X37391Y142465D03*
D318*
X24803Y142465D03*
D187*
X96349Y142536D03*
D180*
X86215Y142536D03*
D319*
X74124Y142536D03*
D266*
X59758Y142536D03*
D243*
X47028Y142536D03*
D180*
X37426Y142536D03*
D320*
X24838Y142536D03*
D187*
X96349Y142608D03*
D321*
X86250Y142608D03*
D322*
X74160Y142608D03*
D266*
X59758Y142608D03*
D243*
X47028Y142608D03*
D321*
X37462Y142608D03*
D323*
X24874Y142608D03*
D217*
X96349Y142679D03*
D324*
X86286Y142679D03*
D325*
X74195Y142679D03*
D269*
X59758Y142679D03*
D248*
X47028Y142679D03*
D324*
X37498Y142679D03*
D326*
X24874Y142679D03*
D212*
X96385Y142750D03*
D171*
X86321Y142750D03*
D327*
X74267Y142750D03*
D266*
X59758Y142750D03*
D243*
X47028Y142750D03*
D328*
X37533Y142750D03*
D329*
X24909Y142750D03*
D212*
X96385Y142821D03*
D330*
X86357Y142821D03*
D331*
X74302Y142821D03*
D266*
X59758Y142821D03*
D243*
X47028Y142821D03*
D332*
X37569Y142821D03*
D333*
X24945Y142821D03*
D212*
X96385Y142892D03*
D334*
X86392Y142892D03*
D304*
X74338Y142892D03*
D266*
X59758Y142892D03*
D243*
X47028Y142892D03*
D334*
X37604Y142892D03*
D335*
X24980Y142892D03*
D212*
X96385Y142963D03*
D336*
X86428Y142963D03*
D307*
X74373Y142963D03*
D266*
X59758Y142963D03*
D243*
X47028Y142963D03*
D334*
X37604Y142963D03*
D337*
X24980Y142963D03*
D182*
X96420Y143034D03*
D338*
X86464Y143034D03*
D266*
X74409Y143034D03*
X59758Y143034D03*
D243*
X47028Y143034D03*
D336*
X37640Y143034D03*
D339*
X25016Y143034D03*
D340*
X96420Y143105D03*
D341*
X86499Y143105D03*
D342*
X74444Y143105D03*
D269*
X59758Y143105D03*
D248*
X47028Y143105D03*
D343*
X37675Y143105D03*
D344*
X25052Y143105D03*
D182*
X96420Y143176D03*
D345*
X86535Y143176D03*
D346*
X74480Y143176D03*
D266*
X59758Y143176D03*
D243*
X47028Y143176D03*
D347*
X37711Y143176D03*
D348*
X25087Y143176D03*
D182*
X96420Y143248D03*
D349*
X86570Y143248D03*
D350*
X74515Y143248D03*
D266*
X59758Y143248D03*
D243*
X47028Y143248D03*
D345*
X37746Y143248D03*
D351*
X25087Y143248D03*
D352*
X96456Y143319D03*
D353*
X86606Y143319D03*
D316*
X74551Y143319D03*
D266*
X59758Y143319D03*
D243*
X47028Y143319D03*
D150*
X37782Y143319D03*
D354*
X25158Y143319D03*
D352*
X96456Y143390D03*
D355*
X86641Y143390D03*
D318*
X74587Y143390D03*
D266*
X59758Y143390D03*
D243*
X47028Y143390D03*
D353*
X37818Y143390D03*
D356*
X25194Y143390D03*
D352*
X96456Y143461D03*
D357*
X86677Y143461D03*
D320*
X74622Y143461D03*
D266*
X59758Y143461D03*
D243*
X47028Y143461D03*
D355*
X37853Y143461D03*
D358*
X25229Y143461D03*
D259*
X96456Y143532D03*
D359*
X86713Y143532D03*
D360*
X74658Y143532D03*
D269*
X59758Y143532D03*
D248*
X47028Y143532D03*
D361*
X37889Y143532D03*
D362*
X25265Y143532D03*
D352*
X96456Y143603D03*
D363*
X86713Y143603D03*
D364*
X74693Y143603D03*
D266*
X59758Y143603D03*
D243*
X47028Y143603D03*
D363*
X37924Y143603D03*
D365*
X25265Y143603D03*
D179*
X96492Y143674D03*
D366*
X86748Y143674D03*
D367*
X74729Y143674D03*
D266*
X59758Y143674D03*
D243*
X47028Y143674D03*
D366*
X37960Y143674D03*
D368*
X25300Y143674D03*
D179*
X96492Y143745D03*
D369*
X86784Y143745D03*
D333*
X74800Y143745D03*
D266*
X59758Y143745D03*
D243*
X47028Y143745D03*
D370*
X37995Y143745D03*
D371*
X25336Y143745D03*
D179*
X96492Y143817D03*
D372*
X86819Y143817D03*
D335*
X74836Y143817D03*
D266*
X59758Y143817D03*
D243*
X47028Y143817D03*
D372*
X38031Y143817D03*
D373*
X25372Y143817D03*
D179*
X96492Y143888D03*
D374*
X86855Y143888D03*
D375*
X74871Y143888D03*
D266*
X59758Y143888D03*
D243*
X47028Y143888D03*
D374*
X38066Y143888D03*
D376*
X25407Y143888D03*
D179*
X96492Y143959D03*
D377*
X86890Y143959D03*
D337*
X74907Y143959D03*
D266*
X59758Y143959D03*
D243*
X47028Y143959D03*
D377*
X38102Y143959D03*
D378*
X25443Y143959D03*
D379*
X96492Y144030D03*
D380*
X86926Y144030D03*
D381*
X74942Y144030D03*
D269*
X59758Y144030D03*
D248*
X47028Y144030D03*
D382*
X38102Y144030D03*
D383*
X25443Y144030D03*
D384*
X96527Y144101D03*
D385*
X86961Y144101D03*
D386*
X74942Y144101D03*
D266*
X59758Y144101D03*
D243*
X47028Y144101D03*
D385*
X38102Y144101D03*
D387*
X25478Y144101D03*
D384*
X96527Y144172D03*
D170*
X73484Y144172D03*
D266*
X59758Y144172D03*
D243*
X47028Y144172D03*
D322*
X24020Y144172D03*
D384*
X96527Y144243D03*
D174*
X73306Y144243D03*
D266*
X59758Y144243D03*
D243*
X47028Y144243D03*
D285*
X23842Y144243D03*
D384*
X96527Y144314D03*
D202*
X73200Y144314D03*
D266*
X59758Y144314D03*
D243*
X47028Y144314D03*
D299*
X23700Y144314D03*
D384*
X96527Y144386D03*
D187*
X73093Y144386D03*
D266*
X59758Y144386D03*
D243*
X47028Y144386D03*
D275*
X23594Y144386D03*
D388*
X96527Y144457D03*
D389*
X72986Y144457D03*
D269*
X59758Y144457D03*
D248*
X47028Y144457D03*
D390*
X23487Y144457D03*
D174*
X96563Y144528D03*
D206*
X72915Y144528D03*
D266*
X59758Y144528D03*
D243*
X47028Y144528D03*
D149*
X23416Y144528D03*
D174*
X96563Y144599D03*
D237*
X72844Y144599D03*
D266*
X59758Y144599D03*
D243*
X47028Y144599D03*
D152*
X23345Y144599D03*
D174*
X96563Y144670D03*
D221*
X72809Y144670D03*
D266*
X59758Y144670D03*
D243*
X47028Y144670D03*
D170*
X23274Y144670D03*
D174*
X96563Y144741D03*
D242*
X72773Y144741D03*
D298*
X62638Y144741D03*
D243*
X47028Y144741D03*
D167*
X23238Y144741D03*
D174*
X96563Y144812D03*
D153*
X72702Y144812D03*
D298*
X62638Y144812D03*
D243*
X47028Y144812D03*
D172*
X23202Y144812D03*
D190*
X96563Y144883D03*
D249*
X72666Y144883D03*
D391*
X62638Y144883D03*
D248*
X47028Y144883D03*
D392*
X23167Y144883D03*
D174*
X96563Y144954D03*
D247*
X72631Y144954D03*
D298*
X62638Y144954D03*
D243*
X47028Y144954D03*
D169*
X23096Y144954D03*
D185*
X96598Y145026D03*
D158*
X72595Y145026D03*
D298*
X62638Y145026D03*
D243*
X47028Y145026D03*
D185*
X23060Y145026D03*
X96598Y145097D03*
D241*
X72560Y145097D03*
D298*
X62638Y145097D03*
D243*
X47028Y145097D03*
D174*
X23025Y145097D03*
D185*
X96598Y145168D03*
D241*
X72560Y145168D03*
D298*
X62638Y145168D03*
D243*
X47028Y145168D03*
D195*
X22989Y145168D03*
D185*
X96598Y145239D03*
D238*
X72524Y145239D03*
D298*
X62638Y145239D03*
D243*
X47028Y145239D03*
D199*
X22953Y145239D03*
D393*
X96598Y145310D03*
D232*
X72489Y145310D03*
D391*
X62638Y145310D03*
D248*
X47028Y145310D03*
D394*
X22953Y145310D03*
D185*
X96598Y145381D03*
D229*
X72489Y145381D03*
D298*
X62638Y145381D03*
D243*
X47028Y145381D03*
D202*
X22918Y145381D03*
D185*
X96598Y145452D03*
D168*
X72453Y145452D03*
D298*
X62638Y145452D03*
D243*
X47028Y145452D03*
D202*
X22918Y145452D03*
D185*
X96598Y145523D03*
D168*
X72453Y145523D03*
D298*
X62638Y145523D03*
D243*
X47028Y145523D03*
D182*
X22882Y145523D03*
D185*
X96598Y145595D03*
D173*
X72417Y145595D03*
D298*
X62638Y145595D03*
D243*
X47028Y145595D03*
D352*
X22847Y145595D03*
D185*
X96598Y145666D03*
D173*
X72417Y145666D03*
D298*
X62638Y145666D03*
D243*
X47028Y145666D03*
D182*
X22811Y145666D03*
D169*
X96634Y145737D03*
D178*
X72382Y145737D03*
D298*
X62638Y145737D03*
D243*
X47028Y145737D03*
D182*
X22811Y145737D03*
D395*
X96634Y145808D03*
D396*
X72382Y145808D03*
D391*
X62638Y145808D03*
D248*
X47028Y145808D03*
D397*
X22776Y145808D03*
D169*
X96634Y145879D03*
D178*
X72382Y145879D03*
D298*
X62638Y145879D03*
D243*
X47028Y145879D03*
D212*
X22776Y145879D03*
D169*
X96634Y145950D03*
D181*
X72346Y145950D03*
D298*
X62638Y145950D03*
D243*
X47028Y145950D03*
D212*
X22776Y145950D03*
D169*
X96634Y146021D03*
D181*
X72346Y146021D03*
D298*
X62638Y146021D03*
D243*
X47028Y146021D03*
D187*
X22740Y146021D03*
D169*
X96634Y146092D03*
D181*
X72346Y146092D03*
D298*
X62638Y146092D03*
D243*
X47028Y146092D03*
D187*
X22740Y146092D03*
D169*
X96634Y146164D03*
D196*
X72311Y146164D03*
D298*
X62638Y146164D03*
D243*
X47028Y146164D03*
D187*
X22740Y146164D03*
D395*
X96634Y146235D03*
D398*
X72311Y146235D03*
D391*
X62638Y146235D03*
D248*
X47028Y146235D03*
D217*
X22740Y146235D03*
D169*
X96634Y146306D03*
D196*
X72311Y146306D03*
D298*
X62638Y146306D03*
D243*
X47028Y146306D03*
D222*
X22705Y146306D03*
D169*
X96634Y146377D03*
D196*
X72311Y146377D03*
D298*
X62638Y146377D03*
D243*
X47028Y146377D03*
D222*
X22705Y146377D03*
D169*
X96634Y146448D03*
D196*
X72311Y146448D03*
D298*
X62638Y146448D03*
D243*
X47028Y146448D03*
D222*
X22705Y146448D03*
D169*
X96634Y146519D03*
D255*
X72275Y146519D03*
D298*
X62638Y146519D03*
D243*
X47028Y146519D03*
D222*
X22705Y146519D03*
D169*
X96634Y146590D03*
D255*
X72275Y146590D03*
D298*
X62638Y146590D03*
D243*
X47028Y146590D03*
D222*
X22705Y146590D03*
D395*
X96634Y146661D03*
D399*
X72275Y146661D03*
D391*
X62638Y146661D03*
D248*
X47028Y146661D03*
D217*
X22669Y146661D03*
D169*
X96634Y146732D03*
D255*
X72275Y146732D03*
D298*
X62638Y146732D03*
D243*
X47028Y146732D03*
D222*
X22633Y146732D03*
D169*
X96634Y146804D03*
D255*
X72275Y146804D03*
D298*
X62638Y146804D03*
D243*
X47028Y146804D03*
D222*
X22633Y146804D03*
D169*
X96634Y146875D03*
D255*
X72275Y146875D03*
D298*
X62638Y146875D03*
D243*
X47028Y146875D03*
D222*
X22633Y146875D03*
D169*
X96634Y146946D03*
D255*
X72275Y146946D03*
D298*
X62638Y146946D03*
D243*
X47028Y146946D03*
D222*
X22633Y146946D03*
D169*
X96634Y147017D03*
D255*
X72275Y147017D03*
D298*
X62638Y147017D03*
D243*
X47028Y147017D03*
D222*
X22633Y147017D03*
D395*
X96634Y147088D03*
D400*
X84579Y147088D03*
D399*
X72275Y147088D03*
D391*
X62638Y147088D03*
D248*
X47028Y147088D03*
D276*
X35719Y147088D03*
D192*
X22633Y147088D03*
D401*
X96669Y147159D03*
D199*
X84259Y147159D03*
D184*
X72240Y147159D03*
D298*
X62638Y147159D03*
D243*
X47028Y147159D03*
D195*
X35435Y147159D03*
D222*
X22633Y147159D03*
D401*
X96669Y147230D03*
D185*
X84152Y147230D03*
D184*
X72240Y147230D03*
D298*
X62638Y147230D03*
D243*
X47028Y147230D03*
D169*
X35328Y147230D03*
D222*
X22633Y147230D03*
D401*
X96669Y147301D03*
D172*
X84081Y147301D03*
D184*
X72240Y147301D03*
D298*
X62638Y147301D03*
D243*
X47028Y147301D03*
D167*
X35257Y147301D03*
D222*
X22633Y147301D03*
D401*
X96669Y147373D03*
D167*
X84046Y147373D03*
D184*
X72240Y147373D03*
D298*
X62638Y147373D03*
D243*
X47028Y147373D03*
D170*
X35222Y147373D03*
D222*
X22633Y147373D03*
D401*
X96669Y147444D03*
D170*
X84010Y147444D03*
D184*
X72240Y147444D03*
D298*
X62638Y147444D03*
D243*
X47028Y147444D03*
D157*
X35186Y147444D03*
D222*
X22633Y147444D03*
D401*
X96669Y147515D03*
D157*
X83974Y147515D03*
D184*
X72240Y147515D03*
D298*
X62638Y147515D03*
D243*
X47028Y147515D03*
D152*
X35151Y147515D03*
D222*
X22633Y147515D03*
D402*
X96669Y147586D03*
D403*
X83939Y147586D03*
D189*
X72240Y147586D03*
D391*
X62638Y147586D03*
D248*
X47028Y147586D03*
D404*
X35115Y147586D03*
D192*
X22633Y147586D03*
D401*
X96669Y147657D03*
D152*
X83939Y147657D03*
D184*
X72240Y147657D03*
D405*
X54317Y147657D03*
D155*
X35115Y147657D03*
D222*
X22633Y147657D03*
D401*
X96669Y147728D03*
D146*
X83903Y147728D03*
D184*
X72240Y147728D03*
D405*
X54317Y147728D03*
D149*
X35079Y147728D03*
D222*
X22633Y147728D03*
D401*
X96669Y147799D03*
D146*
X83903Y147799D03*
D184*
X72240Y147799D03*
D405*
X54317Y147799D03*
D149*
X35079Y147799D03*
D222*
X22633Y147799D03*
D401*
X96669Y147870D03*
D149*
X83868Y147870D03*
D184*
X72240Y147870D03*
D405*
X54317Y147870D03*
D149*
X35079Y147870D03*
D222*
X22633Y147870D03*
D401*
X96669Y147942D03*
D149*
X83868Y147942D03*
D184*
X72240Y147942D03*
D405*
X54317Y147942D03*
D149*
X35079Y147942D03*
D222*
X22633Y147942D03*
D402*
X96669Y148013D03*
D406*
X83868Y148013D03*
D189*
X72240Y148013D03*
D407*
X54317Y148013D03*
D408*
X35044Y148013D03*
D192*
X22633Y148013D03*
D401*
X96669Y148084D03*
D149*
X83868Y148084D03*
D184*
X72240Y148084D03*
D405*
X54317Y148084D03*
D287*
X35044Y148084D03*
D222*
X22633Y148084D03*
D401*
X96669Y148155D03*
D149*
X83868Y148155D03*
D184*
X72240Y148155D03*
D405*
X54317Y148155D03*
D287*
X35044Y148155D03*
D222*
X22633Y148155D03*
D401*
X96669Y148226D03*
D149*
X83868Y148226D03*
D184*
X72240Y148226D03*
D405*
X54317Y148226D03*
D287*
X35044Y148226D03*
D222*
X22633Y148226D03*
D401*
X96669Y148297D03*
D149*
X83868Y148297D03*
D184*
X72240Y148297D03*
D405*
X54317Y148297D03*
D287*
X35044Y148297D03*
D222*
X22633Y148297D03*
D401*
X96669Y148368D03*
D287*
X83832Y148368D03*
D184*
X72240Y148368D03*
D405*
X54317Y148368D03*
D287*
X35044Y148368D03*
D222*
X22633Y148368D03*
D402*
X96669Y148439D03*
D408*
X83832Y148439D03*
D189*
X72240Y148439D03*
D407*
X54317Y148439D03*
D408*
X35044Y148439D03*
D192*
X22633Y148439D03*
D401*
X96669Y148510D03*
D287*
X83832Y148510D03*
D184*
X72240Y148510D03*
D405*
X54317Y148510D03*
D287*
X35044Y148510D03*
D222*
X22633Y148510D03*
D401*
X96669Y148582D03*
D287*
X83832Y148582D03*
D184*
X72240Y148582D03*
D405*
X54317Y148582D03*
D287*
X35044Y148582D03*
D222*
X22633Y148582D03*
D401*
X96669Y148653D03*
D287*
X83832Y148653D03*
D184*
X72240Y148653D03*
D405*
X54317Y148653D03*
D287*
X35044Y148653D03*
D222*
X22633Y148653D03*
D401*
X96669Y148724D03*
D287*
X83832Y148724D03*
D184*
X72240Y148724D03*
D405*
X54317Y148724D03*
D287*
X35044Y148724D03*
D222*
X22633Y148724D03*
D401*
X96669Y148795D03*
D287*
X83832Y148795D03*
D184*
X72240Y148795D03*
D405*
X54317Y148795D03*
D287*
X35044Y148795D03*
D222*
X22633Y148795D03*
D402*
X96669Y148866D03*
D408*
X83832Y148866D03*
D189*
X72240Y148866D03*
D407*
X54317Y148866D03*
D408*
X35044Y148866D03*
D192*
X22633Y148866D03*
D401*
X96669Y148937D03*
D287*
X83832Y148937D03*
D184*
X72240Y148937D03*
D405*
X54317Y148937D03*
D287*
X35044Y148937D03*
D222*
X22633Y148937D03*
D401*
X96669Y149008D03*
D287*
X83832Y149008D03*
D184*
X72240Y149008D03*
D405*
X54317Y149008D03*
D287*
X35044Y149008D03*
D222*
X22633Y149008D03*
D401*
X96669Y149079D03*
D287*
X83832Y149079D03*
D184*
X72240Y149079D03*
D405*
X54317Y149079D03*
D287*
X35044Y149079D03*
D222*
X22633Y149079D03*
D401*
X96669Y149151D03*
D287*
X83832Y149151D03*
D184*
X72240Y149151D03*
D405*
X54317Y149151D03*
D287*
X35044Y149151D03*
D222*
X22633Y149151D03*
D401*
X96669Y149222D03*
D287*
X83832Y149222D03*
D184*
X72240Y149222D03*
D405*
X54317Y149222D03*
D287*
X35044Y149222D03*
D222*
X22633Y149222D03*
D401*
X96669Y149293D03*
D287*
X83832Y149293D03*
D184*
X72240Y149293D03*
D405*
X54317Y149293D03*
D287*
X35044Y149293D03*
D222*
X22633Y149293D03*
D402*
X96669Y149364D03*
D408*
X83832Y149364D03*
D189*
X72240Y149364D03*
D407*
X54317Y149364D03*
D408*
X35044Y149364D03*
D192*
X22633Y149364D03*
D401*
X96669Y149435D03*
D287*
X83832Y149435D03*
D184*
X72240Y149435D03*
D405*
X54317Y149435D03*
D287*
X35044Y149435D03*
D222*
X22633Y149435D03*
D401*
X96669Y149506D03*
D287*
X83832Y149506D03*
D184*
X72240Y149506D03*
D405*
X54317Y149506D03*
D287*
X35044Y149506D03*
D222*
X22633Y149506D03*
D401*
X96669Y149577D03*
D287*
X83832Y149577D03*
D184*
X72240Y149577D03*
D405*
X54317Y149577D03*
D287*
X35044Y149577D03*
D222*
X22633Y149577D03*
D401*
X96669Y149648D03*
D287*
X83832Y149648D03*
D184*
X72240Y149648D03*
D405*
X54317Y149648D03*
D287*
X35044Y149648D03*
D222*
X22633Y149648D03*
D401*
X96669Y149720D03*
D287*
X83832Y149720D03*
D184*
X72240Y149720D03*
D405*
X54317Y149720D03*
D287*
X35044Y149720D03*
D222*
X22633Y149720D03*
D402*
X96669Y149791D03*
D408*
X83832Y149791D03*
D189*
X72240Y149791D03*
D407*
X54317Y149791D03*
D408*
X35044Y149791D03*
D192*
X22633Y149791D03*
D401*
X96669Y149862D03*
D287*
X83832Y149862D03*
D184*
X72240Y149862D03*
D405*
X54317Y149862D03*
D287*
X35044Y149862D03*
D222*
X22633Y149862D03*
D401*
X96669Y149933D03*
D287*
X83832Y149933D03*
D184*
X72240Y149933D03*
D266*
X59758Y149933D03*
D297*
X48663Y149933D03*
D287*
X35044Y149933D03*
D222*
X22633Y149933D03*
D401*
X96669Y150004D03*
D287*
X83832Y150004D03*
D184*
X72240Y150004D03*
D266*
X59758Y150004D03*
D312*
X48486Y150004D03*
D287*
X35044Y150004D03*
D222*
X22633Y150004D03*
D401*
X96669Y150075D03*
D287*
X83832Y150075D03*
D184*
X72240Y150075D03*
D266*
X59758Y150075D03*
D409*
X48308Y150075D03*
D287*
X35044Y150075D03*
D222*
X22633Y150075D03*
D401*
X96669Y150146D03*
D287*
X83832Y150146D03*
D184*
X72240Y150146D03*
D266*
X59758Y150146D03*
D410*
X48130Y150146D03*
D287*
X35044Y150146D03*
D222*
X22633Y150146D03*
D402*
X96669Y150217D03*
D408*
X83832Y150217D03*
D189*
X72240Y150217D03*
D269*
X59758Y150217D03*
D164*
X47988Y150217D03*
D408*
X35044Y150217D03*
D192*
X22633Y150217D03*
D401*
X96669Y150288D03*
D287*
X83832Y150288D03*
D184*
X72240Y150288D03*
D266*
X59758Y150288D03*
D185*
X47810Y150288D03*
D287*
X35044Y150288D03*
D222*
X22633Y150288D03*
D401*
X96669Y150360D03*
D287*
X83832Y150360D03*
D184*
X72240Y150360D03*
D266*
X59758Y150360D03*
D182*
X47632Y150360D03*
D287*
X35044Y150360D03*
D222*
X22633Y150360D03*
D401*
X96669Y150431D03*
D287*
X83832Y150431D03*
D184*
X72240Y150431D03*
D266*
X59758Y150431D03*
D200*
X47454Y150431D03*
D287*
X35044Y150431D03*
D222*
X22633Y150431D03*
D401*
X96669Y150502D03*
D287*
X83832Y150502D03*
D184*
X72240Y150502D03*
D266*
X59758Y150502D03*
D221*
X47276Y150502D03*
D287*
X35044Y150502D03*
D222*
X22633Y150502D03*
D401*
X96669Y150573D03*
D287*
X83832Y150573D03*
D184*
X72240Y150573D03*
D266*
X59758Y150573D03*
D247*
X47099Y150573D03*
D287*
X35044Y150573D03*
D222*
X22633Y150573D03*
D402*
X96669Y150644D03*
D408*
X83832Y150644D03*
D189*
X72240Y150644D03*
D269*
X59758Y150644D03*
D248*
X47028Y150644D03*
D408*
X35044Y150644D03*
D192*
X22633Y150644D03*
D401*
X96669Y150715D03*
D149*
X83868Y150715D03*
D184*
X72240Y150715D03*
D266*
X59758Y150715D03*
D243*
X47028Y150715D03*
D287*
X35044Y150715D03*
D222*
X22633Y150715D03*
D401*
X96669Y150786D03*
D149*
X83868Y150786D03*
D184*
X72240Y150786D03*
D266*
X59758Y150786D03*
D243*
X47028Y150786D03*
D287*
X35044Y150786D03*
D222*
X22633Y150786D03*
D401*
X96669Y150857D03*
D149*
X83868Y150857D03*
D184*
X72240Y150857D03*
D266*
X59758Y150857D03*
D243*
X47028Y150857D03*
D287*
X35044Y150857D03*
D222*
X22633Y150857D03*
D401*
X96669Y150929D03*
D149*
X83868Y150929D03*
D184*
X72240Y150929D03*
D266*
X59758Y150929D03*
D243*
X47028Y150929D03*
D287*
X35044Y150929D03*
D222*
X22633Y150929D03*
D401*
X96669Y151000D03*
D149*
X83868Y151000D03*
D184*
X72240Y151000D03*
D266*
X59758Y151000D03*
D243*
X47028Y151000D03*
D287*
X35044Y151000D03*
D222*
X22633Y151000D03*
D401*
X96669Y151071D03*
D149*
X83868Y151071D03*
D184*
X72240Y151071D03*
D266*
X59758Y151071D03*
D243*
X47028Y151071D03*
D149*
X35079Y151071D03*
D222*
X22633Y151071D03*
D402*
X96669Y151142D03*
D406*
X83868Y151142D03*
D189*
X72240Y151142D03*
D269*
X59758Y151142D03*
D248*
X47028Y151142D03*
D406*
X35079Y151142D03*
D192*
X22633Y151142D03*
D401*
X96669Y151213D03*
D146*
X83903Y151213D03*
D184*
X72240Y151213D03*
D266*
X59758Y151213D03*
D243*
X47028Y151213D03*
D149*
X35079Y151213D03*
D222*
X22633Y151213D03*
D401*
X96669Y151284D03*
D146*
X83903Y151284D03*
D184*
X72240Y151284D03*
D266*
X59758Y151284D03*
D243*
X47028Y151284D03*
D149*
X35079Y151284D03*
D222*
X22633Y151284D03*
D401*
X96669Y151355D03*
D146*
X83903Y151355D03*
D184*
X72240Y151355D03*
D266*
X59758Y151355D03*
D243*
X47028Y151355D03*
D155*
X35115Y151355D03*
D222*
X22633Y151355D03*
D401*
X96669Y151426D03*
D152*
X83939Y151426D03*
D184*
X72240Y151426D03*
D266*
X59758Y151426D03*
D243*
X47028Y151426D03*
D155*
X35115Y151426D03*
D222*
X22633Y151426D03*
D401*
X96669Y151498D03*
D157*
X83974Y151498D03*
D194*
X72204Y151498D03*
D266*
X59758Y151498D03*
D243*
X47028Y151498D03*
D152*
X35151Y151498D03*
D222*
X22633Y151498D03*
D402*
X96669Y151569D03*
D164*
X83974Y151569D03*
D411*
X72204Y151569D03*
D269*
X59758Y151569D03*
D248*
X47028Y151569D03*
D164*
X35186Y151569D03*
D192*
X22633Y151569D03*
D401*
X96669Y151640D03*
D170*
X84010Y151640D03*
D194*
X72204Y151640D03*
D266*
X59758Y151640D03*
D158*
X47063Y151640D03*
D170*
X35222Y151640D03*
D222*
X22633Y151640D03*
D401*
X96669Y151711D03*
D172*
X84081Y151711D03*
D194*
X72204Y151711D03*
D266*
X59758Y151711D03*
D158*
X47063Y151711D03*
D167*
X35257Y151711D03*
D222*
X22633Y151711D03*
D401*
X96669Y151782D03*
D185*
X84152Y151782D03*
D194*
X72204Y151782D03*
D266*
X59758Y151782D03*
D158*
X47063Y151782D03*
D169*
X35328Y151782D03*
D222*
X22633Y151782D03*
D401*
X96669Y151853D03*
D199*
X84259Y151853D03*
D194*
X72204Y151853D03*
D158*
X47063Y151853D03*
D195*
X35435Y151853D03*
D222*
X22633Y151853D03*
D401*
X96669Y151924D03*
D220*
X84472Y151924D03*
D194*
X72204Y151924D03*
D158*
X47063Y151924D03*
D224*
X35648Y151924D03*
D222*
X22633Y151924D03*
D402*
X96669Y151995D03*
D398*
X72240Y151995D03*
D258*
X47063Y151995D03*
D192*
X22633Y151995D03*
D401*
X96669Y152066D03*
D196*
X72240Y152066D03*
D158*
X47063Y152066D03*
D222*
X22633Y152066D03*
D401*
X96669Y152138D03*
D196*
X72240Y152138D03*
D158*
X47063Y152138D03*
D222*
X22633Y152138D03*
D401*
X96669Y152209D03*
D196*
X72240Y152209D03*
D158*
X47063Y152209D03*
D222*
X22633Y152209D03*
D401*
X96669Y152280D03*
D181*
X72204Y152280D03*
D158*
X47063Y152280D03*
D222*
X22633Y152280D03*
D401*
X96669Y152351D03*
D181*
X72204Y152351D03*
D247*
X47099Y152351D03*
D222*
X22633Y152351D03*
D402*
X96669Y152422D03*
D215*
X72204Y152422D03*
D250*
X47099Y152422D03*
D217*
X22669Y152422D03*
D401*
X96669Y152493D03*
D181*
X72204Y152493D03*
D247*
X47099Y152493D03*
D187*
X22669Y152493D03*
D401*
X96669Y152564D03*
D181*
X72204Y152564D03*
D247*
X47099Y152564D03*
D187*
X22669Y152564D03*
D401*
X96669Y152635D03*
D178*
X72240Y152635D03*
D247*
X47099Y152635D03*
D187*
X22669Y152635D03*
D401*
X96669Y152707D03*
D173*
X72204Y152707D03*
D247*
X47099Y152707D03*
D187*
X22669Y152707D03*
D401*
X96669Y152778D03*
D173*
X72204Y152778D03*
D251*
X47134Y152778D03*
D187*
X22669Y152778D03*
D401*
X96669Y152849D03*
D173*
X72204Y152849D03*
D251*
X47134Y152849D03*
D212*
X22705Y152849D03*
D402*
X96669Y152920D03*
D253*
X72240Y152920D03*
D249*
X47134Y152920D03*
D397*
X22705Y152920D03*
D401*
X96669Y152991D03*
D236*
X72204Y152991D03*
D251*
X47134Y152991D03*
D212*
X22705Y152991D03*
D401*
X96669Y153062D03*
D236*
X72204Y153062D03*
D153*
X47170Y153062D03*
D182*
X22740Y153062D03*
D401*
X96669Y153133D03*
D236*
X72204Y153133D03*
D153*
X47170Y153133D03*
D182*
X22740Y153133D03*
D401*
X96669Y153204D03*
D241*
X72204Y153204D03*
D153*
X47170Y153204D03*
D182*
X22740Y153204D03*
D401*
X96669Y153276D03*
D241*
X72204Y153276D03*
D239*
X47205Y153276D03*
D352*
X22776Y153276D03*
D402*
X96669Y153347D03*
D412*
X72204Y153347D03*
D233*
X47205Y153347D03*
D259*
X22776Y153347D03*
D401*
X96669Y153418D03*
D247*
X72204Y153418D03*
D226*
X47241Y153418D03*
D352*
X22776Y153418D03*
D401*
X96669Y153489D03*
D247*
X72204Y153489D03*
D226*
X47241Y153489D03*
D179*
X22811Y153489D03*
D401*
X96669Y153560D03*
D153*
X72204Y153560D03*
D226*
X47241Y153560D03*
D179*
X22811Y153560D03*
D401*
X96669Y153631D03*
D153*
X72204Y153631D03*
D221*
X47276Y153631D03*
D195*
X22847Y153631D03*
D401*
X96669Y153702D03*
D242*
X72204Y153702D03*
D221*
X47276Y153702D03*
D195*
X22847Y153702D03*
D402*
X96669Y153773D03*
D254*
X72240Y153773D03*
D216*
X47312Y153773D03*
D190*
X22882Y153773D03*
D401*
X96669Y153844D03*
D237*
X72204Y153844D03*
D210*
X47348Y153844D03*
D185*
X22918Y153844D03*
D401*
X96669Y153916D03*
D210*
X72240Y153916D03*
X47348Y153916D03*
D185*
X22918Y153916D03*
D401*
X96669Y153987D03*
D203*
X72240Y153987D03*
D206*
X47383Y153987D03*
D169*
X22953Y153987D03*
D401*
X96669Y154058D03*
D220*
X72240Y154058D03*
D203*
X47419Y154058D03*
D401*
X22989Y154058D03*
X96669Y154129D03*
D222*
X72204Y154129D03*
D200*
X47454Y154129D03*
D413*
X23025Y154129D03*
D402*
X96669Y154200D03*
D340*
X72240Y154200D03*
D414*
X47490Y154200D03*
D162*
X23060Y154200D03*
D401*
X96669Y154271D03*
D199*
X72240Y154271D03*
D222*
X47525Y154271D03*
D157*
X23096Y154271D03*
D401*
X96669Y154342D03*
D174*
X72240Y154342D03*
D187*
X47561Y154342D03*
D152*
X23131Y154342D03*
D401*
X96669Y154413D03*
D172*
X72204Y154413D03*
D182*
X47632Y154413D03*
D159*
X23202Y154413D03*
D401*
X96669Y154485D03*
D152*
X72204Y154485D03*
D179*
X47703Y154485D03*
D410*
X23238Y154485D03*
D401*
X96669Y154556D03*
D273*
X72204Y154556D03*
D174*
X47774Y154556D03*
D275*
X23309Y154556D03*
D401*
X96669Y154627D03*
D409*
X72204Y154627D03*
D169*
X47845Y154627D03*
D409*
X23416Y154627D03*
D402*
X96669Y154698D03*
D415*
X72204Y154698D03*
D162*
X47952Y154698D03*
D416*
X23487Y154698D03*
D401*
X96669Y154769D03*
D302*
X72204Y154769D03*
D155*
X48059Y154769D03*
D312*
X23594Y154769D03*
D401*
X96669Y154840D03*
D318*
X72168Y154840D03*
D154*
X48237Y154840D03*
D322*
X23736Y154840D03*
D401*
X96669Y154911D03*
D417*
X72133Y154911D03*
D312*
X48486Y154911D03*
D266*
X23985Y154911D03*
D418*
X59829Y154982D03*
X59829Y155054D03*
D419*
X59829Y155125D03*
D418*
X59829Y155196D03*
X59829Y155267D03*
X59829Y155338D03*
X59829Y155409D03*
X59829Y155480D03*
D419*
X59829Y155551D03*
D418*
X59829Y155622D03*
X59829Y155694D03*
X59829Y155765D03*
X59829Y155836D03*
X59829Y155907D03*
D419*
X59829Y155978D03*
D418*
X59829Y156049D03*
X59829Y156120D03*
X59829Y156191D03*
X59829Y156263D03*
X59829Y156334D03*
X59829Y156405D03*
D419*
X59829Y156476D03*
D418*
X59829Y156547D03*
X59829Y156618D03*
X59829Y156689D03*
X59829Y156760D03*
X59829Y156832D03*
D419*
X59829Y156903D03*
D418*
X59829Y156974D03*
X59829Y157045D03*
X59829Y157116D03*
X59829Y157187D03*
X59829Y157258D03*
D419*
X59829Y157329D03*
D418*
X59829Y157400D03*
X59829Y157472D03*
X59829Y157543D03*
X59829Y157614D03*
X59829Y157685D03*
D419*
X59829Y157756D03*
D418*
X59829Y157827D03*
X59829Y157898D03*
X59829Y157969D03*
X59829Y158041D03*
X59829Y158112D03*
X59829Y158183D03*
D419*
X59829Y158254D03*
D418*
X59829Y158325D03*
X59829Y158396D03*
X59829Y158467D03*
X59829Y158538D03*
X59829Y158610D03*
D419*
X59829Y158681D03*
D418*
X59829Y158752D03*
X59829Y158823D03*
X59829Y158894D03*
X59829Y158965D03*
X59829Y159036D03*
D419*
X59829Y159107D03*
D418*
X59829Y159178D03*
X59829Y159250D03*
X59829Y159321D03*
X59829Y159392D03*
X59829Y159463D03*
D419*
X59829Y159534D03*
D418*
X59829Y159605D03*
X59829Y159676D03*
X59829Y159747D03*
X59829Y159819D03*
X59829Y159890D03*
X59829Y159961D03*
D419*
X59829Y160032D03*
D418*
X59829Y160103D03*
X59829Y160174D03*
X59829Y160245D03*
X59829Y160316D03*
X59829Y160388D03*
D419*
X59829Y160459D03*
D418*
X59829Y160530D03*
X59829Y160601D03*
X59829Y160672D03*
X59829Y160743D03*
X59829Y160814D03*
D419*
X59829Y160885D03*
D418*
X59829Y160956D03*
X59829Y161028D03*
X59829Y161099D03*
X59829Y161170D03*
X59829Y161241D03*
D419*
X59829Y161312D03*
D418*
X59829Y161383D03*
X59829Y161454D03*
X59829Y161525D03*
X59829Y161597D03*
X59829Y161668D03*
X59829Y161739D03*
D419*
X59829Y161810D03*
D418*
X59829Y161881D03*
X59829Y161952D03*
X59829Y162023D03*
D420*
X59829Y162094D03*
D418*
X59829Y169491D03*
X59829Y169562D03*
X59829Y169633D03*
X59829Y169704D03*
D419*
X59829Y169775D03*
D418*
X59829Y169846D03*
X59829Y169918D03*
X59829Y169989D03*
X59829Y170060D03*
X59829Y170131D03*
D419*
X59829Y170202D03*
D418*
X59829Y170273D03*
X59829Y170344D03*
X59829Y170415D03*
X59829Y170487D03*
X59829Y170558D03*
X59829Y170629D03*
D419*
X59829Y170700D03*
D418*
X59829Y170771D03*
X59829Y170842D03*
X59829Y170913D03*
X59829Y170984D03*
X59829Y171056D03*
D419*
X59829Y171127D03*
D418*
X59829Y171198D03*
X59829Y171269D03*
X59829Y171340D03*
X59829Y171411D03*
X59829Y171482D03*
D419*
X59829Y171553D03*
D418*
X59829Y171624D03*
X59829Y171696D03*
X59829Y171767D03*
X59829Y171838D03*
X59829Y171909D03*
D419*
X59829Y171980D03*
D418*
X59829Y172051D03*
X59829Y172122D03*
X59829Y172193D03*
X59829Y172265D03*
X59829Y172336D03*
X59829Y172407D03*
D419*
X59829Y172478D03*
D418*
X59829Y172549D03*
X59829Y172620D03*
X59829Y172691D03*
X59829Y172762D03*
X59829Y172834D03*
D419*
X59829Y172905D03*
D418*
X59829Y172976D03*
X59829Y173047D03*
X59829Y173118D03*
X59829Y173189D03*
X59829Y173260D03*
D419*
X59829Y173331D03*
D418*
X59829Y173402D03*
X59829Y173474D03*
X59829Y173545D03*
X59829Y173616D03*
X59829Y173687D03*
D419*
X59829Y173758D03*
D418*
X59829Y173829D03*
X59829Y173900D03*
X59829Y173971D03*
X59829Y174043D03*
X59829Y174114D03*
X59829Y174185D03*
D419*
X59829Y174256D03*
D418*
X59829Y174327D03*
X59829Y174398D03*
X59829Y174469D03*
X59829Y174540D03*
X59829Y174612D03*
D419*
X59829Y174683D03*
D418*
X59829Y174754D03*
X59829Y174825D03*
X59829Y174896D03*
X59829Y174967D03*
X59829Y175038D03*
D419*
X59829Y175109D03*
D418*
X59829Y175180D03*
X59829Y175252D03*
X59829Y175323D03*
X59829Y175394D03*
X59829Y175465D03*
D419*
X59829Y175536D03*
D418*
X59829Y175607D03*
X59829Y175678D03*
X59829Y175749D03*
X59829Y175821D03*
X59829Y175892D03*
X59829Y175963D03*
D419*
X59829Y176034D03*
D418*
X59829Y176105D03*
X59829Y176176D03*
X59829Y176247D03*
X59829Y176318D03*
X59829Y176390D03*
D419*
X59829Y176461D03*
D418*
X59829Y176532D03*
X59829Y176603D03*
D206*
X97167Y176674D03*
D210*
X22456Y176674D03*
X97203Y176745D03*
X22456Y176745D03*
X97203Y176816D03*
X22456Y176816D03*
D234*
X97203Y176887D03*
X22456Y176887D03*
D210*
X97203Y176958D03*
X22456Y176958D03*
X97203Y177030D03*
X22456Y177030D03*
X97203Y177101D03*
X22456Y177101D03*
X97203Y177172D03*
X22456Y177172D03*
X97203Y177243D03*
X22456Y177243D03*
D234*
X97203Y177314D03*
X22456Y177314D03*
D210*
X97203Y177385D03*
X22456Y177385D03*
X97203Y177456D03*
X22456Y177456D03*
X97203Y177527D03*
X22456Y177527D03*
X97203Y177599D03*
X22456Y177599D03*
X97203Y177670D03*
X22456Y177670D03*
X97203Y177741D03*
X22456Y177741D03*
D234*
X97203Y177812D03*
X22456Y177812D03*
D210*
X97203Y177883D03*
X22456Y177883D03*
X97203Y177954D03*
X22456Y177954D03*
X97203Y178025D03*
X22456Y178025D03*
X97203Y178096D03*
X22456Y178096D03*
X97203Y178168D03*
X22456Y178168D03*
D234*
X97203Y178239D03*
X22456Y178239D03*
D210*
X97203Y178310D03*
X22456Y178310D03*
X97203Y178381D03*
X22456Y178381D03*
X97203Y178452D03*
X22456Y178452D03*
X97203Y178523D03*
X22456Y178523D03*
X97203Y178594D03*
X22456Y178594D03*
D234*
X97203Y178665D03*
X22456Y178665D03*
D210*
X97203Y178736D03*
X22456Y178736D03*
X97203Y178808D03*
X22456Y178808D03*
X97203Y178879D03*
X22456Y178879D03*
X97203Y178950D03*
X22456Y178950D03*
X97203Y179021D03*
X22456Y179021D03*
D234*
X97203Y179092D03*
X22456Y179092D03*
D210*
X97203Y179163D03*
X22456Y179163D03*
X97203Y179234D03*
X22456Y179234D03*
X97203Y179305D03*
X22456Y179305D03*
X97203Y179377D03*
X22456Y179377D03*
X97203Y179448D03*
D182*
X77360Y179448D03*
D210*
X22456Y179448D03*
X97203Y179519D03*
D182*
X77360Y179519D03*
D210*
X22456Y179519D03*
D234*
X97203Y179590D03*
D340*
X77360Y179590D03*
D234*
X22456Y179590D03*
D210*
X97203Y179661D03*
D182*
X77360Y179661D03*
D210*
X22456Y179661D03*
X97203Y179732D03*
D182*
X77360Y179732D03*
D210*
X22456Y179732D03*
X97203Y179803D03*
D182*
X77360Y179803D03*
D210*
X22456Y179803D03*
X97203Y179874D03*
D182*
X77360Y179874D03*
D210*
X22456Y179874D03*
X97203Y179946D03*
D182*
X77360Y179946D03*
D210*
X22456Y179946D03*
D234*
X97203Y180017D03*
D340*
X77360Y180017D03*
D234*
X22456Y180017D03*
D210*
X97203Y180088D03*
D182*
X77360Y180088D03*
D421*
X63172Y180088D03*
X58193Y180088D03*
D210*
X22456Y180088D03*
X97203Y180159D03*
D182*
X77360Y180159D03*
D422*
X63172Y180159D03*
X58193Y180159D03*
D210*
X22456Y180159D03*
X97203Y180230D03*
D182*
X77360Y180230D03*
D423*
X63172Y180230D03*
D424*
X58193Y180230D03*
D210*
X22456Y180230D03*
X97203Y180301D03*
D182*
X77360Y180301D03*
D425*
X63172Y180301D03*
D426*
X58193Y180301D03*
D210*
X22456Y180301D03*
X97203Y180372D03*
D182*
X77360Y180372D03*
D427*
X63136Y180372D03*
D428*
X58193Y180372D03*
D210*
X22456Y180372D03*
D234*
X97203Y180443D03*
D340*
X77360Y180443D03*
D429*
X63136Y180443D03*
D430*
X58193Y180443D03*
D234*
X22456Y180443D03*
D210*
X97203Y180514D03*
D182*
X77360Y180514D03*
D431*
X63101Y180514D03*
X58193Y180514D03*
D210*
X22456Y180514D03*
X97203Y180586D03*
D182*
X77360Y180586D03*
D432*
X63101Y180586D03*
X58193Y180586D03*
D210*
X22456Y180586D03*
X97203Y180657D03*
D182*
X77360Y180657D03*
D433*
X63101Y180657D03*
D434*
X58158Y180657D03*
D210*
X22456Y180657D03*
X97203Y180728D03*
D182*
X77360Y180728D03*
D435*
X63065Y180728D03*
D436*
X58122Y180728D03*
D210*
X22456Y180728D03*
X97203Y180799D03*
D182*
X77360Y180799D03*
D436*
X63030Y180799D03*
D437*
X58087Y180799D03*
D210*
X22456Y180799D03*
D234*
X97203Y180870D03*
D340*
X77360Y180870D03*
D438*
X62994Y180870D03*
D439*
X58051Y180870D03*
D234*
X22456Y180870D03*
D210*
X97203Y180941D03*
D182*
X77360Y180941D03*
D440*
X62958Y180941D03*
D441*
X58016Y180941D03*
D210*
X22456Y180941D03*
X97203Y181012D03*
D182*
X77360Y181012D03*
D441*
X62923Y181012D03*
D442*
X57980Y181012D03*
D424*
X43756Y181012D03*
D210*
X22456Y181012D03*
X97203Y181083D03*
D182*
X77360Y181083D03*
D442*
X62887Y181083D03*
D443*
X57945Y181083D03*
D434*
X43720Y181083D03*
D210*
X22456Y181083D03*
X97203Y181155D03*
D182*
X77360Y181155D03*
D444*
X62816Y181155D03*
X57909Y181155D03*
D442*
X43756Y181155D03*
D210*
X22456Y181155D03*
X97203Y181226D03*
D182*
X77360Y181226D03*
D445*
X62781Y181226D03*
D444*
X57838Y181226D03*
D446*
X43756Y181226D03*
D210*
X22456Y181226D03*
X97203Y181297D03*
D182*
X77360Y181297D03*
D445*
X62710Y181297D03*
X57802Y181297D03*
D447*
X43756Y181297D03*
D210*
X22456Y181297D03*
D234*
X97203Y181368D03*
D340*
X77360Y181368D03*
D448*
X62674Y181368D03*
D449*
X57731Y181368D03*
D450*
X43756Y181368D03*
D234*
X22456Y181368D03*
D210*
X97203Y181439D03*
D182*
X77360Y181439D03*
D451*
X62603Y181439D03*
X57696Y181439D03*
D374*
X43756Y181439D03*
D210*
X22456Y181439D03*
X97203Y181510D03*
D182*
X77360Y181510D03*
D451*
X62532Y181510D03*
X57624Y181510D03*
D363*
X43756Y181510D03*
D210*
X22456Y181510D03*
X97203Y181581D03*
D182*
X77360Y181581D03*
D451*
X62461Y181581D03*
D452*
X57482Y181581D03*
D353*
X43721Y181581D03*
D210*
X22456Y181581D03*
X97203Y181652D03*
D182*
X77360Y181652D03*
D451*
X62389Y181652D03*
D452*
X57411Y181652D03*
D347*
X43756Y181652D03*
D210*
X22456Y181652D03*
X97203Y181724D03*
D182*
X77360Y181724D03*
D452*
X62318Y181724D03*
D451*
X57340Y181724D03*
D336*
X43756Y181724D03*
D210*
X22456Y181724D03*
D234*
X97203Y181795D03*
D340*
X77360Y181795D03*
D448*
X62247Y181795D03*
X57269Y181795D03*
D453*
X43721Y181795D03*
D234*
X22456Y181795D03*
D210*
X97203Y181866D03*
D182*
X77360Y181866D03*
D451*
X62176Y181866D03*
X57198Y181866D03*
D321*
X43721Y181866D03*
D210*
X22456Y181866D03*
X97203Y181937D03*
D182*
X77360Y181937D03*
D451*
X62105Y181937D03*
X57127Y181937D03*
D315*
X43756Y181937D03*
D210*
X22456Y181937D03*
X97203Y182008D03*
D182*
X77360Y182008D03*
D451*
X61963Y182008D03*
X57055Y182008D03*
D454*
X43756Y182008D03*
D210*
X22456Y182008D03*
X97203Y182079D03*
D182*
X77360Y182079D03*
D452*
X61892Y182079D03*
X56984Y182079D03*
D198*
X43756Y182079D03*
D210*
X22456Y182079D03*
X97203Y182150D03*
D182*
X77360Y182150D03*
D451*
X61821Y182150D03*
X56913Y182150D03*
D295*
X43756Y182150D03*
D210*
X22456Y182150D03*
D234*
X97203Y182221D03*
D340*
X77360Y182221D03*
D448*
X61749Y182221D03*
X56842Y182221D03*
D455*
X43721Y182221D03*
D234*
X22456Y182221D03*
D210*
X97203Y182292D03*
D182*
X77360Y182292D03*
D451*
X61678Y182292D03*
X56771Y182292D03*
D286*
X43721Y182292D03*
D210*
X22456Y182292D03*
X97203Y182364D03*
D182*
X77360Y182364D03*
D451*
X61607Y182364D03*
X56700Y182364D03*
D284*
X43756Y182364D03*
D210*
X22456Y182364D03*
X97203Y182435D03*
D182*
X77360Y182435D03*
D451*
X61536Y182435D03*
D452*
X56558Y182435D03*
D281*
X43756Y182435D03*
D210*
X22456Y182435D03*
X97203Y182506D03*
D182*
X77360Y182506D03*
D452*
X61465Y182506D03*
D451*
X56487Y182506D03*
D456*
X43756Y182506D03*
D210*
X22456Y182506D03*
X97203Y182577D03*
D182*
X77360Y182577D03*
D452*
X61394Y182577D03*
D451*
X56415Y182577D03*
D457*
X43721Y182577D03*
D210*
X22456Y182577D03*
D234*
X97203Y182648D03*
D340*
X77360Y182648D03*
D448*
X61323Y182648D03*
X56344Y182648D03*
D458*
X43756Y182648D03*
D234*
X22456Y182648D03*
D210*
X97203Y182719D03*
D182*
X77360Y182719D03*
D451*
X61252Y182719D03*
X56273Y182719D03*
D271*
X43756Y182719D03*
D210*
X22456Y182719D03*
X97203Y182790D03*
D182*
X77360Y182790D03*
D451*
X61109Y182790D03*
X56202Y182790D03*
D227*
X43720Y182790D03*
D210*
X22456Y182790D03*
X97203Y182861D03*
D182*
X77360Y182861D03*
D452*
X61038Y182861D03*
X56131Y182861D03*
D145*
X43756Y182861D03*
D210*
X22456Y182861D03*
X97203Y182933D03*
D182*
X77360Y182933D03*
D452*
X60967Y182933D03*
X56060Y182933D03*
D263*
X43721Y182933D03*
D210*
X22456Y182933D03*
X97203Y183004D03*
D182*
X77360Y183004D03*
D451*
X60896Y183004D03*
X55989Y183004D03*
D230*
X43756Y183004D03*
D210*
X22456Y183004D03*
X97203Y183075D03*
D182*
X77360Y183075D03*
D451*
X60825Y183075D03*
X55918Y183075D03*
D261*
X43721Y183075D03*
D210*
X22456Y183075D03*
D234*
X97203Y183146D03*
D340*
X77360Y183146D03*
D448*
X60754Y183146D03*
X55846Y183146D03*
D459*
X43756Y183146D03*
D234*
X22456Y183146D03*
D210*
X97203Y183217D03*
D182*
X77360Y183217D03*
D451*
X60683Y183217D03*
D452*
X55704Y183217D03*
D184*
X43721Y183217D03*
D210*
X22456Y183217D03*
X97203Y183288D03*
D182*
X77360Y183288D03*
D451*
X60611Y183288D03*
D452*
X55633Y183288D03*
D194*
X43756Y183288D03*
D210*
X22456Y183288D03*
X97203Y183359D03*
D182*
X77360Y183359D03*
D452*
X60540Y183359D03*
D451*
X55562Y183359D03*
D194*
X43756Y183359D03*
D210*
X22456Y183359D03*
X97203Y183430D03*
D182*
X77360Y183430D03*
D451*
X60469Y183430D03*
X55491Y183430D03*
D186*
X43721Y183430D03*
D210*
X22456Y183430D03*
X97203Y183502D03*
D182*
X77360Y183502D03*
D451*
X60398Y183502D03*
X55420Y183502D03*
D181*
X43756Y183502D03*
D210*
X22456Y183502D03*
D234*
X97203Y183573D03*
D340*
X77360Y183573D03*
D448*
X60327Y183573D03*
X55349Y183573D03*
D215*
X43756Y183573D03*
D234*
X22456Y183573D03*
D210*
X97203Y183644D03*
D182*
X77360Y183644D03*
D451*
X60185Y183644D03*
X55277Y183644D03*
D178*
X43720Y183644D03*
D210*
X22456Y183644D03*
X97203Y183715D03*
D182*
X77360Y183715D03*
D452*
X60114Y183715D03*
X55206Y183715D03*
D173*
X43756Y183715D03*
D210*
X22456Y183715D03*
X97203Y183786D03*
D182*
X77360Y183786D03*
D451*
X60043Y183786D03*
X55135Y183786D03*
D173*
X43756Y183786D03*
D210*
X22456Y183786D03*
X97203Y183857D03*
D182*
X77360Y183857D03*
D451*
X59971Y183857D03*
X55064Y183857D03*
D173*
X43756Y183857D03*
D210*
X22456Y183857D03*
X97203Y183928D03*
D182*
X77360Y183928D03*
D451*
X59900Y183928D03*
X54993Y183928D03*
D168*
X43720Y183928D03*
D210*
X22456Y183928D03*
D234*
X97203Y183999D03*
D340*
X77360Y183999D03*
D448*
X59829Y183999D03*
X54922Y183999D03*
D253*
X43720Y183999D03*
D234*
X22456Y183999D03*
D210*
X97203Y184070D03*
D182*
X77360Y184070D03*
D451*
X59758Y184070D03*
D452*
X54780Y184070D03*
D168*
X43720Y184070D03*
D210*
X22456Y184070D03*
X97203Y184142D03*
D182*
X77360Y184142D03*
D452*
X59687Y184142D03*
D451*
X54709Y184142D03*
D236*
X43756Y184142D03*
D210*
X22456Y184142D03*
X97203Y184213D03*
D182*
X77360Y184213D03*
D452*
X59616Y184213D03*
D451*
X54637Y184213D03*
D236*
X43756Y184213D03*
D210*
X22456Y184213D03*
X97203Y184284D03*
D182*
X77360Y184284D03*
D451*
X59545Y184284D03*
X54566Y184284D03*
D236*
X43756Y184284D03*
D210*
X22456Y184284D03*
X97203Y184355D03*
D182*
X77360Y184355D03*
D451*
X59474Y184355D03*
D460*
X54531Y184355D03*
D236*
X43756Y184355D03*
D210*
X22456Y184355D03*
D234*
X97203Y184426D03*
D340*
X77360Y184426D03*
D449*
X59438Y184426D03*
X54460Y184426D03*
D231*
X43756Y184426D03*
D234*
X22456Y184426D03*
D210*
X97203Y184497D03*
D182*
X77360Y184497D03*
D444*
X59331Y184497D03*
X54424Y184497D03*
D236*
X43756Y184497D03*
D210*
X22456Y184497D03*
X97203Y184568D03*
D182*
X77360Y184568D03*
D443*
X59296Y184568D03*
D444*
X54353Y184568D03*
D236*
X43756Y184568D03*
D210*
X22456Y184568D03*
X97203Y184639D03*
D182*
X77360Y184639D03*
D442*
X59260Y184639D03*
D443*
X54317Y184639D03*
D236*
X43756Y184639D03*
D210*
X22456Y184639D03*
X97203Y184711D03*
D182*
X77360Y184711D03*
D441*
X59225Y184711D03*
D442*
X54282Y184711D03*
D236*
X43756Y184711D03*
D210*
X22456Y184711D03*
X97203Y184782D03*
D182*
X77360Y184782D03*
D461*
X59189Y184782D03*
D441*
X54246Y184782D03*
D236*
X43756Y184782D03*
D210*
X22456Y184782D03*
X97203Y184853D03*
D182*
X77360Y184853D03*
D462*
X59154Y184853D03*
D437*
X54175Y184853D03*
D236*
X43756Y184853D03*
D210*
X22456Y184853D03*
D234*
X97203Y184924D03*
D340*
X77360Y184924D03*
D463*
X59118Y184924D03*
D464*
X54140Y184924D03*
D231*
X43756Y184924D03*
D234*
X22456Y184924D03*
D210*
X97203Y184995D03*
D182*
X77360Y184995D03*
D435*
X59082Y184995D03*
D433*
X54140Y184995D03*
D236*
X43756Y184995D03*
D210*
X22456Y184995D03*
X97203Y185066D03*
D182*
X77360Y185066D03*
D434*
X59082Y185066D03*
X54104Y185066D03*
D236*
X43756Y185066D03*
D210*
X22456Y185066D03*
X97203Y185137D03*
D182*
X77360Y185137D03*
D432*
X59047Y185137D03*
D465*
X54104Y185137D03*
D236*
X43756Y185137D03*
D210*
X22456Y185137D03*
X97203Y185208D03*
D466*
X77325Y185208D03*
D431*
X59047Y185208D03*
X54068Y185208D03*
D168*
X43720Y185208D03*
D210*
X22456Y185208D03*
X97203Y185280D03*
D466*
X77325Y185280D03*
D427*
X59011Y185280D03*
D467*
X54068Y185280D03*
D168*
X43720Y185280D03*
D210*
X22456Y185280D03*
D234*
X97203Y185351D03*
D468*
X77325Y185351D03*
D469*
X59011Y185351D03*
D470*
X54068Y185351D03*
D471*
X43756Y185351D03*
D234*
X22456Y185351D03*
D210*
X97203Y185422D03*
D466*
X77325Y185422D03*
D472*
X59011Y185422D03*
D426*
X54068Y185422D03*
D173*
X43756Y185422D03*
D210*
X22456Y185422D03*
X97203Y185493D03*
D466*
X77325Y185493D03*
D473*
X59011Y185493D03*
D424*
X54068Y185493D03*
D173*
X43756Y185493D03*
D210*
X22456Y185493D03*
X97203Y185564D03*
D466*
X77325Y185564D03*
D474*
X59011Y185564D03*
X54033Y185564D03*
D178*
X43720Y185564D03*
D210*
X22456Y185564D03*
X97203Y185635D03*
D466*
X77325Y185635D03*
D475*
X59011Y185635D03*
D476*
X54033Y185635D03*
D178*
X43720Y185635D03*
D210*
X22456Y185635D03*
X97203Y185706D03*
D466*
X77325Y185706D03*
D181*
X43756Y185706D03*
D210*
X22456Y185706D03*
D234*
X97203Y185777D03*
D468*
X77325Y185777D03*
D215*
X43756Y185777D03*
D234*
X22456Y185777D03*
D210*
X97203Y185848D03*
D466*
X77325Y185848D03*
D186*
X43721Y185848D03*
D210*
X22456Y185848D03*
X97203Y185920D03*
D466*
X77325Y185920D03*
D194*
X43756Y185920D03*
D210*
X22456Y185920D03*
X97203Y185991D03*
D466*
X77325Y185991D03*
D184*
X43721Y185991D03*
D210*
X22456Y185991D03*
X97203Y186062D03*
D466*
X77325Y186062D03*
D176*
X43756Y186062D03*
D210*
X22456Y186062D03*
X97203Y186133D03*
D466*
X77325Y186133D03*
D176*
X43756Y186133D03*
D210*
X22456Y186133D03*
D234*
X97203Y186204D03*
D468*
X77325Y186204D03*
D477*
X43756Y186204D03*
D234*
X22456Y186204D03*
D210*
X97203Y186275D03*
D466*
X77325Y186275D03*
D230*
X43756Y186275D03*
D210*
X22456Y186275D03*
X97203Y186346D03*
D466*
X77325Y186346D03*
D145*
X43756Y186346D03*
D210*
X22456Y186346D03*
X97203Y186417D03*
D466*
X77325Y186417D03*
D227*
X43720Y186417D03*
D210*
X22456Y186417D03*
X97203Y186489D03*
D466*
X77325Y186489D03*
D271*
X43756Y186489D03*
D210*
X22456Y186489D03*
X97203Y186560D03*
D466*
X77325Y186560D03*
D225*
X43720Y186560D03*
D210*
X22456Y186560D03*
X97203Y186631D03*
D466*
X77325Y186631D03*
D223*
X43756Y186631D03*
D210*
X22456Y186631D03*
D234*
X97203Y186702D03*
D468*
X77325Y186702D03*
D478*
X43756Y186702D03*
D234*
X22456Y186702D03*
D210*
X97203Y186773D03*
D466*
X77325Y186773D03*
D279*
X43721Y186773D03*
D210*
X22456Y186773D03*
X97203Y186844D03*
D466*
X77325Y186844D03*
D281*
X43756Y186844D03*
D210*
X22456Y186844D03*
X97203Y186915D03*
D466*
X77325Y186915D03*
D284*
X43756Y186915D03*
D210*
X22456Y186915D03*
X97203Y186986D03*
D466*
X77325Y186986D03*
D293*
X43756Y186986D03*
D210*
X22456Y186986D03*
X97203Y187058D03*
D466*
X77325Y187058D03*
D295*
X43756Y187058D03*
D210*
X22456Y187058D03*
D234*
X97203Y187129D03*
D468*
X77325Y187129D03*
D391*
X43720Y187129D03*
D234*
X22456Y187129D03*
D210*
X97203Y187200D03*
D466*
X77325Y187200D03*
D479*
X43721Y187200D03*
D210*
X22456Y187200D03*
X97203Y187271D03*
D466*
X77325Y187271D03*
D188*
X43721Y187271D03*
D210*
X22456Y187271D03*
X97203Y187342D03*
D466*
X77325Y187342D03*
D180*
X43756Y187342D03*
D210*
X22456Y187342D03*
X97203Y187413D03*
D466*
X77325Y187413D03*
D175*
X43756Y187413D03*
D210*
X22456Y187413D03*
X97203Y187484D03*
D466*
X77325Y187484D03*
D332*
X43756Y187484D03*
D210*
X22456Y187484D03*
D234*
X97203Y187555D03*
D468*
X77325Y187555D03*
D343*
X43720Y187555D03*
D430*
X35933Y187555D03*
D234*
X22456Y187555D03*
D210*
X97203Y187626D03*
D466*
X77325Y187626D03*
D150*
X43756Y187626D03*
D437*
X35897Y187626D03*
D210*
X22456Y187626D03*
X97203Y187698D03*
D466*
X77325Y187698D03*
D357*
X43721Y187698D03*
D460*
X35897Y187698D03*
D210*
X22456Y187698D03*
X97203Y187769D03*
D466*
X77325Y187769D03*
D370*
X43756Y187769D03*
D480*
X35933Y187769D03*
D210*
X22456Y187769D03*
X97203Y187840D03*
D466*
X77325Y187840D03*
D481*
X43756Y187840D03*
D482*
X35933Y187840D03*
D210*
X22456Y187840D03*
X97203Y187911D03*
D466*
X77325Y187911D03*
D483*
X43721Y187911D03*
D481*
X35933Y187911D03*
D210*
X22456Y187911D03*
D234*
X97203Y187982D03*
D468*
X77325Y187982D03*
D484*
X43756Y187982D03*
D485*
X35933Y187982D03*
D234*
X22456Y187982D03*
D210*
X97203Y188053D03*
D466*
X77325Y188053D03*
D445*
X43721Y188053D03*
D486*
X35897Y188053D03*
D210*
X22456Y188053D03*
X97203Y188124D03*
D466*
X77325Y188124D03*
D462*
X43721Y188124D03*
D349*
X35933Y188124D03*
D210*
X22456Y188124D03*
X97203Y188195D03*
D466*
X77325Y188195D03*
D487*
X43721Y188195D03*
D338*
X35897Y188195D03*
D210*
X22456Y188195D03*
X97203Y188267D03*
D466*
X77325Y188267D03*
D332*
X35933Y188267D03*
D210*
X22456Y188267D03*
X97203Y188338D03*
D466*
X77325Y188338D03*
D488*
X35933Y188338D03*
D210*
X22456Y188338D03*
X97203Y188409D03*
D466*
X77325Y188409D03*
D180*
X35933Y188409D03*
D210*
X22456Y188409D03*
D234*
X97203Y188480D03*
D468*
X77325Y188480D03*
D489*
X35933Y188480D03*
D234*
X22456Y188480D03*
D210*
X97203Y188551D03*
D466*
X77325Y188551D03*
D303*
X35897Y188551D03*
D210*
X22456Y188551D03*
X97203Y188622D03*
D466*
X77325Y188622D03*
D198*
X35933Y188622D03*
D210*
X22456Y188622D03*
X97203Y188693D03*
D466*
X77325Y188693D03*
D295*
X35933Y188693D03*
D210*
X22456Y188693D03*
X97203Y188764D03*
D466*
X77325Y188764D03*
D204*
X35933Y188764D03*
D210*
X22456Y188764D03*
X97203Y188836D03*
D466*
X77325Y188836D03*
D284*
X35933Y188836D03*
D210*
X22456Y188836D03*
D234*
X97203Y188907D03*
D468*
X77325Y188907D03*
D490*
X35897Y188907D03*
D234*
X22456Y188907D03*
D210*
X97203Y188978D03*
D466*
X77325Y188978D03*
D213*
X35897Y188978D03*
D210*
X22456Y188978D03*
X97203Y189049D03*
D466*
X77325Y189049D03*
D274*
X35933Y189049D03*
D210*
X22456Y189049D03*
X97203Y189120D03*
D466*
X77325Y189120D03*
D223*
X35933Y189120D03*
D210*
X22456Y189120D03*
X97203Y189191D03*
D466*
X77325Y189191D03*
D225*
X35897Y189191D03*
D210*
X22456Y189191D03*
X97203Y189262D03*
D466*
X77325Y189262D03*
D271*
X35933Y189262D03*
D210*
X22456Y189262D03*
D234*
X97203Y189333D03*
D468*
X77325Y189333D03*
D491*
X35897Y189333D03*
D234*
X22456Y189333D03*
D210*
X97203Y189404D03*
D466*
X77325Y189404D03*
D145*
X35933Y189404D03*
D210*
X22456Y189404D03*
X97203Y189476D03*
D466*
X77325Y189476D03*
D151*
X35897Y189476D03*
D210*
X22456Y189476D03*
X97203Y189547D03*
D466*
X77325Y189547D03*
D492*
X35933Y189547D03*
D210*
X22456Y189547D03*
X97203Y189618D03*
D466*
X77325Y189618D03*
D166*
X35897Y189618D03*
D210*
X22456Y189618D03*
X97203Y189689D03*
D466*
X77325Y189689D03*
D176*
X35933Y189689D03*
D210*
X22456Y189689D03*
D234*
X97203Y189760D03*
D468*
X77325Y189760D03*
D257*
X35897Y189760D03*
D234*
X22456Y189760D03*
D210*
X97203Y189831D03*
D466*
X77325Y189831D03*
D255*
X35933Y189831D03*
D210*
X22456Y189831D03*
X97203Y189902D03*
D466*
X77325Y189902D03*
D196*
X35897Y189902D03*
D210*
X22456Y189902D03*
X97203Y189973D03*
D466*
X77325Y189973D03*
D196*
X35897Y189973D03*
D210*
X22456Y189973D03*
X97203Y190045D03*
D466*
X77325Y190045D03*
D181*
X35933Y190045D03*
D210*
X22456Y190045D03*
X97203Y190116D03*
D466*
X77325Y190116D03*
D178*
X35897Y190116D03*
D210*
X22456Y190116D03*
X97203Y190187D03*
D466*
X77325Y190187D03*
D178*
X35897Y190187D03*
D210*
X22456Y190187D03*
D234*
X97203Y190258D03*
D468*
X77325Y190258D03*
D471*
X35933Y190258D03*
D234*
X22456Y190258D03*
D210*
X97203Y190329D03*
D466*
X77325Y190329D03*
D173*
X35933Y190329D03*
D210*
X22456Y190329D03*
D206*
X97167Y190400D03*
D466*
X77325Y190400D03*
D168*
X35897Y190400D03*
D210*
X22456Y190400D03*
D206*
X97167Y190471D03*
D466*
X77325Y190471D03*
D168*
X35897Y190471D03*
D210*
X22456Y190471D03*
D206*
X97167Y190542D03*
D466*
X77325Y190542D03*
D168*
X35897Y190542D03*
D210*
X22456Y190542D03*
D206*
X97167Y190614D03*
D466*
X77325Y190614D03*
D236*
X35933Y190614D03*
D210*
X22456Y190614D03*
D276*
X97167Y190685D03*
D468*
X77325Y190685D03*
D231*
X35933Y190685D03*
D276*
X22491Y190685D03*
D206*
X97167Y190756D03*
D466*
X77325Y190756D03*
D236*
X35933Y190756D03*
D206*
X22491Y190756D03*
X97167Y190827D03*
D466*
X77325Y190827D03*
D236*
X35933Y190827D03*
D206*
X22491Y190827D03*
X97167Y190898D03*
D466*
X77325Y190898D03*
D236*
X35933Y190898D03*
D206*
X22491Y190898D03*
X97167Y190969D03*
D466*
X77325Y190969D03*
D236*
X35933Y190969D03*
D206*
X22491Y190969D03*
X97167Y191040D03*
D466*
X77325Y191040D03*
D236*
X35933Y191040D03*
D206*
X22491Y191040D03*
D276*
X97167Y191111D03*
D468*
X77325Y191111D03*
D231*
X35933Y191111D03*
D276*
X22491Y191111D03*
D206*
X97167Y191182D03*
D466*
X77325Y191182D03*
D236*
X35933Y191182D03*
D206*
X22491Y191182D03*
X97167Y191254D03*
D466*
X77325Y191254D03*
D236*
X35933Y191254D03*
D206*
X22491Y191254D03*
D210*
X97132Y191325D03*
D466*
X77325Y191325D03*
D236*
X35933Y191325D03*
D206*
X22491Y191325D03*
X97096Y191396D03*
D466*
X77325Y191396D03*
D236*
X35933Y191396D03*
D206*
X22491Y191396D03*
X97096Y191467D03*
D466*
X77325Y191467D03*
D236*
X35933Y191467D03*
D206*
X22491Y191467D03*
D276*
X97096Y191538D03*
D468*
X77325Y191538D03*
D231*
X35933Y191538D03*
D493*
X22527Y191538D03*
D206*
X97096Y191609D03*
D466*
X77325Y191609D03*
D236*
X35933Y191609D03*
D203*
X22527Y191609D03*
D206*
X97096Y191680D03*
D466*
X77325Y191680D03*
D168*
X35897Y191680D03*
D203*
X22527Y191680D03*
D206*
X97096Y191751D03*
D466*
X77325Y191751D03*
D168*
X35897Y191751D03*
D203*
X22527Y191751D03*
D206*
X97096Y191823D03*
D466*
X77325Y191823D03*
D168*
X35897Y191823D03*
D206*
X22562Y191823D03*
X97096Y191894D03*
D466*
X77325Y191894D03*
D173*
X35933Y191894D03*
D206*
X22562Y191894D03*
D147*
X97061Y191965D03*
D466*
X77325Y191965D03*
D173*
X35933Y191965D03*
D206*
X22562Y191965D03*
D494*
X97061Y192036D03*
D468*
X77325Y192036D03*
D471*
X35933Y192036D03*
D493*
X22598Y192036D03*
D147*
X97061Y192107D03*
D466*
X77325Y192107D03*
D178*
X35897Y192107D03*
D203*
X22598Y192107D03*
D147*
X97061Y192178D03*
D466*
X77325Y192178D03*
D181*
X35933Y192178D03*
D203*
X22598Y192178D03*
D147*
X97061Y192249D03*
D466*
X77325Y192249D03*
D181*
X35933Y192249D03*
D203*
X22598Y192249D03*
D147*
X97061Y192320D03*
D466*
X77325Y192320D03*
D196*
X35897Y192320D03*
D203*
X22598Y192320D03*
D224*
X97025Y192392D03*
D466*
X77325Y192392D03*
D255*
X35933Y192392D03*
D203*
X22598Y192392D03*
D389*
X97025Y192463D03*
D468*
X77325Y192463D03*
D399*
X35933Y192463D03*
D288*
X22633Y192463D03*
D224*
X97025Y192534D03*
D466*
X77325Y192534D03*
D495*
X35897Y192534D03*
D200*
X22633Y192534D03*
D224*
X97025Y192605D03*
D466*
X77325Y192605D03*
D176*
X35933Y192605D03*
D200*
X22633Y192605D03*
D224*
X97025Y192676D03*
D466*
X77325Y192676D03*
D166*
X35897Y192676D03*
D200*
X22633Y192676D03*
D224*
X96954Y192747D03*
D466*
X77325Y192747D03*
D492*
X35933Y192747D03*
D200*
X22633Y192747D03*
D224*
X96954Y192818D03*
D466*
X77325Y192818D03*
D151*
X35897Y192818D03*
D220*
X22669Y192818D03*
D389*
X96954Y192889D03*
D468*
X77325Y192889D03*
D270*
X35933Y192889D03*
D389*
X22705Y192889D03*
D224*
X96954Y192960D03*
D466*
X77325Y192960D03*
D227*
X35897Y192960D03*
D224*
X22705Y192960D03*
D220*
X96918Y193032D03*
D466*
X77325Y193032D03*
D271*
X35933Y193032D03*
D224*
X22705Y193032D03*
D220*
X96918Y193103D03*
D466*
X77325Y193103D03*
D223*
X35933Y193103D03*
D220*
X22740Y193103D03*
X96918Y193174D03*
D466*
X77325Y193174D03*
D272*
X35897Y193174D03*
D220*
X22740Y193174D03*
X96918Y193245D03*
D466*
X77325Y193245D03*
D274*
X35933Y193245D03*
D220*
X22740Y193245D03*
D192*
X96883Y193316D03*
D468*
X77325Y193316D03*
D496*
X35933Y193316D03*
D497*
X22740Y193316D03*
D220*
X96847Y193387D03*
D466*
X77325Y193387D03*
D211*
X35897Y193387D03*
D222*
X22776Y193387D03*
D220*
X96847Y193458D03*
D466*
X77325Y193458D03*
D498*
X35897Y193458D03*
D222*
X22776Y193458D03*
D220*
X96847Y193529D03*
D466*
X77325Y193529D03*
D201*
X35897Y193529D03*
D220*
X22811Y193529D03*
D222*
X96812Y193601D03*
D466*
X77325Y193601D03*
D295*
X35933Y193601D03*
D220*
X22811Y193601D03*
D222*
X96812Y193672D03*
D466*
X77325Y193672D03*
D198*
X35933Y193672D03*
D222*
X22847Y193672D03*
X96812Y193743D03*
D466*
X77325Y193743D03*
D306*
X35933Y193743D03*
D222*
X22847Y193743D03*
D499*
X96776Y193814D03*
D340*
X77360Y193814D03*
D489*
X35933Y193814D03*
D192*
X22847Y193814D03*
D500*
X96776Y193885D03*
D182*
X77360Y193885D03*
D501*
X35897Y193885D03*
D187*
X22882Y193885D03*
D222*
X96740Y193956D03*
D182*
X77360Y193956D03*
D328*
X35897Y193956D03*
D187*
X22882Y193956D03*
D222*
X96740Y194027D03*
D182*
X77360Y194027D03*
D336*
X35933Y194027D03*
D222*
X22918Y194027D03*
D187*
X96705Y194098D03*
D182*
X77360Y194098D03*
D347*
X35933Y194098D03*
D187*
X22953Y194098D03*
X96705Y194170D03*
D182*
X77360Y194170D03*
D502*
X35897Y194170D03*
D187*
X22953Y194170D03*
D217*
X96705Y194241D03*
D340*
X77360Y194241D03*
D503*
X35933Y194241D03*
D217*
X22953Y194241D03*
D212*
X96669Y194312D03*
D182*
X77360Y194312D03*
D374*
X35933Y194312D03*
D209*
X22989Y194312D03*
D187*
X96634Y194383D03*
D182*
X77360Y194383D03*
D385*
X35897Y194383D03*
D209*
X22989Y194383D03*
D212*
X96598Y194454D03*
D182*
X77360Y194454D03*
D504*
X35933Y194454D03*
D187*
X23025Y194454D03*
D212*
X96598Y194525D03*
D182*
X77360Y194525D03*
D446*
X35933Y194525D03*
D212*
X23060Y194525D03*
X96598Y194596D03*
D182*
X77360Y194596D03*
D505*
X35897Y194596D03*
D212*
X23060Y194596D03*
D340*
X96563Y194667D03*
X77360Y194667D03*
D506*
X35933Y194667D03*
D397*
X23060Y194667D03*
D212*
X96527Y194738D03*
D182*
X77360Y194738D03*
D472*
X35897Y194738D03*
D182*
X23096Y194738D03*
D212*
X96527Y194810D03*
D182*
X77360Y194810D03*
D212*
X23131Y194810D03*
D182*
X96492Y194881D03*
X77360Y194881D03*
X23167Y194881D03*
X96492Y194952D03*
X77360Y194952D03*
X23167Y194952D03*
D352*
X96456Y195023D03*
D182*
X77360Y195023D03*
X23167Y195023D03*
D340*
X96420Y195094D03*
X77360Y195094D03*
D259*
X23202Y195094D03*
D182*
X96420Y195165D03*
X77360Y195165D03*
X23238Y195165D03*
D202*
X96385Y195236D03*
D182*
X77360Y195236D03*
D352*
X23274Y195236D03*
D202*
X96385Y195307D03*
D182*
X77360Y195307D03*
D352*
X23274Y195307D03*
D199*
X96349Y195379D03*
D182*
X77360Y195379D03*
D352*
X23274Y195379D03*
D202*
X96314Y195450D03*
D182*
X77360Y195450D03*
D199*
X23309Y195450D03*
X96278Y195521D03*
D182*
X77360Y195521D03*
D202*
X23345Y195521D03*
D394*
X96278Y195592D03*
D340*
X77360Y195592D03*
D394*
X23380Y195592D03*
D195*
X96243Y195663D03*
D182*
X77360Y195663D03*
D199*
X23380Y195663D03*
X96207Y195734D03*
D182*
X77360Y195734D03*
D195*
X23416Y195734D03*
D199*
X96207Y195805D03*
D182*
X77360Y195805D03*
D199*
X23451Y195805D03*
D195*
X96171Y195876D03*
D182*
X77360Y195876D03*
D195*
X23487Y195876D03*
X96171Y195948D03*
D182*
X77360Y195948D03*
D195*
X23487Y195948D03*
D388*
X96100Y196019D03*
D340*
X77360Y196019D03*
D190*
X23522Y196019D03*
D174*
X96065Y196090D03*
D182*
X77360Y196090D03*
D195*
X23558Y196090D03*
D174*
X96065Y196161D03*
D182*
X77360Y196161D03*
D174*
X23594Y196161D03*
D185*
X96029Y196232D03*
D182*
X77360Y196232D03*
D174*
X23594Y196232D03*
X95994Y196303D03*
D182*
X77360Y196303D03*
D174*
X23665Y196303D03*
D185*
X95958Y196374D03*
D182*
X77360Y196374D03*
D174*
X23665Y196374D03*
D393*
X95958Y196445D03*
D340*
X77360Y196445D03*
D393*
X23700Y196445D03*
D185*
X95887Y196516D03*
D182*
X77360Y196516D03*
D169*
X23736Y196516D03*
D185*
X95887Y196588D03*
D182*
X77360Y196588D03*
D185*
X23771Y196588D03*
D169*
X95851Y196659D03*
D182*
X77360Y196659D03*
D169*
X23807Y196659D03*
X95780Y196730D03*
D182*
X77360Y196730D03*
D169*
X23807Y196730D03*
X95780Y196801D03*
D182*
X77360Y196801D03*
D169*
X23878Y196801D03*
D507*
X95745Y196872D03*
D340*
X77360Y196872D03*
D402*
X23914Y196872D03*
D172*
X95745Y196943D03*
D182*
X77360Y196943D03*
D401*
X23914Y196943D03*
D172*
X95674Y197014D03*
D182*
X77360Y197014D03*
D401*
X23985Y197014D03*
D167*
X95638Y197085D03*
D182*
X77360Y197085D03*
D401*
X23985Y197085D03*
D167*
X95638Y197157D03*
D182*
X77360Y197157D03*
D167*
X24020Y197157D03*
X95567Y197228D03*
D182*
X77360Y197228D03*
D167*
X24091Y197228D03*
D170*
X95531Y197299D03*
D182*
X77360Y197299D03*
D167*
X24091Y197299D03*
D162*
X95531Y197370D03*
D340*
X77360Y197370D03*
D162*
X24127Y197370D03*
D508*
X95460Y197441D03*
D182*
X77360Y197441D03*
D170*
X24198Y197441D03*
D157*
X95425Y197512D03*
D182*
X77360Y197512D03*
D170*
X24198Y197512D03*
X95389Y197583D03*
D182*
X77360Y197583D03*
D157*
X24234Y197583D03*
X95354Y197654D03*
D182*
X77360Y197654D03*
D157*
X24305Y197654D03*
D152*
X95318Y197726D03*
D182*
X77360Y197726D03*
D157*
X24305Y197726D03*
D164*
X95283Y197797D03*
D340*
X77360Y197797D03*
D509*
X24340Y197797D03*
D152*
X95247Y197868D03*
D182*
X77360Y197868D03*
D152*
X24411Y197868D03*
D155*
X95211Y197939D03*
D182*
X77360Y197939D03*
D155*
X24447Y197939D03*
X95140Y198010D03*
D182*
X77360Y198010D03*
D152*
X24483Y198010D03*
D155*
X95140Y198081D03*
D182*
X77360Y198081D03*
D155*
X24518Y198081D03*
X95069Y198152D03*
D182*
X77360Y198152D03*
D159*
X24554Y198152D03*
D406*
X95034Y198223D03*
D340*
X77360Y198223D03*
D510*
X24625Y198223D03*
D287*
X94998Y198294D03*
D182*
X77360Y198294D03*
D287*
X24660Y198294D03*
X94927Y198366D03*
D182*
X77360Y198366D03*
D149*
X24696Y198366D03*
D287*
X94927Y198437D03*
D182*
X77360Y198437D03*
D287*
X24731Y198437D03*
D410*
X94856Y198508D03*
D182*
X77360Y198508D03*
D273*
X24767Y198508D03*
D511*
X94820Y198579D03*
D182*
X77360Y198579D03*
D273*
X24838Y198579D03*
D512*
X94785Y198650D03*
D340*
X77360Y198650D03*
D290*
X24874Y198650D03*
D275*
X94714Y198721D03*
D182*
X77360Y198721D03*
D275*
X24945Y198721D03*
D154*
X94678Y198792D03*
D182*
X77360Y198792D03*
D275*
X24945Y198792D03*
D154*
X94607Y198863D03*
D182*
X77360Y198863D03*
D513*
X24980Y198863D03*
D296*
X94571Y198935D03*
D182*
X77360Y198935D03*
D154*
X25051Y198935D03*
X94536Y199006D03*
D182*
X77360Y199006D03*
D296*
X25087Y199006D03*
X94500Y199077D03*
D182*
X77360Y199077D03*
D296*
X25158Y199077D03*
D514*
X94465Y199148D03*
D340*
X77360Y199148D03*
D514*
X25194Y199148D03*
D299*
X94394Y199219D03*
D182*
X77360Y199219D03*
D409*
X25265Y199219D03*
D301*
X94358Y199290D03*
D182*
X77360Y199290D03*
D280*
X25300Y199290D03*
D301*
X94287Y199361D03*
D182*
X77360Y199361D03*
D301*
X25372Y199361D03*
D282*
X94251Y199432D03*
D182*
X77360Y199432D03*
D282*
X25407Y199432D03*
X94180Y199504D03*
D182*
X77360Y199504D03*
D282*
X25478Y199504D03*
D515*
X94145Y199575D03*
D340*
X77360Y199575D03*
D515*
X25514Y199575D03*
D283*
X94073Y199646D03*
X25585Y199646D03*
D285*
X94038Y199717D03*
X25620Y199717D03*
D312*
X93931Y199788D03*
D285*
X25692Y199788D03*
D148*
X93896Y199859D03*
D312*
X25727Y199859D03*
D148*
X93825Y199930D03*
X25834Y199930D03*
D291*
X93789Y200001D03*
X25869Y200001D03*
D317*
X93718Y200072D03*
D516*
X25941Y200072D03*
D319*
X93682Y200144D03*
X25976Y200144D03*
X93611Y200215D03*
X26047Y200215D03*
D297*
X93540Y200286D03*
D322*
X26083Y200286D03*
D297*
X93469Y200357D03*
X26189Y200357D03*
D325*
X93398Y200428D03*
D517*
X26225Y200428D03*
D300*
X93362Y200499D03*
D518*
X26296Y200499D03*
D302*
X93256Y200570D03*
D331*
X26367Y200570D03*
D519*
X93220Y200641D03*
X26438Y200641D03*
X93149Y200713D03*
X26509Y200713D03*
D307*
X93078Y200784D03*
D520*
X26581Y200784D03*
D307*
X93007Y200855D03*
X26652Y200855D03*
D269*
X92900Y200926D03*
X26687Y200926D03*
D521*
X92864Y200997D03*
X26794Y200997D03*
D313*
X92758Y201068D03*
D521*
X26865Y201068D03*
D350*
X92722Y201139D03*
X26936Y201139D03*
D522*
X92616Y201210D03*
D350*
X27007Y201210D03*
D522*
X92544Y201282D03*
D318*
X27078Y201282D03*
D523*
X92473Y201353D03*
X27185Y201353D03*
D323*
X92367Y201424D03*
D320*
X27256Y201424D03*
D364*
X92331Y201495D03*
X27327Y201495D03*
D524*
X92224Y201566D03*
X27434Y201566D03*
D329*
X92118Y201637D03*
X27541Y201637D03*
D335*
X92047Y201708D03*
D333*
X27576Y201708D03*
D525*
X91940Y201779D03*
D526*
X27683Y201779D03*
D337*
X91833Y201850D03*
D375*
X27790Y201850D03*
D527*
X91762Y201922D03*
D386*
X27861Y201922D03*
D528*
X91655Y201993D03*
D529*
X27967Y201993D03*
D530*
X91549Y202064D03*
D417*
X28110Y202064D03*
D351*
X91442Y202135D03*
D531*
X28181Y202135D03*
D532*
X91371Y202206D03*
X28287Y202206D03*
D533*
X91229Y202277D03*
X28430Y202277D03*
D534*
X91122Y202348D03*
D535*
X28501Y202348D03*
D536*
X91015Y202419D03*
D368*
X28643Y202419D03*
D537*
X90873Y202491D03*
D538*
X28750Y202491D03*
D539*
X90731Y202562D03*
D540*
X28892Y202562D03*
D541*
X90589Y202633D03*
D542*
X28999Y202633D03*
D543*
X90482Y202704D03*
D544*
X29176Y202704D03*
D545*
X90340Y202775D03*
X29319Y202775D03*
D546*
X90162Y202846D03*
D547*
X29497Y202846D03*
D548*
X89984Y202917D03*
D549*
X29639Y202917D03*
D550*
X89842Y202988D03*
X29817Y202988D03*
D551*
X89593Y203060D03*
D552*
X30030Y203060D03*
D553*
X89344Y203131D03*
D554*
X30279Y203131D03*
D555*
X89024Y203202D03*
D556*
X30599Y203202D03*
D557*
X59794Y203273D03*
D111*
X59829Y203344D03*
D110*
X59829Y203415D03*
D109*
X59829Y203486D03*
D558*
X59829Y203557D03*
D106*
X59829Y203628D03*
D559*
X59794Y203700D03*
D560*
X59829Y203771D03*
D104*
X59829Y203842D03*
D103*
X59829Y203913D03*
D561*
X59829Y203984D03*
D562*
X59829Y204055D03*
D563*
X59829Y204126D03*
D98*
X59829Y204197D03*
D97*
X59829Y204269D03*
D564*
X59794Y204340D03*
D565*
X59794Y204411D03*
D566*
X59794Y204482D03*
D567*
X59794Y204553D03*
D568*
X59794Y204624D03*
D92*
X59829Y204695D03*
D91*
X59829Y204766D03*
D90*
X59829Y204838D03*
D569*
X59829Y204909D03*
D570*
X59794Y204980D03*
D571*
X59794Y205051D03*
D572*
X59794Y205122D03*
D573*
X59794Y205193D03*
D83*
X59829Y205264D03*
D574*
X59829Y205335D03*
D575*
X59829Y205406D03*
D576*
X59829Y205478D03*
D577*
X59829Y205549D03*
D79*
X59829Y205620D03*
D78*
X59829Y205691D03*
D578*
X59794Y205762D03*
D579*
X59794Y205833D03*
D580*
X59829Y205904D03*
D581*
X59829Y205975D03*
D73*
X59829Y206047D03*
D72*
X59829Y206118D03*
D582*
X59794Y206189D03*
D583*
X59829Y206260D03*
D69*
X59829Y206331D03*
D584*
X59829Y206402D03*
D585*
X59829Y206473D03*
D586*
X59829Y206544D03*
D65*
X59829Y206616D03*
D587*
X59829Y206687D03*
D588*
X59829Y206758D03*
D589*
X59829Y206829D03*
D590*
X59829Y206900D03*
D60*
X59829Y206971D03*
D591*
X59829Y207042D03*
D592*
X59829Y207113D03*
D593*
X59794Y207184D03*
D594*
X59829Y207256D03*
D595*
X59794Y207327D03*
D596*
X59829Y207398D03*
D597*
X59829Y207469D03*
D598*
X59829Y207540D03*
D599*
X59829Y207611D03*
D600*
X59794Y207682D03*
D601*
X59829Y207753D03*
D602*
X59829Y207825D03*
D603*
X59794Y207896D03*
D46*
X59829Y207967D03*
D604*
X59829Y208038D03*
D605*
X59829Y208109D03*
D606*
X59829Y208180D03*
D607*
X59829Y208251D03*
D608*
X59794Y208322D03*
D609*
X59794Y208394D03*
D610*
X59794Y208465D03*
D611*
X59794Y208536D03*
D612*
X59829Y208607D03*
D613*
X59829Y208678D03*
D614*
X59829Y208749D03*
D615*
X59829Y208820D03*
D616*
X59794Y208891D03*
D617*
X59829Y208962D03*
D618*
X59829Y209034D03*
D619*
X59829Y209105D03*
D620*
X59829Y209176D03*
D621*
X59829Y209247D03*
D622*
X59794Y209318D03*
D623*
X59829Y209389D03*
D624*
X59829Y209460D03*
D625*
X59829Y209531D03*
D626*
X59794Y209603D03*
D627*
X59829Y209674D03*
D628*
X59829Y209745D03*
D629*
X59829Y209816D03*
D630*
X59794Y209887D03*
D631*
X59794Y209958D03*
D632*
X59829Y210029D03*
D633*
X59794Y210100D03*
D634*
X59829Y210172D03*
D635*
X59794Y210243D03*
D636*
X59829Y210314D03*
D637*
X59794Y210385D03*
D638*
X59829Y210456D03*
D639*
X125005Y123032D03*
D640*
X125005Y123159D03*
D641*
X125005Y123286D03*
D642*
X125132Y123413D03*
X125132Y123540D03*
D643*
X125069Y123667D03*
D644*
X125005Y123794D03*
D645*
X125005Y123921D03*
X125005Y124048D03*
X125005Y124175D03*
D646*
X125005Y124302D03*
X125005Y124429D03*
X125005Y124556D03*
X125005Y124683D03*
X125005Y124810D03*
D647*
X125132Y124937D03*
X125132Y125064D03*
X125132Y125191D03*
X125132Y125318D03*
X125132Y125445D03*
X125132Y125572D03*
X125132Y125699D03*
X125132Y125826D03*
X125132Y125953D03*
X125132Y126080D03*
X125132Y126207D03*
X125132Y126334D03*
X125132Y126461D03*
X125132Y126588D03*
X125132Y126715D03*
X125132Y126842D03*
X125132Y126969D03*
X125132Y127096D03*
X125132Y127223D03*
D648*
X140245Y127350D03*
X109892Y127350D03*
X140245Y127477D03*
X109892Y127477D03*
X140245Y127604D03*
X109892Y127604D03*
X140245Y127731D03*
X109892Y127731D03*
X140245Y127858D03*
X109892Y127858D03*
X140245Y127985D03*
X109892Y127985D03*
X140245Y128112D03*
X109892Y128112D03*
X140245Y128239D03*
X109892Y128239D03*
X140245Y128366D03*
X109892Y128366D03*
X140245Y128493D03*
X109892Y128493D03*
X140245Y128620D03*
X109892Y128620D03*
X140245Y128747D03*
X109892Y128747D03*
X140245Y128874D03*
X109892Y128874D03*
X140245Y129001D03*
X109892Y129001D03*
X140245Y129128D03*
X109892Y129128D03*
X140245Y129255D03*
X109892Y129255D03*
X140245Y129382D03*
X109892Y129382D03*
X140245Y129509D03*
X109892Y129509D03*
X140245Y129636D03*
X109892Y129636D03*
X140245Y129763D03*
X109892Y129763D03*
X140245Y129890D03*
X109892Y129890D03*
X140245Y130017D03*
X109892Y130017D03*
X140245Y130144D03*
X109892Y130144D03*
X140245Y130271D03*
X109892Y130271D03*
X140245Y130398D03*
X109892Y130398D03*
X140245Y130525D03*
X109892Y130525D03*
X140245Y130652D03*
X109892Y130652D03*
X140245Y130779D03*
X109892Y130779D03*
X140245Y130906D03*
X109892Y130906D03*
X140245Y131033D03*
X109892Y131033D03*
X140245Y131160D03*
X109892Y131160D03*
X140245Y131287D03*
X109892Y131287D03*
X140245Y131414D03*
X109892Y131414D03*
X140245Y131541D03*
X109892Y131541D03*
X140245Y131668D03*
X109892Y131668D03*
X140245Y131795D03*
X109892Y131795D03*
X140245Y131922D03*
X109892Y131922D03*
X140245Y132049D03*
X109892Y132049D03*
X140245Y132176D03*
X109892Y132176D03*
X140245Y132303D03*
X109892Y132303D03*
X140245Y132430D03*
X109892Y132430D03*
X140245Y132557D03*
X109892Y132557D03*
X140245Y132684D03*
X109892Y132684D03*
X140245Y132811D03*
X109892Y132811D03*
X140245Y132938D03*
X109892Y132938D03*
X140245Y133065D03*
X109892Y133065D03*
X140245Y133192D03*
X109892Y133192D03*
X140245Y133319D03*
X109892Y133319D03*
X140245Y133446D03*
X109892Y133446D03*
X140245Y133573D03*
X109892Y133573D03*
X140245Y133700D03*
X109892Y133700D03*
X140245Y133827D03*
X109892Y133827D03*
X140245Y133954D03*
X109892Y133954D03*
X140245Y134081D03*
X109892Y134081D03*
X140245Y134208D03*
X109892Y134208D03*
X140245Y134335D03*
X109892Y134335D03*
X140245Y134462D03*
X109892Y134462D03*
X140245Y134589D03*
X109892Y134589D03*
X140245Y134716D03*
X109892Y134716D03*
X140245Y134843D03*
X109892Y134843D03*
X140245Y134970D03*
X109892Y134970D03*
X140245Y135097D03*
X109892Y135097D03*
X140245Y135224D03*
X109892Y135224D03*
X140245Y135351D03*
X109892Y135351D03*
X140245Y135478D03*
X109892Y135478D03*
X140245Y135605D03*
X109892Y135605D03*
X140245Y135732D03*
X109892Y135732D03*
X140245Y135859D03*
X109892Y135859D03*
X140245Y135986D03*
X109892Y135986D03*
X140245Y136113D03*
X109892Y136113D03*
X140245Y136240D03*
X109892Y136240D03*
X140245Y136367D03*
X109892Y136367D03*
X140245Y136494D03*
X109892Y136494D03*
X140245Y136621D03*
X109892Y136621D03*
X140245Y136748D03*
X109892Y136748D03*
X140245Y136875D03*
X109892Y136875D03*
X140245Y137002D03*
X109892Y137002D03*
D649*
X139737Y137129D03*
D650*
X134657Y137129D03*
X115607Y137129D03*
D651*
X110527Y137129D03*
D652*
X137832Y137256D03*
X112305Y137256D03*
D653*
X137578Y137383D03*
D654*
X112432Y137383D03*
D653*
X137578Y137510D03*
X112559Y137510D03*
X137578Y137637D03*
X112559Y137637D03*
D655*
X137451Y137764D03*
D653*
X112559Y137764D03*
D656*
X137451Y137891D03*
D655*
X112686Y137891D03*
D657*
X137388Y138018D03*
D656*
X112813Y138018D03*
D657*
X137388Y138145D03*
D656*
X112813Y138145D03*
X137324Y138272D03*
X112813Y138272D03*
D658*
X137324Y138399D03*
D656*
X112813Y138399D03*
D659*
X137451Y138526D03*
D656*
X112813Y138526D03*
D660*
X137515Y138653D03*
D658*
X112940Y138653D03*
D661*
X137578Y138780D03*
D658*
X112940Y138780D03*
D661*
X137578Y138907D03*
D658*
X112940Y138907D03*
D662*
X137705Y139034D03*
D658*
X112940Y139034D03*
D663*
X137769Y139161D03*
D658*
X112940Y139161D03*
D664*
X137832Y139288D03*
D658*
X112940Y139288D03*
D665*
X137959Y139415D03*
D658*
X112940Y139415D03*
D665*
X137959Y139542D03*
D658*
X112940Y139542D03*
D666*
X138023Y139669D03*
D658*
X112940Y139669D03*
D666*
X138150Y139796D03*
D658*
X112940Y139796D03*
D667*
X138213Y139923D03*
D668*
X112877Y139923D03*
D669*
X138340Y140050D03*
D658*
X112813Y140050D03*
D669*
X138340Y140177D03*
D658*
X112813Y140177D03*
D667*
X138467Y140304D03*
D658*
X112559Y140304D03*
D670*
X138531Y140431D03*
D668*
X112496Y140431D03*
D669*
X138594Y140558D03*
D671*
X112432Y140558D03*
D669*
X138721Y140685D03*
D668*
X112369Y140685D03*
D669*
X138848Y140812D03*
D668*
X112242Y140812D03*
D670*
X138912Y140939D03*
D657*
X112115Y140939D03*
D666*
X139166Y141066D03*
D658*
X111924Y141066D03*
D664*
X139356Y141193D03*
D656*
X111797Y141193D03*
D672*
X139420Y141320D03*
D657*
X111734Y141320D03*
D673*
X142023Y141447D03*
X110019Y141447D03*
D674*
X142277Y141574D03*
X109765Y141574D03*
D675*
X142595Y141701D03*
X109448Y141701D03*
D651*
X142785Y141828D03*
X109257Y141828D03*
D676*
X142849Y141955D03*
X109194Y141955D03*
D677*
X142976Y142082D03*
X109067Y142082D03*
D649*
X143039Y142209D03*
X109003Y142209D03*
X143293Y142336D03*
X108749Y142336D03*
D678*
X143420Y142463D03*
X108622Y142463D03*
X143420Y142590D03*
X108622Y142590D03*
X143547Y142717D03*
X108495Y142717D03*
X143547Y142844D03*
X108495Y142844D03*
D679*
X143674Y142971D03*
X108368Y142971D03*
D680*
X143738Y143098D03*
X108305Y143098D03*
D679*
X143801Y143225D03*
D681*
X123989Y143225D03*
D680*
X108305Y143225D03*
X143865Y143352D03*
D682*
X123989Y143352D03*
D680*
X108178Y143352D03*
D683*
X143928Y143479D03*
D682*
X123989Y143479D03*
D680*
X108178Y143479D03*
D683*
X143928Y143606D03*
D684*
X124116Y143606D03*
D683*
X108114Y143606D03*
X143928Y143733D03*
D685*
X123989Y143733D03*
D683*
X108114Y143733D03*
X143928Y143860D03*
D686*
X123989Y143860D03*
D683*
X108114Y143860D03*
X144055Y143987D03*
D687*
X124116Y143987D03*
D683*
X107987Y143987D03*
X144055Y144114D03*
D687*
X124116Y144114D03*
D683*
X107987Y144114D03*
X144055Y144241D03*
D688*
X123989Y144241D03*
D683*
X107987Y144241D03*
D648*
X144182Y144368D03*
D689*
X123989Y144368D03*
D683*
X107987Y144368D03*
D648*
X144182Y144495D03*
D689*
X123989Y144495D03*
D683*
X107987Y144495D03*
D648*
X144182Y144622D03*
X124116Y144622D03*
X107860Y144622D03*
X144182Y144749D03*
X124116Y144749D03*
X107860Y144749D03*
X144182Y144876D03*
X124116Y144876D03*
X107860Y144876D03*
X144182Y145003D03*
D690*
X124053Y145003D03*
D648*
X107860Y145003D03*
X144182Y145130D03*
D690*
X124053Y145130D03*
D648*
X107860Y145130D03*
X144182Y145257D03*
X123989Y145257D03*
X107860Y145257D03*
X144182Y145384D03*
X123989Y145384D03*
X107860Y145384D03*
X144182Y145511D03*
X123989Y145511D03*
X107860Y145511D03*
X144182Y145638D03*
X123989Y145638D03*
X107860Y145638D03*
X144182Y145765D03*
X123989Y145765D03*
X107860Y145765D03*
X144182Y145892D03*
X123989Y145892D03*
X107860Y145892D03*
X144182Y146019D03*
X123989Y146019D03*
X107860Y146019D03*
X144182Y146146D03*
X123989Y146146D03*
X107860Y146146D03*
X144182Y146273D03*
X123989Y146273D03*
X107860Y146273D03*
X144182Y146400D03*
X123989Y146400D03*
X107860Y146400D03*
X144182Y146527D03*
X123989Y146527D03*
X107860Y146527D03*
X144182Y146654D03*
X123989Y146654D03*
X107860Y146654D03*
X144182Y146781D03*
X123989Y146781D03*
X107860Y146781D03*
X144182Y146908D03*
X123989Y146908D03*
X107860Y146908D03*
X144182Y147035D03*
X123989Y147035D03*
X107860Y147035D03*
X144182Y147162D03*
X123989Y147162D03*
X107860Y147162D03*
X144182Y147289D03*
X123989Y147289D03*
X107860Y147289D03*
X144182Y147416D03*
X123989Y147416D03*
X107860Y147416D03*
X144182Y147543D03*
X123989Y147543D03*
X107860Y147543D03*
X144182Y147670D03*
X123989Y147670D03*
X107860Y147670D03*
X144182Y147797D03*
X123989Y147797D03*
X107860Y147797D03*
X144182Y147924D03*
X123989Y147924D03*
X107860Y147924D03*
X144182Y148051D03*
X123989Y148051D03*
X107860Y148051D03*
X144182Y148178D03*
X123989Y148178D03*
X107860Y148178D03*
X144182Y148305D03*
X123989Y148305D03*
X107860Y148305D03*
X144182Y148432D03*
X123989Y148432D03*
X107860Y148432D03*
X144182Y148559D03*
X123989Y148559D03*
X107860Y148559D03*
X144182Y148686D03*
X123989Y148686D03*
X107860Y148686D03*
X144182Y148813D03*
X123989Y148813D03*
X107860Y148813D03*
X144182Y148940D03*
X123989Y148940D03*
X107860Y148940D03*
X144182Y149067D03*
X123989Y149067D03*
X107860Y149067D03*
X144182Y149194D03*
X123989Y149194D03*
X107860Y149194D03*
X144182Y149321D03*
X123989Y149321D03*
X107860Y149321D03*
X144182Y149448D03*
X123989Y149448D03*
X107860Y149448D03*
X144182Y149575D03*
X123989Y149575D03*
X107860Y149575D03*
X144182Y149702D03*
X123989Y149702D03*
X107860Y149702D03*
X144182Y149829D03*
X123989Y149829D03*
X107860Y149829D03*
X144182Y149956D03*
X123989Y149956D03*
X107860Y149956D03*
X144182Y150083D03*
D683*
X124116Y150083D03*
D648*
X107860Y150083D03*
X144182Y150210D03*
D683*
X124116Y150210D03*
D648*
X107860Y150210D03*
X144182Y150337D03*
D683*
X124116Y150337D03*
D648*
X107860Y150337D03*
X144182Y150464D03*
X124116Y150464D03*
X107860Y150464D03*
X144182Y150591D03*
X124116Y150591D03*
X107860Y150591D03*
X144182Y150718D03*
X124116Y150718D03*
X107860Y150718D03*
X144182Y150845D03*
D683*
X124243Y150845D03*
D648*
X107860Y150845D03*
X144182Y150972D03*
D683*
X124243Y150972D03*
D648*
X107860Y150972D03*
X144182Y151099D03*
D683*
X124243Y151099D03*
D648*
X107860Y151099D03*
X144182Y151226D03*
D683*
X124243Y151226D03*
D648*
X107860Y151226D03*
X144182Y151353D03*
D683*
X124243Y151353D03*
D648*
X107860Y151353D03*
X144182Y151480D03*
D683*
X124370Y151480D03*
D648*
X107860Y151480D03*
X144182Y151607D03*
D683*
X124370Y151607D03*
D648*
X107860Y151607D03*
X144182Y151734D03*
D680*
X124434Y151734D03*
D648*
X107860Y151734D03*
X144182Y151861D03*
D680*
X124434Y151861D03*
D648*
X107860Y151861D03*
X144182Y151988D03*
D683*
X124497Y151988D03*
D648*
X107860Y151988D03*
X144182Y152115D03*
D680*
X124561Y152115D03*
D648*
X107860Y152115D03*
X144182Y152242D03*
D680*
X124561Y152242D03*
D648*
X107860Y152242D03*
X144182Y152369D03*
D680*
X124688Y152369D03*
D648*
X107860Y152369D03*
X144182Y152496D03*
D680*
X124688Y152496D03*
D648*
X107860Y152496D03*
X144182Y152623D03*
D683*
X124751Y152623D03*
D648*
X107860Y152623D03*
X144182Y152750D03*
D679*
X124878Y152750D03*
D648*
X107860Y152750D03*
X144182Y152877D03*
D691*
X124942Y152877D03*
D648*
X107860Y152877D03*
X144182Y153004D03*
D692*
X125069Y153004D03*
D648*
X107860Y153004D03*
X144182Y153131D03*
D678*
X125132Y153131D03*
D648*
X107860Y153131D03*
X144182Y153258D03*
D678*
X125132Y153258D03*
D648*
X107860Y153258D03*
X144182Y153385D03*
D692*
X125196Y153385D03*
D648*
X107860Y153385D03*
X144182Y153512D03*
D649*
X125259Y153512D03*
D648*
X107860Y153512D03*
X144182Y153639D03*
D649*
X125386Y153639D03*
D648*
X107860Y153639D03*
X144182Y153766D03*
D692*
X125450Y153766D03*
D648*
X107860Y153766D03*
X144182Y153893D03*
D651*
X125640Y153893D03*
D648*
X107860Y153893D03*
X144182Y154020D03*
D676*
X125704Y154020D03*
D648*
X107860Y154020D03*
X144182Y154147D03*
D693*
X125767Y154147D03*
D648*
X107860Y154147D03*
X144182Y154274D03*
D694*
X126021Y154274D03*
D648*
X107860Y154274D03*
X144182Y154401D03*
D675*
X126085Y154401D03*
D648*
X107860Y154401D03*
X144182Y154528D03*
D675*
X126212Y154528D03*
D648*
X107860Y154528D03*
X144182Y154655D03*
D694*
X126402Y154655D03*
D648*
X107860Y154655D03*
X144182Y154782D03*
D695*
X126593Y154782D03*
D648*
X107860Y154782D03*
X144182Y154909D03*
D696*
X126847Y154909D03*
D648*
X107860Y154909D03*
X144182Y155036D03*
D673*
X126910Y155036D03*
D648*
X107860Y155036D03*
X144182Y155163D03*
D697*
X127164Y155163D03*
D648*
X107860Y155163D03*
X144182Y155290D03*
D698*
X127545Y155290D03*
D648*
X107860Y155290D03*
X144182Y155417D03*
D699*
X130276Y155417D03*
D684*
X119925Y155417D03*
X111924Y155417D03*
D648*
X107860Y155417D03*
X144182Y155544D03*
D700*
X130657Y155544D03*
D688*
X119925Y155544D03*
X111924Y155544D03*
D648*
X107860Y155544D03*
X144182Y155671D03*
D701*
X130720Y155671D03*
D688*
X119925Y155671D03*
X111924Y155671D03*
D648*
X107860Y155671D03*
X144182Y155798D03*
D700*
X130784Y155798D03*
D679*
X119925Y155798D03*
D702*
X110019Y155798D03*
D648*
X144182Y155925D03*
D700*
X130911Y155925D03*
D651*
X119925Y155925D03*
D703*
X110146Y155925D03*
D648*
X144182Y156052D03*
D704*
X131038Y156052D03*
D694*
X119925Y156052D03*
D652*
X110273Y156052D03*
D648*
X144182Y156179D03*
D704*
X131165Y156179D03*
D705*
X119925Y156179D03*
D653*
X110527Y156179D03*
D648*
X144182Y156306D03*
D700*
X131292Y156306D03*
D705*
X119925Y156306D03*
D653*
X110527Y156306D03*
D648*
X144182Y156433D03*
D701*
X131355Y156433D03*
D697*
X119925Y156433D03*
D653*
X110527Y156433D03*
D648*
X144182Y156560D03*
D701*
X131482Y156560D03*
D706*
X120052Y156560D03*
D656*
X110781Y156560D03*
D648*
X144182Y156687D03*
D701*
X131482Y156687D03*
D698*
X119925Y156687D03*
D656*
X110781Y156687D03*
D648*
X144182Y156814D03*
D707*
X131609Y156814D03*
D708*
X114845Y156814D03*
D648*
X144182Y156941D03*
D709*
X131673Y156941D03*
D708*
X114845Y156941D03*
D648*
X144182Y157068D03*
D709*
X131800Y157068D03*
D710*
X114972Y157068D03*
D648*
X144182Y157195D03*
D711*
X131863Y157195D03*
D712*
X115099Y157195D03*
D648*
X144182Y157322D03*
D711*
X131863Y157322D03*
D712*
X115099Y157322D03*
D648*
X144182Y157449D03*
D709*
X131800Y157449D03*
D713*
X115226Y157449D03*
D648*
X144182Y157576D03*
D709*
X131800Y157576D03*
D713*
X115226Y157576D03*
D648*
X144182Y157703D03*
D707*
X131736Y157703D03*
D714*
X115353Y157703D03*
D648*
X144182Y157830D03*
D707*
X131736Y157830D03*
D714*
X115353Y157830D03*
D648*
X144182Y157957D03*
D699*
X131673Y157957D03*
D714*
X115353Y157957D03*
D648*
X144182Y158084D03*
D715*
X122021Y158084D03*
D648*
X144182Y158211D03*
D640*
X121957Y158211D03*
D648*
X144182Y158338D03*
D640*
X121957Y158338D03*
D648*
X144182Y158465D03*
D716*
X121830Y158465D03*
D648*
X144182Y158592D03*
D716*
X121830Y158592D03*
D648*
X144182Y158719D03*
D716*
X121830Y158719D03*
D648*
X144182Y158846D03*
D716*
X121830Y158846D03*
D648*
X144182Y158973D03*
D717*
X121703Y158973D03*
D648*
X144182Y159100D03*
D639*
X121576Y159100D03*
D648*
X144182Y159227D03*
D639*
X121576Y159227D03*
D648*
X144182Y159354D03*
D639*
X121576Y159354D03*
D648*
X144182Y159481D03*
D718*
X121322Y159481D03*
D648*
X144182Y159608D03*
D719*
X120941Y159608D03*
D648*
X144182Y159735D03*
D703*
X125132Y159735D03*
D673*
X115988Y159735D03*
D651*
X108495Y159735D03*
D648*
X144182Y159862D03*
D720*
X125005Y159862D03*
D674*
X115988Y159862D03*
D649*
X108368Y159862D03*
D648*
X144182Y159989D03*
D720*
X125005Y159989D03*
D674*
X115988Y159989D03*
D649*
X108368Y159989D03*
D648*
X144182Y160116D03*
D706*
X125005Y160116D03*
D651*
X115988Y160116D03*
D678*
X108241Y160116D03*
D648*
X144182Y160243D03*
D721*
X125005Y160243D03*
D649*
X115988Y160243D03*
D679*
X108114Y160243D03*
D648*
X144182Y160370D03*
D722*
X125069Y160370D03*
D678*
X115988Y160370D03*
D683*
X107987Y160370D03*
X144055Y160497D03*
D697*
X125005Y160497D03*
D678*
X115988Y160497D03*
D683*
X107987Y160497D03*
X144055Y160624D03*
D697*
X125005Y160624D03*
D678*
X115988Y160624D03*
D683*
X107987Y160624D03*
X144055Y160751D03*
D705*
X125005Y160751D03*
D683*
X115988Y160751D03*
X107987Y160751D03*
D648*
X144055Y160878D03*
D705*
X125005Y160878D03*
D683*
X115988Y160878D03*
X107987Y160878D03*
X143928Y161005D03*
D674*
X125005Y161005D03*
D648*
X115988Y161005D03*
X107860Y161005D03*
D683*
X143928Y161132D03*
D674*
X125005Y161132D03*
D648*
X115988Y161132D03*
X107860Y161132D03*
D683*
X143928Y161259D03*
D674*
X125005Y161259D03*
D648*
X115988Y161259D03*
X107860Y161259D03*
D680*
X143865Y161386D03*
D674*
X125005Y161386D03*
D648*
X115988Y161386D03*
X107860Y161386D03*
D680*
X143865Y161513D03*
D674*
X125005Y161513D03*
D648*
X115988Y161513D03*
X107860Y161513D03*
D680*
X143738Y161640D03*
D674*
X125005Y161640D03*
D648*
X115988Y161640D03*
X107860Y161640D03*
D679*
X143674Y161767D03*
D674*
X125005Y161767D03*
D648*
X115988Y161767D03*
X107860Y161767D03*
D679*
X143674Y161894D03*
D674*
X125005Y161894D03*
D648*
X115988Y161894D03*
X107860Y161894D03*
D678*
X143547Y162021D03*
D674*
X125005Y162021D03*
D648*
X115988Y162021D03*
X107860Y162021D03*
D678*
X143547Y162148D03*
D674*
X125005Y162148D03*
D648*
X115988Y162148D03*
X107860Y162148D03*
D678*
X143420Y162275D03*
D674*
X125005Y162275D03*
D648*
X115988Y162275D03*
X107860Y162275D03*
D692*
X143357Y162402D03*
D674*
X125005Y162402D03*
D648*
X115988Y162402D03*
X107860Y162402D03*
D651*
X143166Y162529D03*
D674*
X125005Y162529D03*
D648*
X115988Y162529D03*
X107860Y162529D03*
D651*
X143039Y162656D03*
D674*
X125005Y162656D03*
D648*
X115988Y162656D03*
X107860Y162656D03*
D651*
X143039Y162783D03*
D674*
X125005Y162783D03*
D648*
X115988Y162783D03*
X107860Y162783D03*
D693*
X142912Y162910D03*
D674*
X125005Y162910D03*
D648*
X115988Y162910D03*
X107860Y162910D03*
D693*
X142658Y163037D03*
D674*
X125005Y163037D03*
D648*
X115988Y163037D03*
X107860Y163037D03*
D723*
X142468Y163164D03*
D674*
X125005Y163164D03*
D648*
X115988Y163164D03*
X107860Y163164D03*
D673*
X142150Y163291D03*
D674*
X125005Y163291D03*
D648*
X115988Y163291D03*
X107860Y163291D03*
D724*
X142087Y163418D03*
D674*
X125005Y163418D03*
D648*
X115988Y163418D03*
X107860Y163418D03*
D725*
X133578Y163545D03*
D648*
X115988Y163545D03*
X107860Y163545D03*
D726*
X133514Y163672D03*
D648*
X115988Y163672D03*
X107860Y163672D03*
D726*
X133514Y163799D03*
D648*
X115988Y163799D03*
X107860Y163799D03*
D726*
X133514Y163926D03*
D648*
X115988Y163926D03*
X107860Y163926D03*
D726*
X133514Y164053D03*
D648*
X115988Y164053D03*
X107860Y164053D03*
D727*
X133324Y164180D03*
D648*
X115988Y164180D03*
X107860Y164180D03*
D728*
X133260Y164307D03*
D648*
X115988Y164307D03*
X107860Y164307D03*
D728*
X133260Y164434D03*
D648*
X115988Y164434D03*
X107860Y164434D03*
D728*
X133260Y164561D03*
D648*
X115988Y164561D03*
X107860Y164561D03*
D729*
X133260Y164688D03*
D648*
X115988Y164688D03*
X107860Y164688D03*
D730*
X133070Y164815D03*
D648*
X115988Y164815D03*
X107860Y164815D03*
D731*
X133006Y164942D03*
D648*
X115988Y164942D03*
X107860Y164942D03*
D731*
X133006Y165069D03*
D648*
X115988Y165069D03*
X107860Y165069D03*
D732*
X133006Y165196D03*
D648*
X115988Y165196D03*
X107860Y165196D03*
D733*
X132879Y165323D03*
D648*
X115988Y165323D03*
X107860Y165323D03*
D733*
X132879Y165450D03*
D648*
X115988Y165450D03*
X107860Y165450D03*
D734*
X132689Y165577D03*
D648*
X115988Y165577D03*
X107860Y165577D03*
D734*
X132689Y165704D03*
D648*
X115988Y165704D03*
X107860Y165704D03*
D735*
X132625Y165831D03*
D648*
X115988Y165831D03*
X107860Y165831D03*
D736*
X132562Y165958D03*
D648*
X115988Y165958D03*
X107860Y165958D03*
D737*
X132371Y166085D03*
D648*
X115988Y166085D03*
X107860Y166085D03*
D738*
X132371Y166212D03*
D648*
X115988Y166212D03*
X107860Y166212D03*
D738*
X132371Y166339D03*
D648*
X115988Y166339D03*
X107860Y166339D03*
D739*
X132244Y166466D03*
D648*
X115988Y166466D03*
X107860Y166466D03*
D740*
X132117Y166593D03*
D648*
X115988Y166593D03*
X107860Y166593D03*
D740*
X132117Y166720D03*
D648*
X115988Y166720D03*
X107860Y166720D03*
D740*
X132117Y166847D03*
D648*
X115988Y166847D03*
X107860Y166847D03*
D740*
X132117Y166974D03*
D648*
X115988Y166974D03*
X107860Y166974D03*
D740*
X132117Y167101D03*
D648*
X115988Y167101D03*
X107860Y167101D03*
D740*
X132117Y167228D03*
D648*
X115988Y167228D03*
X107860Y167228D03*
D740*
X132117Y167355D03*
D648*
X115988Y167355D03*
X107860Y167355D03*
D740*
X132117Y167482D03*
D648*
X115988Y167482D03*
X107860Y167482D03*
D740*
X132117Y167609D03*
D648*
X115988Y167609D03*
X107860Y167609D03*
D740*
X132117Y167736D03*
D648*
X115988Y167736D03*
X107860Y167736D03*
X140245Y167863D03*
X132117Y167863D03*
X123989Y167863D03*
X115988Y167863D03*
X107860Y167863D03*
X140245Y167990D03*
X132117Y167990D03*
X123989Y167990D03*
X115988Y167990D03*
X107860Y167990D03*
X140245Y168117D03*
X132117Y168117D03*
X123989Y168117D03*
X115988Y168117D03*
X107860Y168117D03*
X140245Y168244D03*
X132117Y168244D03*
X123989Y168244D03*
X115988Y168244D03*
X107860Y168244D03*
X140245Y168371D03*
X132117Y168371D03*
X123989Y168371D03*
X115988Y168371D03*
X107860Y168371D03*
X140245Y168498D03*
X132117Y168498D03*
X123989Y168498D03*
X115988Y168498D03*
X107860Y168498D03*
X140245Y168625D03*
X132117Y168625D03*
X123989Y168625D03*
X115988Y168625D03*
X107860Y168625D03*
X140245Y168752D03*
X132117Y168752D03*
X123989Y168752D03*
X115988Y168752D03*
X107860Y168752D03*
X140245Y168879D03*
X132117Y168879D03*
X123989Y168879D03*
X115988Y168879D03*
X107860Y168879D03*
X140245Y169006D03*
X132117Y169006D03*
X123989Y169006D03*
X115988Y169006D03*
X107860Y169006D03*
X140245Y169133D03*
X132117Y169133D03*
X123989Y169133D03*
X115988Y169133D03*
X107860Y169133D03*
X140245Y169260D03*
X132117Y169260D03*
X123989Y169260D03*
X115988Y169260D03*
X107860Y169260D03*
X140245Y169387D03*
X132117Y169387D03*
X123989Y169387D03*
X115988Y169387D03*
X107860Y169387D03*
X140245Y169514D03*
X132117Y169514D03*
X123989Y169514D03*
X115988Y169514D03*
X107860Y169514D03*
X140245Y169641D03*
X132117Y169641D03*
X123989Y169641D03*
X115988Y169641D03*
X107860Y169641D03*
X140245Y169768D03*
X132117Y169768D03*
X123989Y169768D03*
X115988Y169768D03*
X107860Y169768D03*
X140245Y169895D03*
X132117Y169895D03*
X123989Y169895D03*
X115988Y169895D03*
X107860Y169895D03*
X140245Y170022D03*
X132117Y170022D03*
X123989Y170022D03*
X115988Y170022D03*
X107860Y170022D03*
X140245Y170149D03*
X132117Y170149D03*
X123989Y170149D03*
X115988Y170149D03*
X107860Y170149D03*
X140245Y170276D03*
X132117Y170276D03*
X123989Y170276D03*
X115988Y170276D03*
X107860Y170276D03*
X140245Y170403D03*
X132117Y170403D03*
X123989Y170403D03*
X115988Y170403D03*
X107860Y170403D03*
X140245Y170530D03*
X132117Y170530D03*
X123989Y170530D03*
X115988Y170530D03*
X107860Y170530D03*
X140245Y170657D03*
X132117Y170657D03*
X123989Y170657D03*
X115988Y170657D03*
X107860Y170657D03*
X140245Y170784D03*
X132117Y170784D03*
X123989Y170784D03*
X115988Y170784D03*
X107860Y170784D03*
X140245Y170911D03*
X132117Y170911D03*
X123989Y170911D03*
X115988Y170911D03*
X107860Y170911D03*
X140245Y171038D03*
X132117Y171038D03*
X123989Y171038D03*
X115988Y171038D03*
X107860Y171038D03*
X140245Y171165D03*
X132117Y171165D03*
X123989Y171165D03*
X115988Y171165D03*
X107860Y171165D03*
X140245Y171292D03*
X132117Y171292D03*
X123989Y171292D03*
X115988Y171292D03*
X107860Y171292D03*
X140245Y171419D03*
X132117Y171419D03*
X123989Y171419D03*
X115988Y171419D03*
X107860Y171419D03*
X140245Y171546D03*
X132117Y171546D03*
X123989Y171546D03*
X115988Y171546D03*
X107860Y171546D03*
X140245Y171673D03*
X132117Y171673D03*
X123989Y171673D03*
X115988Y171673D03*
X107860Y171673D03*
X140245Y171800D03*
X132117Y171800D03*
X123989Y171800D03*
X115988Y171800D03*
X107860Y171800D03*
X140245Y171927D03*
X132117Y171927D03*
X123989Y171927D03*
X115988Y171927D03*
X107860Y171927D03*
X140245Y172054D03*
X132117Y172054D03*
X123989Y172054D03*
X115988Y172054D03*
X107860Y172054D03*
X140245Y172181D03*
X132117Y172181D03*
X123989Y172181D03*
X115988Y172181D03*
X107860Y172181D03*
X140245Y172308D03*
X132117Y172308D03*
X123989Y172308D03*
X115988Y172308D03*
X107860Y172308D03*
X140245Y172435D03*
X132117Y172435D03*
X123989Y172435D03*
X115988Y172435D03*
X107860Y172435D03*
X140245Y172562D03*
X132117Y172562D03*
X123989Y172562D03*
X115988Y172562D03*
X107860Y172562D03*
X140245Y172689D03*
X132117Y172689D03*
X123989Y172689D03*
X115988Y172689D03*
X107860Y172689D03*
X140245Y172816D03*
X132117Y172816D03*
X123989Y172816D03*
X115988Y172816D03*
X107860Y172816D03*
X140245Y172943D03*
X132117Y172943D03*
X123989Y172943D03*
X115988Y172943D03*
X107860Y172943D03*
X140245Y173070D03*
X132117Y173070D03*
X123989Y173070D03*
X115988Y173070D03*
X107860Y173070D03*
X140245Y173197D03*
X132117Y173197D03*
X123989Y173197D03*
X115988Y173197D03*
X107860Y173197D03*
X140245Y173324D03*
X132117Y173324D03*
X123989Y173324D03*
X115988Y173324D03*
X107860Y173324D03*
X140245Y173451D03*
X132117Y173451D03*
X123989Y173451D03*
X115988Y173451D03*
X107860Y173451D03*
X140245Y173578D03*
X132117Y173578D03*
X123989Y173578D03*
X115988Y173578D03*
X107860Y173578D03*
X140245Y173705D03*
X132117Y173705D03*
X123989Y173705D03*
X115988Y173705D03*
X107860Y173705D03*
X140245Y173832D03*
X132117Y173832D03*
X123989Y173832D03*
X115988Y173832D03*
X107860Y173832D03*
X140245Y173959D03*
X132117Y173959D03*
X123989Y173959D03*
X115988Y173959D03*
X107860Y173959D03*
X140245Y174086D03*
X132117Y174086D03*
X123989Y174086D03*
X115988Y174086D03*
X107860Y174086D03*
X140245Y174213D03*
X132117Y174213D03*
X123989Y174213D03*
X115988Y174213D03*
X107860Y174213D03*
X140245Y174340D03*
X132117Y174340D03*
X123989Y174340D03*
X115988Y174340D03*
X107860Y174340D03*
X140245Y174467D03*
X132117Y174467D03*
X123989Y174467D03*
X115988Y174467D03*
X107860Y174467D03*
X140245Y174594D03*
X132117Y174594D03*
X123989Y174594D03*
X115988Y174594D03*
X107860Y174594D03*
X140245Y174721D03*
X132117Y174721D03*
X123989Y174721D03*
X115988Y174721D03*
X107860Y174721D03*
X140245Y174848D03*
X132117Y174848D03*
X123989Y174848D03*
X115988Y174848D03*
X107860Y174848D03*
X140245Y174975D03*
X132117Y174975D03*
X123989Y174975D03*
X115988Y174975D03*
X107860Y174975D03*
X140245Y175102D03*
X132117Y175102D03*
X123989Y175102D03*
X115988Y175102D03*
X107860Y175102D03*
X140245Y175229D03*
X132117Y175229D03*
X123989Y175229D03*
X115988Y175229D03*
X107860Y175229D03*
X140245Y175356D03*
X132117Y175356D03*
X123989Y175356D03*
X115988Y175356D03*
X107860Y175356D03*
X140245Y175483D03*
X132117Y175483D03*
X123989Y175483D03*
X115988Y175483D03*
X107860Y175483D03*
X140245Y175610D03*
X132117Y175610D03*
X123989Y175610D03*
X115988Y175610D03*
X107860Y175610D03*
X140245Y175737D03*
X132117Y175737D03*
X123989Y175737D03*
X115988Y175737D03*
X107860Y175737D03*
X140245Y175864D03*
X132117Y175864D03*
X123989Y175864D03*
X115988Y175864D03*
X107860Y175864D03*
X140245Y175991D03*
X132117Y175991D03*
X123989Y175991D03*
X115988Y175991D03*
X107860Y175991D03*
X140245Y176118D03*
X132117Y176118D03*
X123989Y176118D03*
X115988Y176118D03*
X107860Y176118D03*
X140245Y176245D03*
X132117Y176245D03*
X123989Y176245D03*
X115988Y176245D03*
X107860Y176245D03*
X140245Y176372D03*
X132117Y176372D03*
X123989Y176372D03*
X115988Y176372D03*
X107860Y176372D03*
X140245Y176499D03*
X132117Y176499D03*
X123989Y176499D03*
X115988Y176499D03*
X107860Y176499D03*
X140245Y176626D03*
X132117Y176626D03*
X123989Y176626D03*
X115988Y176626D03*
X107860Y176626D03*
X140245Y176753D03*
X132117Y176753D03*
X123989Y176753D03*
X115988Y176753D03*
X107860Y176753D03*
X140245Y176880D03*
X132117Y176880D03*
X123989Y176880D03*
X115988Y176880D03*
X107860Y176880D03*
X140245Y177007D03*
X132117Y177007D03*
X123989Y177007D03*
X115988Y177007D03*
X107860Y177007D03*
X140245Y177134D03*
X132117Y177134D03*
X123989Y177134D03*
X115988Y177134D03*
X107860Y177134D03*
X140245Y177261D03*
X132117Y177261D03*
X123989Y177261D03*
X115988Y177261D03*
X107860Y177261D03*
X140245Y177388D03*
X132117Y177388D03*
X123989Y177388D03*
X115988Y177388D03*
X107860Y177388D03*
X140245Y177515D03*
X132117Y177515D03*
X123989Y177515D03*
X115988Y177515D03*
X107860Y177515D03*
X140245Y177642D03*
X132117Y177642D03*
X123989Y177642D03*
X115988Y177642D03*
X107860Y177642D03*
D690*
X140182Y177769D03*
D648*
X132117Y177769D03*
X123989Y177769D03*
X115988Y177769D03*
X107860Y177769D03*
X140118Y177896D03*
X132117Y177896D03*
X123989Y177896D03*
X115988Y177896D03*
X107860Y177896D03*
X140118Y178023D03*
D683*
X132117Y178023D03*
D648*
X123989Y178023D03*
X115988Y178023D03*
X107860Y178023D03*
X140118Y178150D03*
D683*
X132117Y178150D03*
X124116Y178150D03*
X115988Y178150D03*
D648*
X107860Y178150D03*
X140118Y178277D03*
D683*
X132117Y178277D03*
X124116Y178277D03*
X115988Y178277D03*
D648*
X107860Y178277D03*
X140118Y178404D03*
D683*
X132117Y178404D03*
D680*
X124053Y178404D03*
D683*
X115988Y178404D03*
X107987Y178404D03*
X139991Y178531D03*
D679*
X132117Y178531D03*
X124116Y178531D03*
D683*
X115988Y178531D03*
X107987Y178531D03*
X139991Y178658D03*
D678*
X131990Y178658D03*
X123989Y178658D03*
X115988Y178658D03*
D680*
X108051Y178658D03*
D683*
X139991Y178785D03*
D692*
X132054Y178785D03*
X124053Y178785D03*
D649*
X115988Y178785D03*
D680*
X108051Y178785D03*
D683*
X139991Y178912D03*
D692*
X132054Y178912D03*
X124053Y178912D03*
D649*
X115988Y178912D03*
D683*
X108114Y178912D03*
D679*
X139864Y179039D03*
D651*
X132117Y179039D03*
X124116Y179039D03*
X115988Y179039D03*
D680*
X108178Y179039D03*
D679*
X139737Y179166D03*
D693*
X132117Y179166D03*
X124116Y179166D03*
X115988Y179166D03*
D679*
X108241Y179166D03*
D678*
X139610Y179293D03*
D674*
X131990Y179293D03*
X123989Y179293D03*
X115988Y179293D03*
D678*
X108368Y179293D03*
D651*
X139356Y179420D03*
D697*
X132117Y179420D03*
D673*
X123989Y179420D03*
X115988Y179420D03*
D677*
X108559Y179420D03*
D651*
X139356Y179547D03*
D697*
X132117Y179547D03*
D673*
X123989Y179547D03*
X115988Y179547D03*
D677*
X108559Y179547D03*
D741*
X124053Y179674D03*
D742*
X124053Y179801D03*
X124053Y179928D03*
D743*
X124116Y180055D03*
D744*
X123989Y180182D03*
D745*
X124053Y180309D03*
D744*
X124116Y180436D03*
X124116Y180563D03*
D746*
X123989Y180690D03*
D747*
X124053Y180817D03*
D748*
X123989Y180944D03*
D647*
X123989Y181071D03*
X123989Y181198D03*
D646*
X124116Y181325D03*
D645*
X124116Y181452D03*
D749*
X123989Y181579D03*
D644*
X123989Y181706D03*
X123989Y181833D03*
D642*
X123989Y181960D03*
D750*
X124116Y182087D03*
D751*
X123989Y182214D03*
D752*
X136181Y182341D03*
D753*
X119925Y182341D03*
D752*
X136181Y182468D03*
D753*
X119925Y182468D03*
D698*
X136181Y182595D03*
X128053Y182595D03*
X119925Y182595D03*
X111924Y182595D03*
D706*
X136181Y182722D03*
X128053Y182722D03*
D721*
X119925Y182722D03*
D706*
X111797Y182722D03*
D697*
X136181Y182849D03*
X128053Y182849D03*
X119925Y182849D03*
X111924Y182849D03*
D705*
X136181Y182976D03*
X128053Y182976D03*
X120052Y182976D03*
X111797Y182976D03*
X136181Y183103D03*
X128053Y183103D03*
X120052Y183103D03*
X111797Y183103D03*
D693*
X136181Y183230D03*
X128053Y183230D03*
D694*
X119925Y183230D03*
X111924Y183230D03*
D649*
X136181Y183357D03*
X128053Y183357D03*
D651*
X119925Y183357D03*
X111924Y183357D03*
D683*
X136181Y183484D03*
X128053Y183484D03*
X119925Y183484D03*
X111797Y183484D03*
D688*
X136181Y183611D03*
X128053Y183611D03*
X120052Y183611D03*
X111797Y183611D03*
X136181Y183738D03*
X128053Y183738D03*
X120052Y183738D03*
X111797Y183738D03*
D684*
X136181Y183865D03*
X128053Y183865D03*
D754*
X119925Y183865D03*
X111924Y183865D03*
D755*
X148331Y120619D02*
X148500Y120365D01*
X148266Y120407D02*
X148266Y120619D01*
X148266Y120407D02*
X148224Y120365D01*
X148139Y120365D01*
X148097Y120407D01*
X148097Y120619D01*
X148032Y120365D02*
X147905Y120365D01*
X147863Y120407D01*
X147905Y120450D01*
X147990Y120450D01*
X148032Y120492D01*
X147990Y120534D01*
X147863Y120534D01*
X147756Y120365D02*
X147671Y120365D01*
X147756Y120365D02*
X147798Y120407D01*
X147798Y120492D01*
X147756Y120534D01*
X147671Y120534D01*
X147629Y120492D01*
X147629Y120450D01*
X147798Y120450D01*
X147565Y120534D02*
X147565Y120365D01*
X147565Y120450D02*
X147480Y120534D01*
X147437Y120534D01*
X147370Y120365D02*
X147243Y120365D01*
X147200Y120407D01*
X147243Y120450D01*
X147327Y120450D01*
X147370Y120492D01*
X147327Y120534D01*
X147200Y120534D01*
X147136Y120365D02*
X146966Y120619D01*
X146902Y120534D02*
X146902Y120365D01*
X146902Y120534D02*
X146860Y120534D01*
X146817Y120492D01*
X146817Y120365D01*
X146817Y120492D02*
X146775Y120534D01*
X146732Y120492D01*
X146732Y120365D01*
X146626Y120534D02*
X146541Y120534D01*
X146499Y120492D01*
X146499Y120365D01*
X146626Y120365D01*
X146668Y120407D01*
X146626Y120450D01*
X146499Y120450D01*
X146434Y120534D02*
X146434Y120365D01*
X146434Y120450D02*
X146349Y120534D01*
X146307Y120534D01*
X146197Y120577D02*
X146197Y120407D01*
X146155Y120365D01*
X146155Y120534D02*
X146239Y120534D01*
X146083Y120534D02*
X146041Y120534D01*
X146041Y120365D01*
X146083Y120365D02*
X145999Y120365D01*
X146041Y120619D02*
X146041Y120662D01*
X145927Y120534D02*
X145927Y120365D01*
X145927Y120534D02*
X145800Y120534D01*
X145758Y120492D01*
X145758Y120365D01*
X145694Y120365D02*
X145524Y120619D01*
X145460Y120619D02*
X145460Y120365D01*
X145333Y120365D01*
X145290Y120407D01*
X145290Y120577D01*
X145333Y120619D01*
X145460Y120619D01*
X145183Y120365D02*
X145099Y120365D01*
X145183Y120365D02*
X145226Y120407D01*
X145226Y120492D01*
X145183Y120534D01*
X145099Y120534D01*
X145056Y120492D01*
X145056Y120450D01*
X145226Y120450D01*
X144992Y120365D02*
X144865Y120365D01*
X144822Y120407D01*
X144865Y120450D01*
X144950Y120450D01*
X144992Y120492D01*
X144950Y120534D01*
X144822Y120534D01*
X144758Y120619D02*
X144758Y120365D01*
X144758Y120450D02*
X144631Y120365D01*
X144758Y120450D02*
X144631Y120534D01*
X144521Y120577D02*
X144521Y120407D01*
X144478Y120365D01*
X144478Y120534D02*
X144563Y120534D01*
X144365Y120365D02*
X144280Y120365D01*
X144238Y120407D01*
X144238Y120492D01*
X144280Y120534D01*
X144365Y120534D01*
X144407Y120492D01*
X144407Y120407D01*
X144365Y120365D01*
X144173Y120280D02*
X144173Y120534D01*
X144046Y120534D01*
X144004Y120492D01*
X144004Y120407D01*
X144046Y120365D01*
X144173Y120365D01*
X143940Y120365D02*
X143770Y120619D01*
X143706Y120619D02*
X143706Y120365D01*
X143706Y120619D02*
X143579Y120619D01*
X143536Y120577D01*
X143536Y120492D01*
X143579Y120450D01*
X143706Y120450D01*
X143621Y120450D02*
X143536Y120365D01*
X143387Y120280D02*
X143345Y120280D01*
X143302Y120323D01*
X143302Y120534D01*
X143429Y120534D01*
X143472Y120492D01*
X143472Y120407D01*
X143429Y120365D01*
X143302Y120365D01*
X143238Y120365D02*
X143238Y120619D01*
X143111Y120619D01*
X143068Y120577D01*
X143068Y120492D01*
X143111Y120450D01*
X143238Y120450D01*
X143153Y120450D02*
X143068Y120365D01*
X143004Y120365D02*
X143004Y120619D01*
X142835Y120619D01*
X142919Y120492D02*
X143004Y120492D01*
X142770Y120534D02*
X142728Y120534D01*
X142728Y120365D01*
X142770Y120365D02*
X142685Y120365D01*
X142728Y120619D02*
X142728Y120662D01*
X142614Y120365D02*
X142487Y120365D01*
X142445Y120407D01*
X142487Y120450D01*
X142572Y120450D01*
X142614Y120492D01*
X142572Y120534D01*
X142445Y120534D01*
X142338Y120577D02*
X142338Y120407D01*
X142296Y120365D01*
X142296Y120534D02*
X142380Y120534D01*
X142224Y120407D02*
X142224Y120365D01*
X142224Y120407D02*
X142182Y120407D01*
X142182Y120365D01*
X142224Y120365D01*
X142108Y120365D02*
X142108Y120619D01*
X142108Y120365D02*
X141980Y120365D01*
X141938Y120407D01*
X141938Y120492D01*
X141980Y120534D01*
X142108Y120534D01*
X141874Y120534D02*
X141874Y120365D01*
X141874Y120534D02*
X141831Y120534D01*
X141789Y120492D01*
X141789Y120365D01*
X141789Y120492D02*
X141747Y120534D01*
X141704Y120492D01*
X141704Y120365D01*
X141640Y120280D02*
X141640Y120534D01*
X141513Y120534D01*
X141470Y120492D01*
X141470Y120407D01*
X141513Y120365D01*
X141640Y120365D01*
M02*
