G04 EAGLE Gerber RS-274X export*
G75*
%MOMM*%
%FSLAX34Y34*%
%LPD*%
%INTop Silkscreen*%
%IPPOS*%
%AMOC8*
5,1,8,0,0,1.08239X$1,22.5*%
G01*
%ADD10C,0.177800*%
%ADD11C,0.203200*%
%ADD12C,0.127000*%

G36*
X32508Y-14D02*
X32508Y-14D01*
X32517Y-15D01*
X32615Y1D01*
X32715Y8D01*
X32747Y20D01*
X32782Y25D01*
X32789Y28D01*
X32798Y29D01*
X32888Y72D01*
X32981Y106D01*
X33009Y127D01*
X33041Y141D01*
X33047Y146D01*
X33055Y150D01*
X33130Y216D01*
X33210Y275D01*
X33229Y300D01*
X33258Y325D01*
X33263Y332D01*
X33269Y337D01*
X33342Y451D01*
X33377Y503D01*
X33408Y546D01*
X35408Y4546D01*
X35411Y4554D01*
X35416Y4561D01*
X35456Y4689D01*
X35498Y4816D01*
X35499Y4824D01*
X35501Y4832D01*
X35505Y4967D01*
X35510Y5100D01*
X35508Y5108D01*
X35509Y5116D01*
X35475Y5246D01*
X35443Y5376D01*
X35439Y5383D01*
X35437Y5391D01*
X35369Y5506D01*
X35302Y5623D01*
X35296Y5629D01*
X35292Y5636D01*
X35194Y5728D01*
X35098Y5821D01*
X35090Y5824D01*
X35084Y5830D01*
X34965Y5891D01*
X34847Y5954D01*
X34839Y5956D01*
X34831Y5960D01*
X34779Y5968D01*
X34569Y6013D01*
X34531Y6010D01*
X34500Y6015D01*
X30500Y6015D01*
X30492Y6014D01*
X30483Y6015D01*
X30351Y5994D01*
X30219Y5975D01*
X30211Y5972D01*
X30202Y5971D01*
X30081Y5914D01*
X29959Y5859D01*
X29953Y5854D01*
X29945Y5850D01*
X29844Y5762D01*
X29742Y5676D01*
X29737Y5668D01*
X29731Y5663D01*
X29659Y5550D01*
X29585Y5439D01*
X29582Y5431D01*
X29577Y5424D01*
X29539Y5295D01*
X29499Y5168D01*
X29499Y5159D01*
X29496Y5151D01*
X29495Y5017D01*
X29491Y4884D01*
X29494Y4875D01*
X29494Y4867D01*
X29509Y4816D01*
X29563Y4609D01*
X29583Y4576D01*
X29592Y4546D01*
X31592Y546D01*
X31649Y464D01*
X31698Y377D01*
X31704Y372D01*
X31708Y364D01*
X31734Y341D01*
X31753Y312D01*
X31831Y249D01*
X31902Y180D01*
X31910Y176D01*
X31916Y170D01*
X31947Y154D01*
X31973Y132D01*
X32065Y93D01*
X32153Y46D01*
X32161Y44D01*
X32169Y40D01*
X32199Y35D01*
X32235Y20D01*
X32334Y8D01*
X32431Y-13D01*
X32470Y-10D01*
X32500Y-15D01*
X32508Y-14D01*
G37*
D10*
X-5611Y81889D02*
X-5611Y89317D01*
X-1897Y89317D01*
X-659Y88079D01*
X-659Y85603D01*
X-1897Y84365D01*
X-5611Y84365D01*
X-3135Y84365D02*
X-659Y81889D01*
X5336Y79413D02*
X6574Y79413D01*
X7812Y80651D01*
X7812Y86841D01*
X4098Y86841D01*
X2860Y85603D01*
X2860Y83127D01*
X4098Y81889D01*
X7812Y81889D01*
X11331Y81889D02*
X11331Y89317D01*
X15046Y89317D01*
X16284Y88079D01*
X16284Y85603D01*
X15046Y84365D01*
X11331Y84365D01*
X13808Y84365D02*
X16284Y81889D01*
X31988Y89317D02*
X33226Y88079D01*
X31988Y89317D02*
X29512Y89317D01*
X28274Y88079D01*
X28274Y83127D01*
X29512Y81889D01*
X31988Y81889D01*
X33226Y83127D01*
X33226Y85603D01*
X30750Y85603D01*
X36745Y81889D02*
X36745Y89317D01*
X40459Y89317D01*
X41697Y88079D01*
X41697Y85603D01*
X40459Y84365D01*
X36745Y84365D01*
X45216Y86841D02*
X46454Y86841D01*
X46454Y81889D01*
X45216Y81889D02*
X47692Y81889D01*
X46454Y89317D02*
X46454Y90555D01*
X50864Y89317D02*
X50864Y81889D01*
X53340Y86841D02*
X50864Y89317D01*
X53340Y86841D02*
X55816Y89317D01*
X55816Y81889D01*
X60573Y86841D02*
X63049Y86841D01*
X64287Y85603D01*
X64287Y81889D01*
X60573Y81889D01*
X59335Y83127D01*
X60573Y84365D01*
X64287Y84365D01*
X69044Y83127D02*
X69044Y88079D01*
X69044Y83127D02*
X70282Y81889D01*
X70282Y86841D02*
X67806Y86841D01*
X74692Y81889D02*
X77168Y81889D01*
X74692Y81889D02*
X73454Y83127D01*
X73454Y85603D01*
X74692Y86841D01*
X77168Y86841D01*
X78406Y85603D01*
X78406Y84365D01*
X73454Y84365D01*
X90396Y85603D02*
X95348Y85603D01*
X107339Y81889D02*
X107339Y89317D01*
X107339Y85603D02*
X112291Y85603D01*
X112291Y89317D02*
X112291Y81889D01*
X115810Y81889D02*
X115810Y89317D01*
X115810Y81889D02*
X119524Y81889D01*
X120762Y83127D01*
X120762Y88079D01*
X119524Y89317D01*
X115810Y89317D01*
X124281Y89317D02*
X124281Y81889D01*
X126757Y86841D02*
X124281Y89317D01*
X126757Y86841D02*
X129233Y89317D01*
X129233Y81889D01*
X132752Y81889D02*
X135228Y81889D01*
X133990Y81889D02*
X133990Y89317D01*
X132752Y89317D02*
X135228Y89317D01*
X146871Y89317D02*
X151823Y89317D01*
X146871Y89317D02*
X146871Y81889D01*
X151823Y81889D01*
X149347Y85603D02*
X146871Y85603D01*
X155342Y86841D02*
X160294Y81889D01*
X155342Y81889D02*
X160294Y86841D01*
X165051Y88079D02*
X165051Y83127D01*
X166289Y81889D01*
X166289Y86841D02*
X163813Y86841D01*
X-2603Y24841D02*
X-2603Y19889D01*
X-2603Y28360D02*
X-2603Y33312D01*
X-2603Y36831D02*
X-2603Y41784D01*
X-6317Y45303D02*
X-2603Y50255D01*
X1111Y45303D01*
X163397Y24841D02*
X163397Y19889D01*
X163397Y28360D02*
X163397Y33312D01*
X163397Y36831D02*
X163397Y41784D01*
X159683Y45303D02*
X163397Y50255D01*
X167111Y45303D01*
D11*
X18500Y8000D02*
X15500Y8000D01*
X18500Y8000D02*
X18500Y5000D01*
X15500Y5000D01*
X15500Y-2000D01*
X144500Y-2000D02*
X144500Y5000D01*
X141500Y5000D01*
X141500Y8000D01*
X144500Y8000D01*
X141500Y8000D02*
X18500Y8000D01*
X15500Y-2000D02*
X144500Y-2000D01*
X15500Y42000D02*
X15500Y52000D01*
X27500Y52000D01*
X144500Y52000D02*
X144500Y42000D01*
X144500Y52000D02*
X132500Y52000D01*
X15500Y12000D02*
X15500Y8000D01*
X144500Y8000D02*
X144500Y12000D01*
D12*
X164000Y104000D02*
X-4000Y104000D01*
X-4000Y225500D01*
X164000Y225500D01*
X164000Y104000D01*
M02*
