G04 EAGLE Gerber RS-274X export*
G75*
%MOMM*%
%FSLAX34Y34*%
%LPD*%
%INTop Copper*%
%IPPOS*%
%AMOC8*
5,1,8,0,0,1.08239X$1,22.5*%
G01*
%ADD10R,1.800000X2.200000*%
%ADD11R,0.300000X1.300000*%
%ADD12C,1.778000*%
%ADD13R,0.280000X2.600000*%
%ADD14C,0.706400*%
%ADD15C,0.203200*%

G36*
X144903Y10161D02*
X144903Y10161D01*
X147000Y10161D01*
X147013Y10164D01*
X147030Y10162D01*
X149292Y10340D01*
X149326Y10351D01*
X149379Y10357D01*
X153682Y11755D01*
X153715Y11775D01*
X153788Y11809D01*
X156510Y13787D01*
X156513Y13791D01*
X156518Y13793D01*
X157448Y14468D01*
X157473Y14497D01*
X157532Y14552D01*
X160191Y18212D01*
X160206Y18248D01*
X160245Y18318D01*
X161643Y22621D01*
X161644Y22634D01*
X161645Y22637D01*
X161645Y22643D01*
X161646Y22656D01*
X161660Y22708D01*
X161838Y24970D01*
X161836Y24983D01*
X161839Y25000D01*
X161839Y27095D01*
X161839Y27097D01*
X161839Y44459D01*
X161828Y44509D01*
X161826Y44560D01*
X161808Y44592D01*
X161800Y44628D01*
X161767Y44667D01*
X161743Y44712D01*
X161713Y44733D01*
X161690Y44761D01*
X161643Y44782D01*
X161601Y44812D01*
X161559Y44820D01*
X161531Y44832D01*
X161501Y44831D01*
X161459Y44839D01*
X153290Y44839D01*
X145697Y47985D01*
X139885Y53797D01*
X138772Y56482D01*
X138765Y56493D01*
X138762Y56505D01*
X138715Y56563D01*
X138671Y56623D01*
X138660Y56629D01*
X138652Y56639D01*
X138584Y56669D01*
X138518Y56704D01*
X138505Y56705D01*
X138493Y56710D01*
X138419Y56707D01*
X138345Y56709D01*
X138333Y56704D01*
X138320Y56703D01*
X138255Y56668D01*
X138188Y56637D01*
X138179Y56627D01*
X138168Y56621D01*
X138126Y56560D01*
X138079Y56502D01*
X138076Y56490D01*
X138068Y56479D01*
X138041Y56337D01*
X138041Y49448D01*
X136441Y47848D01*
X132652Y44059D01*
X131052Y42459D01*
X105948Y42459D01*
X104348Y44059D01*
X99959Y48448D01*
X99959Y51095D01*
X99948Y51145D01*
X99946Y51196D01*
X99928Y51228D01*
X99920Y51264D01*
X99887Y51303D01*
X99863Y51348D01*
X99833Y51369D01*
X99810Y51397D01*
X99763Y51418D01*
X99721Y51448D01*
X99679Y51456D01*
X99651Y51468D01*
X99621Y51467D01*
X99579Y51475D01*
X95368Y51475D01*
X95269Y51575D01*
X95226Y51602D01*
X95188Y51636D01*
X95153Y51647D01*
X95122Y51666D01*
X95071Y51671D01*
X95022Y51686D01*
X94986Y51679D01*
X94949Y51683D01*
X94902Y51665D01*
X94851Y51656D01*
X94816Y51632D01*
X94787Y51621D01*
X94766Y51599D01*
X94731Y51575D01*
X94632Y51475D01*
X90368Y51475D01*
X90269Y51575D01*
X90226Y51602D01*
X90188Y51636D01*
X90153Y51647D01*
X90122Y51666D01*
X90071Y51671D01*
X90022Y51686D01*
X89986Y51679D01*
X89949Y51683D01*
X89902Y51665D01*
X89851Y51656D01*
X89816Y51632D01*
X89787Y51621D01*
X89766Y51599D01*
X89731Y51575D01*
X89632Y51475D01*
X86226Y51475D01*
X86152Y51458D01*
X86077Y51445D01*
X86067Y51438D01*
X86057Y51436D01*
X86028Y51412D01*
X85957Y51364D01*
X85560Y50967D01*
X84981Y50632D01*
X84335Y50459D01*
X83249Y50459D01*
X83249Y59131D01*
X83238Y59180D01*
X83236Y59231D01*
X83218Y59264D01*
X83210Y59300D01*
X83177Y59339D01*
X83153Y59384D01*
X83123Y59405D01*
X83100Y59433D01*
X83053Y59454D01*
X83011Y59483D01*
X82969Y59492D01*
X82947Y59502D01*
X82970Y59503D01*
X83002Y59520D01*
X83038Y59528D01*
X83077Y59561D01*
X83122Y59585D01*
X83143Y59615D01*
X83171Y59639D01*
X83192Y59685D01*
X83222Y59727D01*
X83230Y59769D01*
X83242Y59797D01*
X83241Y59827D01*
X83249Y59869D01*
X83249Y68541D01*
X84334Y68541D01*
X84481Y68502D01*
X84494Y68501D01*
X84507Y68496D01*
X84580Y68498D01*
X84654Y68496D01*
X84666Y68502D01*
X84680Y68502D01*
X84744Y68537D01*
X84811Y68568D01*
X84820Y68578D01*
X84832Y68585D01*
X84874Y68645D01*
X84921Y68702D01*
X84924Y68716D01*
X84932Y68727D01*
X84959Y68869D01*
X84959Y72552D01*
X85348Y72941D01*
X85388Y73006D01*
X85432Y73068D01*
X85434Y73080D01*
X85439Y73088D01*
X85443Y73125D01*
X85459Y73210D01*
X85459Y75948D01*
X85453Y75973D01*
X85456Y75999D01*
X85447Y76024D01*
X85446Y76045D01*
X85430Y76074D01*
X85420Y76117D01*
X85403Y76137D01*
X85394Y76161D01*
X85371Y76183D01*
X85363Y76197D01*
X85341Y76212D01*
X85310Y76251D01*
X85286Y76261D01*
X85267Y76279D01*
X85232Y76289D01*
X85221Y76297D01*
X85196Y76302D01*
X85151Y76321D01*
X85126Y76320D01*
X85101Y76328D01*
X85080Y76324D01*
X85079Y76324D01*
X85075Y76324D01*
X85058Y76320D01*
X85040Y76317D01*
X84978Y76315D01*
X84956Y76302D01*
X84930Y76298D01*
X84913Y76286D01*
X84906Y76285D01*
X84886Y76268D01*
X84859Y76250D01*
X84826Y76232D01*
X84820Y76224D01*
X84810Y76217D01*
X80152Y71559D01*
X80112Y71494D01*
X80068Y71432D01*
X80066Y71420D01*
X80061Y71412D01*
X80057Y71375D01*
X80041Y71290D01*
X80041Y68869D01*
X80044Y68856D01*
X80042Y68842D01*
X80063Y68772D01*
X80080Y68700D01*
X80089Y68690D01*
X80093Y68677D01*
X80143Y68623D01*
X80190Y68566D01*
X80203Y68561D01*
X80212Y68551D01*
X80281Y68526D01*
X80349Y68496D01*
X80362Y68496D01*
X80375Y68491D01*
X80519Y68502D01*
X80666Y68541D01*
X81751Y68541D01*
X81751Y59869D01*
X81762Y59820D01*
X81764Y59769D01*
X81782Y59736D01*
X81790Y59700D01*
X81823Y59661D01*
X81847Y59616D01*
X81877Y59595D01*
X81900Y59567D01*
X81947Y59546D01*
X81989Y59517D01*
X82031Y59508D01*
X82053Y59498D01*
X82030Y59497D01*
X81998Y59480D01*
X81962Y59472D01*
X81923Y59439D01*
X81878Y59415D01*
X81857Y59385D01*
X81829Y59361D01*
X81808Y59315D01*
X81778Y59273D01*
X81770Y59231D01*
X81758Y59203D01*
X81759Y59173D01*
X81751Y59131D01*
X81751Y50459D01*
X80665Y50459D01*
X80019Y50632D01*
X79440Y50967D01*
X79043Y51364D01*
X78978Y51404D01*
X78916Y51448D01*
X78904Y51450D01*
X78896Y51455D01*
X78859Y51459D01*
X78774Y51475D01*
X75368Y51475D01*
X75269Y51575D01*
X75226Y51602D01*
X75188Y51636D01*
X75153Y51647D01*
X75122Y51666D01*
X75071Y51671D01*
X75022Y51686D01*
X74986Y51679D01*
X74949Y51683D01*
X74902Y51665D01*
X74851Y51656D01*
X74816Y51632D01*
X74787Y51621D01*
X74766Y51599D01*
X74731Y51575D01*
X74632Y51475D01*
X71226Y51475D01*
X71152Y51458D01*
X71077Y51445D01*
X71067Y51438D01*
X71057Y51436D01*
X71028Y51412D01*
X70957Y51364D01*
X70560Y50967D01*
X69981Y50632D01*
X69335Y50459D01*
X68249Y50459D01*
X68249Y59131D01*
X68238Y59180D01*
X68236Y59231D01*
X68218Y59264D01*
X68210Y59300D01*
X68177Y59339D01*
X68153Y59384D01*
X68123Y59405D01*
X68100Y59433D01*
X68053Y59454D01*
X68011Y59483D01*
X67969Y59492D01*
X67947Y59502D01*
X67970Y59503D01*
X68002Y59520D01*
X68038Y59528D01*
X68077Y59561D01*
X68122Y59585D01*
X68143Y59615D01*
X68171Y59639D01*
X68192Y59685D01*
X68222Y59727D01*
X68230Y59769D01*
X68242Y59797D01*
X68241Y59827D01*
X68249Y59869D01*
X68249Y68541D01*
X69334Y68541D01*
X69481Y68502D01*
X69494Y68501D01*
X69507Y68496D01*
X69580Y68498D01*
X69654Y68496D01*
X69666Y68502D01*
X69680Y68502D01*
X69744Y68537D01*
X69811Y68568D01*
X69820Y68578D01*
X69832Y68585D01*
X69874Y68645D01*
X69921Y68702D01*
X69924Y68716D01*
X69932Y68727D01*
X69959Y68869D01*
X69959Y73290D01*
X69947Y73341D01*
X69946Y73383D01*
X69935Y73402D01*
X69929Y73439D01*
X69922Y73449D01*
X69920Y73459D01*
X69896Y73488D01*
X69848Y73559D01*
X68968Y74439D01*
X68968Y74457D01*
X68962Y74482D01*
X68965Y74508D01*
X68943Y74566D01*
X68929Y74626D01*
X68912Y74646D01*
X68903Y74670D01*
X68858Y74712D01*
X68819Y74760D01*
X68795Y74770D01*
X68776Y74788D01*
X68717Y74805D01*
X68660Y74830D01*
X68635Y74829D01*
X68610Y74837D01*
X68549Y74826D01*
X68487Y74824D01*
X68465Y74811D01*
X68439Y74807D01*
X68368Y74759D01*
X68335Y74741D01*
X68329Y74733D01*
X68319Y74726D01*
X65152Y71559D01*
X65112Y71494D01*
X65068Y71432D01*
X65066Y71420D01*
X65061Y71412D01*
X65057Y71375D01*
X65041Y71290D01*
X65041Y68869D01*
X65044Y68856D01*
X65042Y68842D01*
X65063Y68772D01*
X65080Y68700D01*
X65089Y68690D01*
X65093Y68677D01*
X65143Y68623D01*
X65190Y68566D01*
X65203Y68561D01*
X65212Y68551D01*
X65281Y68526D01*
X65349Y68496D01*
X65362Y68496D01*
X65375Y68491D01*
X65519Y68502D01*
X65666Y68541D01*
X66751Y68541D01*
X66751Y59869D01*
X66762Y59820D01*
X66764Y59769D01*
X66782Y59736D01*
X66790Y59700D01*
X66823Y59661D01*
X66847Y59616D01*
X66877Y59595D01*
X66900Y59567D01*
X66947Y59546D01*
X66989Y59517D01*
X67031Y59508D01*
X67053Y59498D01*
X67030Y59497D01*
X66998Y59480D01*
X66962Y59472D01*
X66923Y59439D01*
X66878Y59415D01*
X66857Y59385D01*
X66829Y59361D01*
X66808Y59315D01*
X66778Y59273D01*
X66770Y59231D01*
X66758Y59203D01*
X66759Y59173D01*
X66751Y59131D01*
X66751Y50459D01*
X65665Y50459D01*
X65019Y50632D01*
X64440Y50967D01*
X64043Y51364D01*
X63978Y51404D01*
X63916Y51448D01*
X63904Y51450D01*
X63896Y51455D01*
X63859Y51459D01*
X63774Y51475D01*
X60368Y51475D01*
X60269Y51575D01*
X60226Y51602D01*
X60188Y51636D01*
X60153Y51647D01*
X60122Y51666D01*
X60071Y51671D01*
X60022Y51686D01*
X59986Y51679D01*
X59949Y51683D01*
X59902Y51665D01*
X59851Y51656D01*
X59816Y51632D01*
X59787Y51621D01*
X59766Y51599D01*
X59731Y51575D01*
X59632Y51475D01*
X56226Y51475D01*
X56152Y51458D01*
X56077Y51445D01*
X56067Y51438D01*
X56057Y51436D01*
X56028Y51412D01*
X55957Y51364D01*
X55560Y50967D01*
X54981Y50632D01*
X54335Y50459D01*
X53249Y50459D01*
X53249Y59131D01*
X53238Y59180D01*
X53236Y59231D01*
X53218Y59264D01*
X53210Y59300D01*
X53177Y59339D01*
X53153Y59384D01*
X53123Y59405D01*
X53100Y59433D01*
X53053Y59454D01*
X53011Y59483D01*
X52969Y59492D01*
X52947Y59502D01*
X52970Y59503D01*
X53002Y59520D01*
X53038Y59528D01*
X53077Y59561D01*
X53122Y59585D01*
X53143Y59615D01*
X53171Y59639D01*
X53192Y59685D01*
X53222Y59727D01*
X53230Y59769D01*
X53242Y59797D01*
X53241Y59827D01*
X53249Y59869D01*
X53249Y68541D01*
X54334Y68541D01*
X54481Y68502D01*
X54494Y68501D01*
X54507Y68496D01*
X54580Y68498D01*
X54654Y68496D01*
X54666Y68502D01*
X54680Y68502D01*
X54744Y68537D01*
X54811Y68568D01*
X54820Y68578D01*
X54832Y68585D01*
X54874Y68645D01*
X54921Y68702D01*
X54924Y68716D01*
X54932Y68727D01*
X54959Y68869D01*
X54959Y71290D01*
X54942Y71364D01*
X54929Y71439D01*
X54922Y71449D01*
X54920Y71459D01*
X54896Y71488D01*
X54848Y71559D01*
X53019Y73388D01*
X52976Y73415D01*
X52938Y73450D01*
X52903Y73460D01*
X52872Y73479D01*
X52821Y73484D01*
X52772Y73499D01*
X52736Y73492D01*
X52699Y73496D01*
X52652Y73478D01*
X52601Y73469D01*
X52566Y73445D01*
X52537Y73434D01*
X52516Y73412D01*
X52481Y73388D01*
X50152Y71059D01*
X50112Y70994D01*
X50068Y70932D01*
X50066Y70920D01*
X50061Y70912D01*
X50057Y70875D01*
X50041Y70790D01*
X50041Y68869D01*
X50044Y68856D01*
X50042Y68842D01*
X50063Y68772D01*
X50080Y68700D01*
X50089Y68690D01*
X50093Y68677D01*
X50143Y68623D01*
X50190Y68566D01*
X50203Y68561D01*
X50212Y68551D01*
X50281Y68526D01*
X50349Y68496D01*
X50362Y68496D01*
X50375Y68491D01*
X50519Y68502D01*
X50666Y68541D01*
X51751Y68541D01*
X51751Y59869D01*
X51762Y59820D01*
X51764Y59769D01*
X51782Y59736D01*
X51790Y59700D01*
X51823Y59661D01*
X51847Y59616D01*
X51877Y59595D01*
X51900Y59567D01*
X51947Y59546D01*
X51989Y59517D01*
X52031Y59508D01*
X52053Y59498D01*
X52030Y59497D01*
X51998Y59480D01*
X51962Y59472D01*
X51923Y59439D01*
X51878Y59415D01*
X51857Y59385D01*
X51829Y59361D01*
X51808Y59315D01*
X51778Y59273D01*
X51770Y59231D01*
X51758Y59203D01*
X51759Y59173D01*
X51751Y59131D01*
X51751Y50459D01*
X50665Y50459D01*
X50019Y50632D01*
X49440Y50967D01*
X49043Y51364D01*
X48978Y51404D01*
X48916Y51448D01*
X48904Y51450D01*
X48896Y51455D01*
X48859Y51459D01*
X48774Y51475D01*
X45368Y51475D01*
X45269Y51575D01*
X45226Y51602D01*
X45188Y51636D01*
X45153Y51647D01*
X45122Y51666D01*
X45071Y51671D01*
X45022Y51686D01*
X44986Y51679D01*
X44949Y51683D01*
X44902Y51665D01*
X44851Y51656D01*
X44816Y51632D01*
X44787Y51621D01*
X44766Y51599D01*
X44731Y51575D01*
X44632Y51475D01*
X41226Y51475D01*
X41152Y51458D01*
X41077Y51445D01*
X41067Y51438D01*
X41057Y51436D01*
X41028Y51412D01*
X40957Y51364D01*
X40560Y50967D01*
X39981Y50632D01*
X39335Y50459D01*
X38249Y50459D01*
X38249Y59131D01*
X38238Y59180D01*
X38236Y59231D01*
X38218Y59264D01*
X38210Y59300D01*
X38177Y59339D01*
X38153Y59384D01*
X38123Y59405D01*
X38100Y59433D01*
X38053Y59454D01*
X38011Y59483D01*
X37969Y59492D01*
X37947Y59502D01*
X37970Y59503D01*
X38002Y59520D01*
X38038Y59528D01*
X38077Y59561D01*
X38122Y59585D01*
X38143Y59615D01*
X38171Y59639D01*
X38192Y59685D01*
X38222Y59727D01*
X38230Y59769D01*
X38242Y59797D01*
X38241Y59827D01*
X38249Y59869D01*
X38249Y68541D01*
X39334Y68541D01*
X39481Y68502D01*
X39494Y68501D01*
X39507Y68496D01*
X39580Y68498D01*
X39654Y68496D01*
X39666Y68502D01*
X39680Y68502D01*
X39744Y68537D01*
X39811Y68568D01*
X39820Y68578D01*
X39832Y68585D01*
X39874Y68645D01*
X39921Y68702D01*
X39924Y68716D01*
X39932Y68727D01*
X39959Y68869D01*
X39959Y73290D01*
X39947Y73341D01*
X39946Y73383D01*
X39935Y73402D01*
X39929Y73439D01*
X39922Y73449D01*
X39920Y73459D01*
X39896Y73488D01*
X39848Y73559D01*
X37769Y75638D01*
X37726Y75665D01*
X37688Y75700D01*
X37653Y75710D01*
X37622Y75729D01*
X37571Y75734D01*
X37522Y75749D01*
X37486Y75742D01*
X37449Y75746D01*
X37402Y75728D01*
X37351Y75719D01*
X37316Y75695D01*
X37287Y75684D01*
X37266Y75662D01*
X37231Y75638D01*
X35152Y73559D01*
X35129Y73521D01*
X35119Y73513D01*
X35107Y73488D01*
X35068Y73432D01*
X35066Y73420D01*
X35061Y73412D01*
X35057Y73376D01*
X35048Y73355D01*
X35049Y73331D01*
X35041Y73290D01*
X35041Y68869D01*
X35044Y68856D01*
X35042Y68842D01*
X35063Y68772D01*
X35080Y68700D01*
X35089Y68690D01*
X35093Y68677D01*
X35143Y68623D01*
X35190Y68566D01*
X35203Y68561D01*
X35212Y68551D01*
X35281Y68526D01*
X35349Y68496D01*
X35362Y68496D01*
X35375Y68491D01*
X35519Y68502D01*
X35666Y68541D01*
X36751Y68541D01*
X36751Y59869D01*
X36762Y59820D01*
X36764Y59769D01*
X36782Y59736D01*
X36790Y59700D01*
X36823Y59661D01*
X36847Y59616D01*
X36877Y59595D01*
X36900Y59567D01*
X36947Y59546D01*
X36989Y59517D01*
X37031Y59508D01*
X37053Y59498D01*
X37030Y59497D01*
X36998Y59480D01*
X36962Y59472D01*
X36923Y59439D01*
X36878Y59415D01*
X36857Y59385D01*
X36829Y59361D01*
X36808Y59315D01*
X36778Y59273D01*
X36770Y59231D01*
X36758Y59203D01*
X36759Y59173D01*
X36751Y59131D01*
X36751Y50459D01*
X35665Y50459D01*
X35019Y50632D01*
X34440Y50967D01*
X34043Y51364D01*
X33978Y51404D01*
X33916Y51448D01*
X33904Y51450D01*
X33896Y51455D01*
X33859Y51459D01*
X33774Y51475D01*
X30368Y51475D01*
X29475Y52368D01*
X29475Y66632D01*
X29848Y67004D01*
X29888Y67069D01*
X29932Y67131D01*
X29934Y67143D01*
X29939Y67151D01*
X29943Y67188D01*
X29959Y67273D01*
X29959Y75552D01*
X32348Y77941D01*
X32381Y77995D01*
X32382Y77995D01*
X32388Y78006D01*
X32432Y78068D01*
X32434Y78080D01*
X32439Y78088D01*
X32443Y78125D01*
X32445Y78137D01*
X32452Y78153D01*
X32452Y78171D01*
X32459Y78210D01*
X32459Y107827D01*
X32442Y107901D01*
X32429Y107976D01*
X32422Y107986D01*
X32420Y107996D01*
X32396Y108024D01*
X32348Y108096D01*
X32075Y108368D01*
X32075Y135632D01*
X32968Y136525D01*
X36374Y136525D01*
X36448Y136542D01*
X36523Y136555D01*
X36533Y136562D01*
X36543Y136564D01*
X36572Y136588D01*
X36643Y136636D01*
X37040Y137033D01*
X37619Y137368D01*
X38265Y137541D01*
X39301Y137541D01*
X39301Y122319D01*
X39312Y122270D01*
X39314Y122219D01*
X39332Y122186D01*
X39340Y122150D01*
X39373Y122111D01*
X39397Y122066D01*
X39427Y122045D01*
X39450Y122017D01*
X39487Y122001D01*
X39473Y121989D01*
X39428Y121965D01*
X39407Y121935D01*
X39379Y121911D01*
X39358Y121865D01*
X39328Y121823D01*
X39320Y121781D01*
X39308Y121753D01*
X39309Y121723D01*
X39301Y121681D01*
X39301Y106459D01*
X38265Y106459D01*
X38019Y106525D01*
X38006Y106526D01*
X37993Y106531D01*
X37920Y106528D01*
X37846Y106531D01*
X37834Y106525D01*
X37820Y106525D01*
X37756Y106489D01*
X37689Y106459D01*
X37680Y106448D01*
X37668Y106442D01*
X37626Y106382D01*
X37579Y106325D01*
X37576Y106311D01*
X37568Y106300D01*
X37541Y106158D01*
X37541Y99837D01*
X37547Y99812D01*
X37544Y99786D01*
X37566Y99728D01*
X37580Y99668D01*
X37597Y99648D01*
X37606Y99624D01*
X37651Y99582D01*
X37690Y99534D01*
X37714Y99524D01*
X37733Y99506D01*
X37792Y99489D01*
X37849Y99464D01*
X37874Y99465D01*
X37899Y99457D01*
X37960Y99468D01*
X38022Y99470D01*
X38044Y99483D01*
X38070Y99487D01*
X38141Y99535D01*
X38174Y99553D01*
X38180Y99561D01*
X38190Y99568D01*
X42687Y104065D01*
X42727Y104130D01*
X42771Y104192D01*
X42773Y104204D01*
X42778Y104212D01*
X42782Y104249D01*
X42798Y104334D01*
X42798Y106249D01*
X42795Y106262D01*
X42797Y106275D01*
X42776Y106346D01*
X42759Y106417D01*
X42750Y106428D01*
X42746Y106441D01*
X42695Y106494D01*
X42649Y106551D01*
X42636Y106557D01*
X42627Y106567D01*
X42558Y106592D01*
X42490Y106622D01*
X42477Y106622D01*
X42464Y106626D01*
X42320Y106616D01*
X42317Y106615D01*
X41735Y106459D01*
X40699Y106459D01*
X40699Y121681D01*
X40688Y121730D01*
X40686Y121781D01*
X40668Y121814D01*
X40660Y121850D01*
X40627Y121889D01*
X40603Y121934D01*
X40573Y121955D01*
X40550Y121983D01*
X40513Y121999D01*
X40527Y122011D01*
X40572Y122035D01*
X40593Y122065D01*
X40621Y122089D01*
X40642Y122135D01*
X40672Y122177D01*
X40680Y122219D01*
X40692Y122247D01*
X40692Y122261D01*
X40692Y122262D01*
X40692Y122280D01*
X40699Y122319D01*
X40699Y137541D01*
X41735Y137541D01*
X42381Y137368D01*
X42960Y137033D01*
X43357Y136636D01*
X43422Y136596D01*
X43484Y136552D01*
X43496Y136550D01*
X43504Y136545D01*
X43541Y136541D01*
X43626Y136525D01*
X47032Y136525D01*
X47231Y136325D01*
X47275Y136298D01*
X47312Y136264D01*
X47347Y136253D01*
X47378Y136234D01*
X47429Y136229D01*
X47478Y136214D01*
X47514Y136221D01*
X47551Y136217D01*
X47598Y136235D01*
X47649Y136244D01*
X47684Y136268D01*
X47713Y136279D01*
X47733Y136301D01*
X47769Y136325D01*
X47968Y136525D01*
X51374Y136525D01*
X51448Y136542D01*
X51523Y136555D01*
X51533Y136562D01*
X51543Y136564D01*
X51572Y136588D01*
X51643Y136636D01*
X52040Y137033D01*
X52619Y137368D01*
X53265Y137541D01*
X54301Y137541D01*
X54301Y122319D01*
X54312Y122270D01*
X54314Y122219D01*
X54332Y122186D01*
X54340Y122150D01*
X54373Y122111D01*
X54397Y122066D01*
X54427Y122045D01*
X54450Y122017D01*
X54487Y122001D01*
X54473Y121989D01*
X54428Y121965D01*
X54407Y121935D01*
X54379Y121911D01*
X54358Y121865D01*
X54328Y121823D01*
X54320Y121781D01*
X54308Y121753D01*
X54309Y121723D01*
X54301Y121681D01*
X54301Y106459D01*
X53265Y106459D01*
X52803Y106583D01*
X52790Y106584D01*
X52777Y106589D01*
X52704Y106586D01*
X52630Y106589D01*
X52618Y106583D01*
X52604Y106582D01*
X52540Y106547D01*
X52473Y106517D01*
X52464Y106506D01*
X52452Y106500D01*
X52410Y106440D01*
X52363Y106382D01*
X52360Y106369D01*
X52352Y106358D01*
X52325Y106216D01*
X52325Y104223D01*
X52342Y104149D01*
X52355Y104074D01*
X52362Y104064D01*
X52364Y104054D01*
X52388Y104025D01*
X52436Y103954D01*
X53294Y103097D01*
X53337Y103070D01*
X53374Y103035D01*
X53410Y103024D01*
X53441Y103005D01*
X53492Y103000D01*
X53541Y102986D01*
X53577Y102992D01*
X53613Y102989D01*
X53661Y103007D01*
X53711Y103015D01*
X53747Y103039D01*
X53775Y103050D01*
X53796Y103073D01*
X53831Y103097D01*
X53955Y103220D01*
X56545Y105810D01*
X56559Y105832D01*
X56579Y105848D01*
X56604Y105905D01*
X56636Y105957D01*
X56639Y105983D01*
X56649Y106007D01*
X56647Y106068D01*
X56653Y106130D01*
X56644Y106154D01*
X56643Y106180D01*
X56613Y106234D01*
X56591Y106292D01*
X56572Y106309D01*
X56560Y106332D01*
X56510Y106367D01*
X56464Y106409D01*
X56439Y106417D01*
X56418Y106432D01*
X56334Y106448D01*
X56298Y106459D01*
X56288Y106457D01*
X56276Y106459D01*
X55699Y106459D01*
X55699Y121681D01*
X55688Y121730D01*
X55686Y121781D01*
X55668Y121814D01*
X55660Y121850D01*
X55627Y121889D01*
X55603Y121934D01*
X55573Y121955D01*
X55550Y121983D01*
X55513Y121999D01*
X55527Y122011D01*
X55572Y122035D01*
X55593Y122065D01*
X55621Y122089D01*
X55642Y122135D01*
X55672Y122177D01*
X55680Y122219D01*
X55692Y122247D01*
X55692Y122261D01*
X55692Y122262D01*
X55692Y122280D01*
X55699Y122319D01*
X55699Y137541D01*
X56735Y137541D01*
X57381Y137368D01*
X57960Y137033D01*
X58357Y136636D01*
X58422Y136596D01*
X58484Y136552D01*
X58496Y136550D01*
X58504Y136545D01*
X58541Y136541D01*
X58626Y136525D01*
X62032Y136525D01*
X62231Y136325D01*
X62275Y136298D01*
X62312Y136264D01*
X62347Y136253D01*
X62378Y136234D01*
X62429Y136229D01*
X62478Y136214D01*
X62514Y136221D01*
X62551Y136217D01*
X62598Y136235D01*
X62649Y136244D01*
X62684Y136268D01*
X62713Y136279D01*
X62733Y136301D01*
X62769Y136325D01*
X62968Y136525D01*
X66374Y136525D01*
X66448Y136542D01*
X66523Y136555D01*
X66533Y136562D01*
X66543Y136564D01*
X66572Y136588D01*
X66643Y136636D01*
X67040Y137033D01*
X67619Y137368D01*
X68265Y137541D01*
X69301Y137541D01*
X69301Y122319D01*
X69312Y122270D01*
X69314Y122219D01*
X69332Y122186D01*
X69340Y122150D01*
X69373Y122111D01*
X69397Y122066D01*
X69427Y122045D01*
X69450Y122017D01*
X69487Y122001D01*
X69473Y121989D01*
X69428Y121965D01*
X69407Y121935D01*
X69379Y121911D01*
X69358Y121865D01*
X69328Y121823D01*
X69320Y121781D01*
X69308Y121753D01*
X69309Y121723D01*
X69301Y121681D01*
X69301Y106459D01*
X68265Y106459D01*
X67916Y106553D01*
X67903Y106553D01*
X67890Y106559D01*
X67817Y106556D01*
X67743Y106558D01*
X67731Y106553D01*
X67717Y106552D01*
X67653Y106517D01*
X67586Y106486D01*
X67577Y106476D01*
X67565Y106469D01*
X67523Y106409D01*
X67476Y106352D01*
X67473Y106339D01*
X67465Y106328D01*
X67438Y106186D01*
X67438Y103223D01*
X67455Y103149D01*
X67468Y103074D01*
X67475Y103064D01*
X67477Y103054D01*
X67501Y103025D01*
X67549Y102954D01*
X68727Y101776D01*
X69407Y101097D01*
X69450Y101070D01*
X69487Y101035D01*
X69523Y101025D01*
X69554Y101005D01*
X69605Y101000D01*
X69654Y100986D01*
X69690Y100992D01*
X69726Y100989D01*
X69774Y101007D01*
X69824Y101015D01*
X69860Y101039D01*
X69888Y101050D01*
X69909Y101073D01*
X69944Y101097D01*
X72024Y103176D01*
X72064Y103241D01*
X72108Y103303D01*
X72110Y103315D01*
X72115Y103323D01*
X72119Y103360D01*
X72135Y103445D01*
X72135Y106079D01*
X72124Y106129D01*
X72122Y106180D01*
X72104Y106212D01*
X72096Y106248D01*
X72063Y106287D01*
X72039Y106332D01*
X72009Y106353D01*
X71986Y106381D01*
X71939Y106402D01*
X71897Y106432D01*
X71855Y106440D01*
X71827Y106452D01*
X71797Y106451D01*
X71755Y106459D01*
X70699Y106459D01*
X70699Y121681D01*
X70688Y121730D01*
X70686Y121781D01*
X70668Y121814D01*
X70660Y121850D01*
X70627Y121889D01*
X70603Y121934D01*
X70573Y121955D01*
X70550Y121983D01*
X70513Y121999D01*
X70527Y122011D01*
X70572Y122035D01*
X70593Y122065D01*
X70621Y122089D01*
X70642Y122135D01*
X70672Y122177D01*
X70680Y122219D01*
X70692Y122247D01*
X70692Y122261D01*
X70692Y122262D01*
X70692Y122280D01*
X70699Y122319D01*
X70699Y137541D01*
X71735Y137541D01*
X72381Y137368D01*
X72960Y137033D01*
X73357Y136636D01*
X73422Y136596D01*
X73484Y136552D01*
X73496Y136550D01*
X73504Y136545D01*
X73541Y136541D01*
X73626Y136525D01*
X77032Y136525D01*
X77231Y136325D01*
X77275Y136298D01*
X77312Y136264D01*
X77347Y136253D01*
X77378Y136234D01*
X77429Y136229D01*
X77478Y136214D01*
X77514Y136221D01*
X77551Y136217D01*
X77598Y136235D01*
X77649Y136244D01*
X77684Y136268D01*
X77713Y136279D01*
X77733Y136301D01*
X77769Y136325D01*
X77968Y136525D01*
X81374Y136525D01*
X81448Y136542D01*
X81523Y136555D01*
X81533Y136562D01*
X81543Y136564D01*
X81572Y136588D01*
X81643Y136636D01*
X82040Y137033D01*
X82619Y137368D01*
X83265Y137541D01*
X84301Y137541D01*
X84301Y122319D01*
X84312Y122270D01*
X84314Y122219D01*
X84332Y122186D01*
X84340Y122150D01*
X84373Y122111D01*
X84397Y122066D01*
X84427Y122045D01*
X84450Y122017D01*
X84487Y122001D01*
X84473Y121989D01*
X84428Y121965D01*
X84407Y121935D01*
X84379Y121911D01*
X84358Y121865D01*
X84328Y121823D01*
X84320Y121781D01*
X84308Y121753D01*
X84309Y121723D01*
X84301Y121681D01*
X84301Y106459D01*
X83265Y106459D01*
X83029Y106523D01*
X83016Y106523D01*
X83003Y106529D01*
X82930Y106526D01*
X82856Y106528D01*
X82844Y106522D01*
X82830Y106522D01*
X82766Y106487D01*
X82699Y106456D01*
X82690Y106446D01*
X82678Y106439D01*
X82636Y106379D01*
X82589Y106322D01*
X82586Y106309D01*
X82578Y106297D01*
X82551Y106155D01*
X82551Y104223D01*
X82568Y104149D01*
X82581Y104074D01*
X82588Y104064D01*
X82590Y104054D01*
X82614Y104025D01*
X82662Y103954D01*
X85340Y101276D01*
X86810Y99806D01*
X86832Y99792D01*
X86848Y99772D01*
X86905Y99747D01*
X86957Y99715D01*
X86983Y99712D01*
X87007Y99702D01*
X87068Y99704D01*
X87130Y99698D01*
X87154Y99707D01*
X87180Y99708D01*
X87234Y99738D01*
X87292Y99760D01*
X87309Y99779D01*
X87332Y99791D01*
X87367Y99841D01*
X87409Y99887D01*
X87417Y99912D01*
X87432Y99933D01*
X87448Y100017D01*
X87459Y100053D01*
X87457Y100063D01*
X87459Y100075D01*
X87459Y106158D01*
X87456Y106171D01*
X87458Y106185D01*
X87437Y106255D01*
X87420Y106327D01*
X87411Y106337D01*
X87407Y106350D01*
X87356Y106403D01*
X87310Y106460D01*
X87297Y106466D01*
X87288Y106476D01*
X87219Y106501D01*
X87151Y106531D01*
X87138Y106531D01*
X87125Y106535D01*
X86981Y106525D01*
X86978Y106525D01*
X86735Y106459D01*
X85699Y106459D01*
X85699Y121681D01*
X85688Y121730D01*
X85686Y121781D01*
X85668Y121814D01*
X85660Y121850D01*
X85627Y121889D01*
X85603Y121934D01*
X85573Y121955D01*
X85550Y121983D01*
X85513Y121999D01*
X85527Y122011D01*
X85572Y122035D01*
X85593Y122065D01*
X85621Y122089D01*
X85642Y122135D01*
X85672Y122177D01*
X85680Y122219D01*
X85692Y122247D01*
X85692Y122261D01*
X85692Y122262D01*
X85692Y122280D01*
X85699Y122319D01*
X85699Y137541D01*
X86735Y137541D01*
X87381Y137368D01*
X87960Y137033D01*
X88357Y136636D01*
X88422Y136596D01*
X88484Y136552D01*
X88496Y136550D01*
X88504Y136545D01*
X88541Y136541D01*
X88626Y136525D01*
X92032Y136525D01*
X92231Y136325D01*
X92274Y136298D01*
X92312Y136264D01*
X92347Y136253D01*
X92378Y136234D01*
X92429Y136229D01*
X92478Y136214D01*
X92514Y136221D01*
X92551Y136217D01*
X92598Y136235D01*
X92649Y136244D01*
X92684Y136268D01*
X92713Y136279D01*
X92733Y136301D01*
X92769Y136325D01*
X92968Y136525D01*
X97032Y136525D01*
X97231Y136325D01*
X97274Y136298D01*
X97312Y136264D01*
X97347Y136253D01*
X97378Y136234D01*
X97429Y136229D01*
X97478Y136214D01*
X97514Y136221D01*
X97551Y136217D01*
X97598Y136235D01*
X97649Y136244D01*
X97684Y136268D01*
X97713Y136279D01*
X97733Y136301D01*
X97769Y136325D01*
X97968Y136525D01*
X102079Y136525D01*
X102129Y136536D01*
X102180Y136538D01*
X102212Y136556D01*
X102248Y136564D01*
X102287Y136597D01*
X102332Y136621D01*
X102353Y136651D01*
X102381Y136674D01*
X102402Y136721D01*
X102432Y136763D01*
X102440Y136805D01*
X102452Y136833D01*
X102451Y136863D01*
X102459Y136905D01*
X102459Y144552D01*
X109848Y151941D01*
X111448Y153541D01*
X126052Y153541D01*
X138041Y141552D01*
X138041Y74663D01*
X138044Y74651D01*
X138042Y74638D01*
X138063Y74567D01*
X138080Y74495D01*
X138088Y74485D01*
X138092Y74472D01*
X138143Y74418D01*
X138190Y74361D01*
X138202Y74356D01*
X138211Y74346D01*
X138281Y74320D01*
X138349Y74290D01*
X138362Y74291D01*
X138374Y74286D01*
X138447Y74294D01*
X138522Y74297D01*
X138533Y74303D01*
X138546Y74304D01*
X138609Y74344D01*
X138674Y74379D01*
X138681Y74390D01*
X138692Y74397D01*
X138772Y74518D01*
X139885Y77203D01*
X145697Y83015D01*
X153290Y86161D01*
X161459Y86161D01*
X161509Y86172D01*
X161560Y86174D01*
X161592Y86192D01*
X161628Y86200D01*
X161667Y86233D01*
X161712Y86257D01*
X161733Y86287D01*
X161761Y86310D01*
X161782Y86357D01*
X161812Y86399D01*
X161820Y86441D01*
X161832Y86469D01*
X161831Y86499D01*
X161839Y86541D01*
X161839Y114803D01*
X161833Y114828D01*
X161836Y114853D01*
X161814Y114911D01*
X161800Y114971D01*
X161783Y114991D01*
X161774Y115015D01*
X161729Y115057D01*
X161690Y115105D01*
X161666Y115116D01*
X161647Y115133D01*
X161588Y115151D01*
X161531Y115176D01*
X161506Y115175D01*
X161481Y115182D01*
X161420Y115172D01*
X161358Y115169D01*
X161336Y115157D01*
X161310Y115153D01*
X161239Y115104D01*
X161206Y115087D01*
X161200Y115078D01*
X161190Y115072D01*
X158399Y112281D01*
X154572Y110695D01*
X150428Y110695D01*
X146601Y112281D01*
X143671Y115211D01*
X142085Y119038D01*
X142085Y140962D01*
X143671Y144789D01*
X146601Y147719D01*
X150428Y149305D01*
X154572Y149305D01*
X158399Y147719D01*
X161190Y144928D01*
X161212Y144915D01*
X161228Y144895D01*
X161285Y144870D01*
X161337Y144837D01*
X161363Y144835D01*
X161387Y144824D01*
X161448Y144826D01*
X161510Y144821D01*
X161534Y144830D01*
X161560Y144831D01*
X161614Y144860D01*
X161672Y144882D01*
X161689Y144901D01*
X161712Y144913D01*
X161747Y144964D01*
X161789Y145009D01*
X161797Y145034D01*
X161812Y145055D01*
X161828Y145140D01*
X161839Y145175D01*
X161837Y145185D01*
X161839Y145197D01*
X161839Y174803D01*
X161833Y174828D01*
X161836Y174853D01*
X161814Y174911D01*
X161800Y174971D01*
X161783Y174991D01*
X161774Y175015D01*
X161729Y175057D01*
X161690Y175105D01*
X161666Y175116D01*
X161647Y175133D01*
X161588Y175151D01*
X161531Y175176D01*
X161506Y175175D01*
X161481Y175182D01*
X161420Y175172D01*
X161358Y175169D01*
X161336Y175157D01*
X161310Y175153D01*
X161239Y175104D01*
X161206Y175087D01*
X161200Y175078D01*
X161190Y175072D01*
X158399Y172281D01*
X154572Y170695D01*
X150428Y170695D01*
X146601Y172281D01*
X143671Y175211D01*
X142085Y179038D01*
X142085Y200962D01*
X143671Y204789D01*
X146601Y207719D01*
X149472Y208909D01*
X149505Y208932D01*
X149543Y208947D01*
X149575Y208982D01*
X149613Y209010D01*
X149632Y209046D01*
X149659Y209076D01*
X149672Y209121D01*
X149694Y209163D01*
X149695Y209203D01*
X149706Y209242D01*
X149698Y209289D01*
X149699Y209336D01*
X149682Y209373D01*
X149675Y209413D01*
X149647Y209450D01*
X149627Y209493D01*
X149595Y209519D01*
X149571Y209551D01*
X149521Y209579D01*
X149492Y209602D01*
X149470Y209607D01*
X149444Y209622D01*
X149379Y209643D01*
X149344Y209646D01*
X149292Y209660D01*
X147030Y209838D01*
X147017Y209836D01*
X147000Y209839D01*
X144903Y209839D01*
X15097Y209839D01*
X13000Y209839D01*
X12987Y209836D01*
X12970Y209838D01*
X10708Y209660D01*
X10674Y209649D01*
X10621Y209643D01*
X10556Y209622D01*
X10521Y209601D01*
X10482Y209589D01*
X10448Y209556D01*
X10408Y209532D01*
X10386Y209498D01*
X10356Y209470D01*
X10340Y209426D01*
X10315Y209386D01*
X10310Y209345D01*
X10296Y209307D01*
X10301Y209260D01*
X10296Y209214D01*
X10310Y209175D01*
X10314Y209135D01*
X10339Y209095D01*
X10356Y209051D01*
X10385Y209023D01*
X10407Y208989D01*
X10455Y208957D01*
X10481Y208932D01*
X10503Y208925D01*
X10528Y208909D01*
X13399Y207719D01*
X16329Y204789D01*
X17915Y200962D01*
X17915Y179038D01*
X16329Y175211D01*
X13399Y172281D01*
X9572Y170695D01*
X5428Y170695D01*
X1601Y172281D01*
X-1190Y175072D01*
X-1212Y175085D01*
X-1228Y175105D01*
X-1285Y175130D01*
X-1337Y175163D01*
X-1363Y175165D01*
X-1387Y175176D01*
X-1448Y175174D01*
X-1510Y175179D01*
X-1534Y175170D01*
X-1560Y175169D01*
X-1614Y175140D01*
X-1672Y175118D01*
X-1689Y175099D01*
X-1712Y175087D01*
X-1747Y175036D01*
X-1789Y174991D01*
X-1797Y174966D01*
X-1812Y174945D01*
X-1828Y174860D01*
X-1839Y174825D01*
X-1837Y174815D01*
X-1839Y174803D01*
X-1839Y145197D01*
X-1833Y145172D01*
X-1836Y145147D01*
X-1814Y145089D01*
X-1800Y145029D01*
X-1783Y145009D01*
X-1774Y144985D01*
X-1729Y144943D01*
X-1690Y144895D01*
X-1666Y144884D01*
X-1647Y144867D01*
X-1588Y144849D01*
X-1531Y144824D01*
X-1506Y144825D01*
X-1481Y144818D01*
X-1420Y144828D01*
X-1358Y144831D01*
X-1336Y144843D01*
X-1310Y144847D01*
X-1239Y144896D01*
X-1206Y144913D01*
X-1200Y144922D01*
X-1190Y144928D01*
X1601Y147719D01*
X5428Y149305D01*
X9572Y149305D01*
X13399Y147719D01*
X16329Y144789D01*
X17915Y140962D01*
X17915Y119038D01*
X16329Y115211D01*
X13399Y112281D01*
X9572Y110695D01*
X5428Y110695D01*
X1601Y112281D01*
X-1190Y115072D01*
X-1212Y115085D01*
X-1228Y115105D01*
X-1285Y115130D01*
X-1337Y115163D01*
X-1363Y115165D01*
X-1387Y115176D01*
X-1448Y115174D01*
X-1510Y115179D01*
X-1534Y115170D01*
X-1560Y115169D01*
X-1614Y115140D01*
X-1672Y115118D01*
X-1689Y115099D01*
X-1712Y115087D01*
X-1747Y115036D01*
X-1789Y114991D01*
X-1797Y114966D01*
X-1812Y114945D01*
X-1828Y114860D01*
X-1839Y114825D01*
X-1837Y114815D01*
X-1839Y114803D01*
X-1839Y86220D01*
X-1830Y86183D01*
X-1832Y86145D01*
X-1811Y86100D01*
X-1800Y86052D01*
X-1775Y86022D01*
X-1759Y85987D01*
X-1721Y85956D01*
X-1690Y85918D01*
X-1654Y85902D01*
X-1625Y85878D01*
X-1576Y85867D01*
X-1531Y85847D01*
X-1493Y85849D01*
X-1455Y85840D01*
X-1396Y85852D01*
X-1358Y85854D01*
X-1340Y85864D01*
X-1313Y85869D01*
X-610Y86161D01*
X7610Y86161D01*
X15203Y83015D01*
X21015Y77203D01*
X24161Y69610D01*
X24161Y61390D01*
X21015Y53797D01*
X15203Y47985D01*
X7610Y44839D01*
X-610Y44839D01*
X-1313Y45131D01*
X-1351Y45137D01*
X-1387Y45153D01*
X-1436Y45151D01*
X-1484Y45159D01*
X-1521Y45148D01*
X-1560Y45146D01*
X-1603Y45123D01*
X-1650Y45108D01*
X-1678Y45082D01*
X-1712Y45063D01*
X-1740Y45023D01*
X-1776Y44989D01*
X-1790Y44953D01*
X-1812Y44922D01*
X-1823Y44862D01*
X-1836Y44827D01*
X-1834Y44806D01*
X-1839Y44780D01*
X-1839Y27097D01*
X-1839Y25000D01*
X-1836Y24987D01*
X-1838Y24970D01*
X-1660Y22708D01*
X-1649Y22674D01*
X-1643Y22621D01*
X-245Y18318D01*
X-225Y18285D01*
X-191Y18212D01*
X2468Y14552D01*
X2497Y14527D01*
X2552Y14468D01*
X3482Y13793D01*
X3486Y13791D01*
X3490Y13787D01*
X6212Y11809D01*
X6248Y11794D01*
X6318Y11755D01*
X10621Y10357D01*
X10656Y10354D01*
X10708Y10340D01*
X12970Y10162D01*
X12983Y10164D01*
X13000Y10161D01*
X15095Y10161D01*
X15097Y10161D01*
X144903Y10161D01*
X144903Y10161D01*
G37*
G36*
X128864Y47558D02*
X128864Y47558D01*
X128939Y47571D01*
X128949Y47578D01*
X128959Y47580D01*
X128988Y47604D01*
X129059Y47652D01*
X132848Y51441D01*
X132888Y51506D01*
X132932Y51568D01*
X132934Y51580D01*
X132939Y51588D01*
X132943Y51625D01*
X132959Y51710D01*
X132959Y139290D01*
X132942Y139364D01*
X132929Y139439D01*
X132922Y139449D01*
X132920Y139459D01*
X132896Y139488D01*
X132848Y139559D01*
X124059Y148348D01*
X123994Y148388D01*
X123932Y148432D01*
X123920Y148434D01*
X123912Y148439D01*
X123875Y148443D01*
X123790Y148459D01*
X113710Y148459D01*
X113636Y148442D01*
X113561Y148429D01*
X113551Y148422D01*
X113541Y148420D01*
X113512Y148396D01*
X113441Y148348D01*
X107652Y142559D01*
X107612Y142494D01*
X107568Y142432D01*
X107566Y142420D01*
X107561Y142412D01*
X107557Y142375D01*
X107541Y142290D01*
X107541Y136905D01*
X107552Y136855D01*
X107554Y136804D01*
X107572Y136772D01*
X107580Y136736D01*
X107613Y136697D01*
X107637Y136652D01*
X107667Y136631D01*
X107690Y136603D01*
X107737Y136582D01*
X107779Y136552D01*
X107821Y136544D01*
X107849Y136532D01*
X107879Y136533D01*
X107921Y136525D01*
X111374Y136525D01*
X111448Y136542D01*
X111523Y136555D01*
X111533Y136562D01*
X111543Y136564D01*
X111572Y136588D01*
X111643Y136636D01*
X112040Y137033D01*
X112619Y137368D01*
X113265Y137541D01*
X114301Y137541D01*
X114301Y122319D01*
X114312Y122270D01*
X114314Y122219D01*
X114332Y122186D01*
X114340Y122150D01*
X114373Y122111D01*
X114397Y122066D01*
X114427Y122045D01*
X114450Y122017D01*
X114487Y122001D01*
X114473Y121989D01*
X114428Y121965D01*
X114407Y121935D01*
X114379Y121911D01*
X114358Y121865D01*
X114328Y121823D01*
X114320Y121781D01*
X114308Y121753D01*
X114309Y121723D01*
X114301Y121681D01*
X114301Y106459D01*
X113265Y106459D01*
X113019Y106525D01*
X113006Y106526D01*
X112993Y106531D01*
X112920Y106528D01*
X112846Y106531D01*
X112834Y106525D01*
X112820Y106525D01*
X112756Y106489D01*
X112689Y106459D01*
X112680Y106448D01*
X112668Y106442D01*
X112626Y106382D01*
X112579Y106325D01*
X112576Y106311D01*
X112568Y106300D01*
X112541Y106158D01*
X112541Y74948D01*
X110152Y72559D01*
X110112Y72494D01*
X110068Y72432D01*
X110066Y72420D01*
X110061Y72412D01*
X110057Y72375D01*
X110041Y72290D01*
X110041Y68869D01*
X110044Y68856D01*
X110042Y68842D01*
X110063Y68772D01*
X110080Y68700D01*
X110089Y68690D01*
X110093Y68677D01*
X110143Y68623D01*
X110190Y68566D01*
X110203Y68561D01*
X110212Y68551D01*
X110281Y68526D01*
X110349Y68496D01*
X110362Y68496D01*
X110375Y68491D01*
X110519Y68502D01*
X110666Y68541D01*
X111751Y68541D01*
X111751Y59869D01*
X111762Y59820D01*
X111764Y59769D01*
X111782Y59736D01*
X111790Y59700D01*
X111823Y59661D01*
X111847Y59616D01*
X111877Y59595D01*
X111900Y59567D01*
X111947Y59546D01*
X111989Y59517D01*
X112031Y59508D01*
X112053Y59498D01*
X112030Y59497D01*
X111998Y59480D01*
X111962Y59472D01*
X111923Y59439D01*
X111878Y59415D01*
X111857Y59385D01*
X111829Y59361D01*
X111808Y59315D01*
X111778Y59273D01*
X111770Y59231D01*
X111758Y59203D01*
X111759Y59173D01*
X111751Y59131D01*
X111751Y50459D01*
X110665Y50459D01*
X110019Y50632D01*
X109440Y50967D01*
X109043Y51364D01*
X108978Y51404D01*
X108916Y51448D01*
X108904Y51450D01*
X108896Y51455D01*
X108859Y51459D01*
X108774Y51475D01*
X105421Y51475D01*
X105371Y51464D01*
X105320Y51462D01*
X105288Y51444D01*
X105252Y51436D01*
X105213Y51403D01*
X105168Y51379D01*
X105147Y51349D01*
X105119Y51326D01*
X105098Y51279D01*
X105068Y51237D01*
X105060Y51195D01*
X105048Y51167D01*
X105049Y51137D01*
X105041Y51095D01*
X105041Y50710D01*
X105058Y50636D01*
X105071Y50561D01*
X105078Y50551D01*
X105080Y50541D01*
X105104Y50512D01*
X105152Y50441D01*
X107941Y47652D01*
X108006Y47612D01*
X108068Y47568D01*
X108080Y47566D01*
X108088Y47561D01*
X108125Y47557D01*
X108210Y47541D01*
X128790Y47541D01*
X128864Y47558D01*
G37*
%LPC*%
G36*
X125665Y50459D02*
X125665Y50459D01*
X125019Y50632D01*
X124440Y50967D01*
X124043Y51364D01*
X123978Y51404D01*
X123916Y51448D01*
X123904Y51450D01*
X123896Y51455D01*
X123859Y51459D01*
X123774Y51475D01*
X120368Y51475D01*
X120269Y51575D01*
X120226Y51602D01*
X120188Y51636D01*
X120153Y51647D01*
X120122Y51666D01*
X120071Y51671D01*
X120022Y51686D01*
X119986Y51679D01*
X119949Y51683D01*
X119902Y51665D01*
X119851Y51656D01*
X119816Y51632D01*
X119787Y51621D01*
X119766Y51599D01*
X119731Y51575D01*
X119632Y51475D01*
X116226Y51475D01*
X116152Y51458D01*
X116077Y51445D01*
X116067Y51438D01*
X116057Y51436D01*
X116028Y51412D01*
X115957Y51364D01*
X115560Y50967D01*
X114981Y50632D01*
X114335Y50459D01*
X113249Y50459D01*
X113249Y59131D01*
X113238Y59180D01*
X113236Y59231D01*
X113218Y59264D01*
X113210Y59300D01*
X113177Y59339D01*
X113153Y59384D01*
X113123Y59405D01*
X113100Y59433D01*
X113053Y59454D01*
X113011Y59483D01*
X112969Y59492D01*
X112947Y59502D01*
X112970Y59503D01*
X113002Y59520D01*
X113038Y59528D01*
X113077Y59561D01*
X113122Y59585D01*
X113143Y59615D01*
X113171Y59639D01*
X113192Y59685D01*
X113222Y59727D01*
X113230Y59769D01*
X113242Y59797D01*
X113241Y59827D01*
X113249Y59869D01*
X113249Y68541D01*
X114334Y68541D01*
X114481Y68502D01*
X114494Y68501D01*
X114507Y68496D01*
X114580Y68498D01*
X114654Y68496D01*
X114666Y68502D01*
X114680Y68502D01*
X114744Y68537D01*
X114811Y68568D01*
X114820Y68578D01*
X114832Y68585D01*
X114874Y68645D01*
X114921Y68702D01*
X114924Y68716D01*
X114932Y68727D01*
X114959Y68869D01*
X114959Y72552D01*
X120348Y77941D01*
X120381Y77995D01*
X120382Y77995D01*
X120388Y78006D01*
X120432Y78068D01*
X120434Y78080D01*
X120439Y78088D01*
X120443Y78125D01*
X120445Y78137D01*
X120452Y78153D01*
X120452Y78171D01*
X120459Y78210D01*
X120459Y100290D01*
X120447Y100342D01*
X120446Y100381D01*
X120436Y100399D01*
X120429Y100439D01*
X120422Y100449D01*
X120420Y100459D01*
X120396Y100488D01*
X120348Y100559D01*
X117459Y103448D01*
X117459Y106158D01*
X117456Y106171D01*
X117458Y106185D01*
X117437Y106255D01*
X117420Y106327D01*
X117411Y106337D01*
X117407Y106350D01*
X117356Y106403D01*
X117310Y106460D01*
X117297Y106466D01*
X117288Y106476D01*
X117219Y106501D01*
X117151Y106531D01*
X117138Y106531D01*
X117125Y106535D01*
X116981Y106525D01*
X116978Y106525D01*
X116735Y106459D01*
X115699Y106459D01*
X115699Y121681D01*
X115688Y121730D01*
X115686Y121781D01*
X115668Y121814D01*
X115660Y121850D01*
X115627Y121889D01*
X115603Y121934D01*
X115573Y121955D01*
X115550Y121983D01*
X115513Y121999D01*
X115527Y122011D01*
X115572Y122035D01*
X115593Y122065D01*
X115621Y122089D01*
X115642Y122135D01*
X115672Y122177D01*
X115680Y122219D01*
X115692Y122247D01*
X115692Y122261D01*
X115692Y122262D01*
X115692Y122280D01*
X115699Y122319D01*
X115699Y137541D01*
X116735Y137541D01*
X117381Y137368D01*
X117960Y137033D01*
X118357Y136636D01*
X118422Y136596D01*
X118484Y136552D01*
X118496Y136550D01*
X118504Y136545D01*
X118541Y136541D01*
X118626Y136525D01*
X122032Y136525D01*
X122231Y136325D01*
X122274Y136298D01*
X122312Y136264D01*
X122347Y136253D01*
X122378Y136234D01*
X122429Y136229D01*
X122478Y136214D01*
X122514Y136221D01*
X122551Y136217D01*
X122598Y136235D01*
X122649Y136244D01*
X122684Y136268D01*
X122713Y136279D01*
X122733Y136301D01*
X122769Y136325D01*
X122968Y136525D01*
X127032Y136525D01*
X127925Y135632D01*
X127925Y108368D01*
X127652Y108096D01*
X127612Y108031D01*
X127568Y107969D01*
X127566Y107957D01*
X127561Y107949D01*
X127557Y107912D01*
X127541Y107827D01*
X127541Y107710D01*
X127558Y107636D01*
X127571Y107561D01*
X127578Y107551D01*
X127580Y107541D01*
X127604Y107512D01*
X127652Y107441D01*
X131390Y103703D01*
X131390Y74071D01*
X129790Y72471D01*
X126509Y69190D01*
X126495Y69168D01*
X126475Y69152D01*
X126450Y69095D01*
X126418Y69043D01*
X126415Y69017D01*
X126405Y68993D01*
X126407Y68932D01*
X126401Y68870D01*
X126410Y68846D01*
X126411Y68820D01*
X126441Y68766D01*
X126463Y68708D01*
X126482Y68691D01*
X126494Y68668D01*
X126544Y68633D01*
X126590Y68591D01*
X126615Y68583D01*
X126636Y68568D01*
X126720Y68552D01*
X126751Y68543D01*
X126751Y59869D01*
X126762Y59820D01*
X126764Y59769D01*
X126782Y59736D01*
X126790Y59700D01*
X126823Y59661D01*
X126847Y59616D01*
X126877Y59595D01*
X126900Y59567D01*
X126947Y59546D01*
X126989Y59517D01*
X127031Y59508D01*
X127053Y59498D01*
X127030Y59497D01*
X126998Y59480D01*
X126962Y59472D01*
X126923Y59439D01*
X126878Y59415D01*
X126857Y59385D01*
X126829Y59361D01*
X126808Y59315D01*
X126778Y59273D01*
X126770Y59231D01*
X126758Y59203D01*
X126759Y59173D01*
X126751Y59131D01*
X126751Y50459D01*
X125665Y50459D01*
G37*
%LPD*%
%LPC*%
G36*
X136868Y14475D02*
X136868Y14475D01*
X135975Y15368D01*
X135975Y38632D01*
X136868Y39525D01*
X156132Y39525D01*
X157025Y38632D01*
X157025Y15368D01*
X156132Y14475D01*
X136868Y14475D01*
G37*
%LPD*%
%LPC*%
G36*
X3868Y14475D02*
X3868Y14475D01*
X2975Y15368D01*
X2975Y38632D01*
X3868Y39525D01*
X23132Y39525D01*
X24025Y38632D01*
X24025Y15368D01*
X23132Y14475D01*
X3868Y14475D01*
G37*
%LPD*%
G36*
X100014Y67321D02*
X100014Y67321D01*
X100051Y67317D01*
X100098Y67335D01*
X100149Y67344D01*
X100184Y67368D01*
X100213Y67379D01*
X100233Y67401D01*
X100269Y67425D01*
X100368Y67525D01*
X104579Y67525D01*
X104629Y67536D01*
X104680Y67538D01*
X104712Y67556D01*
X104748Y67564D01*
X104787Y67597D01*
X104832Y67621D01*
X104853Y67651D01*
X104881Y67674D01*
X104902Y67721D01*
X104932Y67763D01*
X104940Y67805D01*
X104952Y67833D01*
X104951Y67863D01*
X104959Y67905D01*
X104959Y74552D01*
X106559Y76152D01*
X107348Y76941D01*
X107388Y77006D01*
X107432Y77068D01*
X107434Y77080D01*
X107439Y77088D01*
X107443Y77125D01*
X107459Y77210D01*
X107459Y107095D01*
X107448Y107145D01*
X107446Y107196D01*
X107428Y107228D01*
X107420Y107264D01*
X107387Y107303D01*
X107363Y107348D01*
X107333Y107369D01*
X107310Y107397D01*
X107263Y107418D01*
X107221Y107448D01*
X107179Y107456D01*
X107151Y107468D01*
X107121Y107467D01*
X107079Y107475D01*
X102968Y107475D01*
X102769Y107675D01*
X102725Y107702D01*
X102688Y107736D01*
X102653Y107747D01*
X102622Y107766D01*
X102571Y107771D01*
X102522Y107786D01*
X102486Y107779D01*
X102449Y107783D01*
X102402Y107765D01*
X102351Y107756D01*
X102316Y107732D01*
X102287Y107721D01*
X102267Y107699D01*
X102231Y107675D01*
X102032Y107475D01*
X97921Y107475D01*
X97871Y107464D01*
X97820Y107462D01*
X97788Y107444D01*
X97752Y107436D01*
X97713Y107403D01*
X97668Y107379D01*
X97647Y107349D01*
X97619Y107326D01*
X97598Y107279D01*
X97568Y107237D01*
X97560Y107195D01*
X97548Y107167D01*
X97549Y107137D01*
X97541Y107095D01*
X97541Y102710D01*
X97558Y102636D01*
X97571Y102561D01*
X97578Y102551D01*
X97580Y102541D01*
X97604Y102512D01*
X97652Y102441D01*
X103541Y96552D01*
X103541Y78948D01*
X95152Y70559D01*
X95112Y70494D01*
X95068Y70432D01*
X95066Y70420D01*
X95061Y70412D01*
X95057Y70375D01*
X95041Y70290D01*
X95041Y67905D01*
X95052Y67855D01*
X95054Y67804D01*
X95072Y67772D01*
X95080Y67736D01*
X95113Y67697D01*
X95137Y67652D01*
X95167Y67631D01*
X95190Y67603D01*
X95237Y67582D01*
X95279Y67552D01*
X95321Y67544D01*
X95349Y67532D01*
X95379Y67533D01*
X95421Y67525D01*
X99632Y67525D01*
X99731Y67425D01*
X99774Y67398D01*
X99812Y67364D01*
X99847Y67353D01*
X99878Y67334D01*
X99929Y67329D01*
X99978Y67314D01*
X100014Y67321D01*
G37*
G36*
X60014Y73758D02*
X60014Y73758D01*
X60051Y73754D01*
X60099Y73772D01*
X60149Y73781D01*
X60184Y73805D01*
X60213Y73816D01*
X60234Y73838D01*
X60269Y73862D01*
X61559Y75152D01*
X65134Y78727D01*
X65145Y78745D01*
X65157Y78755D01*
X65173Y78790D01*
X65174Y78792D01*
X65218Y78854D01*
X65220Y78866D01*
X65225Y78874D01*
X65229Y78911D01*
X65245Y78996D01*
X65245Y97914D01*
X65228Y97988D01*
X65215Y98063D01*
X65208Y98073D01*
X65206Y98083D01*
X65182Y98112D01*
X65134Y98183D01*
X62356Y100961D01*
X62356Y103517D01*
X62350Y103542D01*
X62353Y103568D01*
X62331Y103626D01*
X62317Y103686D01*
X62300Y103706D01*
X62291Y103730D01*
X62246Y103772D01*
X62207Y103820D01*
X62183Y103830D01*
X62164Y103848D01*
X62105Y103865D01*
X62048Y103890D01*
X62023Y103889D01*
X61998Y103897D01*
X61937Y103886D01*
X61875Y103884D01*
X61853Y103871D01*
X61827Y103867D01*
X61756Y103819D01*
X61723Y103801D01*
X61717Y103793D01*
X61707Y103786D01*
X60504Y102583D01*
X57548Y99627D01*
X57508Y99562D01*
X57464Y99500D01*
X57462Y99488D01*
X57457Y99480D01*
X57453Y99443D01*
X57437Y99358D01*
X57437Y76314D01*
X57449Y76262D01*
X57450Y76224D01*
X57460Y76206D01*
X57467Y76165D01*
X57474Y76155D01*
X57476Y76145D01*
X57500Y76116D01*
X57548Y76045D01*
X59731Y73862D01*
X59774Y73835D01*
X59812Y73800D01*
X59847Y73790D01*
X59878Y73771D01*
X59929Y73766D01*
X59978Y73751D01*
X60014Y73758D01*
G37*
G36*
X75460Y74183D02*
X75460Y74183D01*
X75522Y74185D01*
X75544Y74198D01*
X75570Y74202D01*
X75641Y74250D01*
X75674Y74268D01*
X75680Y74276D01*
X75690Y74283D01*
X76559Y75152D01*
X81747Y80340D01*
X81787Y80405D01*
X81831Y80467D01*
X81833Y80479D01*
X81838Y80487D01*
X81842Y80524D01*
X81858Y80609D01*
X81858Y97414D01*
X81841Y97488D01*
X81828Y97563D01*
X81821Y97573D01*
X81819Y97583D01*
X81795Y97612D01*
X81747Y97683D01*
X79069Y100361D01*
X77866Y101564D01*
X77844Y101578D01*
X77828Y101598D01*
X77771Y101623D01*
X77719Y101655D01*
X77693Y101658D01*
X77669Y101668D01*
X77608Y101666D01*
X77546Y101672D01*
X77522Y101663D01*
X77496Y101662D01*
X77442Y101632D01*
X77384Y101610D01*
X77367Y101591D01*
X77344Y101579D01*
X77309Y101529D01*
X77267Y101483D01*
X77259Y101458D01*
X77244Y101437D01*
X77228Y101353D01*
X77217Y101317D01*
X77219Y101307D01*
X77217Y101295D01*
X77217Y101183D01*
X74161Y98127D01*
X74121Y98062D01*
X74077Y98000D01*
X74075Y97988D01*
X74070Y97980D01*
X74066Y97943D01*
X74050Y97858D01*
X74050Y76701D01*
X74062Y76651D01*
X74063Y76604D01*
X74075Y76583D01*
X74080Y76552D01*
X74087Y76542D01*
X74089Y76532D01*
X74113Y76503D01*
X74138Y76466D01*
X74146Y76452D01*
X74150Y76449D01*
X74161Y76432D01*
X75041Y75552D01*
X75041Y74552D01*
X75047Y74527D01*
X75044Y74501D01*
X75066Y74443D01*
X75080Y74383D01*
X75097Y74363D01*
X75106Y74339D01*
X75151Y74297D01*
X75190Y74249D01*
X75214Y74239D01*
X75233Y74221D01*
X75292Y74204D01*
X75349Y74179D01*
X75374Y74180D01*
X75399Y74172D01*
X75460Y74183D01*
G37*
G36*
X45460Y73683D02*
X45460Y73683D01*
X45522Y73685D01*
X45544Y73698D01*
X45570Y73702D01*
X45641Y73750D01*
X45674Y73768D01*
X45680Y73776D01*
X45690Y73783D01*
X46559Y74652D01*
X48521Y76614D01*
X48561Y76679D01*
X48605Y76741D01*
X48607Y76753D01*
X48612Y76761D01*
X48616Y76798D01*
X48632Y76883D01*
X48632Y100414D01*
X48615Y100488D01*
X48602Y100563D01*
X48595Y100573D01*
X48593Y100583D01*
X48569Y100612D01*
X48521Y100683D01*
X47775Y101429D01*
X47732Y101456D01*
X47694Y101491D01*
X47659Y101501D01*
X47628Y101520D01*
X47577Y101525D01*
X47528Y101540D01*
X47492Y101533D01*
X47455Y101537D01*
X47408Y101519D01*
X47357Y101510D01*
X47322Y101486D01*
X47293Y101475D01*
X47272Y101453D01*
X47237Y101429D01*
X41435Y95627D01*
X41395Y95562D01*
X41351Y95500D01*
X41349Y95488D01*
X41344Y95480D01*
X41340Y95443D01*
X41336Y95421D01*
X41331Y95409D01*
X41331Y95396D01*
X41324Y95358D01*
X41324Y79427D01*
X41341Y79353D01*
X41354Y79278D01*
X41361Y79268D01*
X41363Y79258D01*
X41387Y79229D01*
X41435Y79158D01*
X45041Y75552D01*
X45041Y74052D01*
X45047Y74027D01*
X45044Y74001D01*
X45066Y73943D01*
X45080Y73883D01*
X45097Y73863D01*
X45106Y73839D01*
X45151Y73797D01*
X45190Y73749D01*
X45214Y73739D01*
X45233Y73721D01*
X45292Y73704D01*
X45349Y73679D01*
X45374Y73680D01*
X45399Y73672D01*
X45460Y73683D01*
G37*
G36*
X90960Y73683D02*
X90960Y73683D01*
X91022Y73685D01*
X91044Y73698D01*
X91070Y73702D01*
X91141Y73750D01*
X91174Y73768D01*
X91180Y73776D01*
X91190Y73783D01*
X91559Y74152D01*
X98348Y80941D01*
X98388Y81006D01*
X98432Y81068D01*
X98434Y81080D01*
X98439Y81088D01*
X98443Y81125D01*
X98459Y81210D01*
X98459Y94290D01*
X98442Y94364D01*
X98429Y94439D01*
X98422Y94449D01*
X98420Y94459D01*
X98396Y94488D01*
X98348Y94559D01*
X94059Y98848D01*
X93190Y99717D01*
X93168Y99731D01*
X93152Y99751D01*
X93095Y99776D01*
X93043Y99808D01*
X93017Y99811D01*
X92993Y99821D01*
X92932Y99819D01*
X92870Y99825D01*
X92846Y99816D01*
X92820Y99815D01*
X92766Y99785D01*
X92708Y99763D01*
X92691Y99744D01*
X92668Y99732D01*
X92633Y99682D01*
X92591Y99636D01*
X92583Y99611D01*
X92568Y99590D01*
X92552Y99506D01*
X92541Y99470D01*
X92543Y99460D01*
X92541Y99448D01*
X92541Y97448D01*
X90652Y95559D01*
X90612Y95494D01*
X90568Y95432D01*
X90566Y95420D01*
X90561Y95412D01*
X90557Y95375D01*
X90541Y95290D01*
X90541Y74052D01*
X90547Y74027D01*
X90544Y74001D01*
X90566Y73943D01*
X90580Y73883D01*
X90597Y73863D01*
X90606Y73839D01*
X90651Y73797D01*
X90690Y73749D01*
X90714Y73739D01*
X90733Y73721D01*
X90792Y73704D01*
X90849Y73679D01*
X90874Y73680D01*
X90899Y73672D01*
X90960Y73683D01*
G37*
%LPC*%
G36*
X128249Y60249D02*
X128249Y60249D01*
X128249Y68541D01*
X129335Y68541D01*
X129981Y68368D01*
X130560Y68033D01*
X131033Y67560D01*
X131368Y66981D01*
X131541Y66335D01*
X131541Y60249D01*
X128249Y60249D01*
G37*
%LPD*%
%LPC*%
G36*
X128249Y50459D02*
X128249Y50459D01*
X128249Y58751D01*
X131541Y58751D01*
X131541Y52665D01*
X131368Y52019D01*
X131033Y51440D01*
X130560Y50967D01*
X129981Y50632D01*
X129335Y50459D01*
X128249Y50459D01*
G37*
%LPD*%
D10*
X146500Y27000D03*
X13500Y27000D03*
D11*
X32500Y59500D03*
X37500Y59500D03*
X42500Y59500D03*
X47500Y59500D03*
X52500Y59500D03*
X57500Y59500D03*
X62500Y59500D03*
X67500Y59500D03*
X72500Y59500D03*
X77500Y59500D03*
X82500Y59500D03*
X87500Y59500D03*
X92500Y59500D03*
X97500Y59500D03*
X102500Y59500D03*
X107500Y59500D03*
X112500Y59500D03*
X117500Y59500D03*
X122500Y59500D03*
X127500Y59500D03*
D12*
X152500Y121110D02*
X152500Y138890D01*
X7500Y138890D02*
X7500Y121110D01*
X152500Y181110D02*
X152500Y198890D01*
X7500Y198890D02*
X7500Y181110D01*
D13*
X80000Y122000D03*
X75000Y122000D03*
X70000Y122000D03*
X65000Y122000D03*
X60000Y122000D03*
X55000Y122000D03*
X50000Y122000D03*
X45000Y122000D03*
X85000Y122000D03*
X90000Y122000D03*
X95000Y122000D03*
X100000Y122000D03*
X105000Y122000D03*
X110000Y122000D03*
X115000Y122000D03*
X40000Y122000D03*
X35000Y122000D03*
X120000Y122000D03*
X125000Y122000D03*
D14*
X11000Y106000D03*
X61500Y94500D03*
X78000Y95000D03*
X45000Y94000D03*
X157500Y106000D03*
X94500Y93000D03*
X102500Y103000D03*
X117000Y143000D03*
X116500Y96500D03*
D15*
X123000Y101500D02*
X120000Y104500D01*
X120000Y122000D01*
X123000Y101500D02*
X123000Y77000D01*
X117500Y71500D01*
X117500Y59500D01*
X90000Y98500D02*
X90000Y122000D01*
X90000Y98500D02*
X88000Y96500D01*
X88000Y72000D01*
X87500Y71500D01*
X87500Y59500D01*
X84399Y98624D02*
X80010Y103013D01*
X80010Y115570D01*
X84399Y98624D02*
X84399Y79399D01*
X77500Y72500D01*
X77500Y59500D01*
X80010Y115570D02*
X80000Y122000D01*
X74676Y102235D02*
X71509Y99068D01*
X74676Y115676D02*
X75000Y122000D01*
X74676Y115676D02*
X74676Y102235D01*
X71509Y99068D02*
X71509Y75491D01*
X72500Y74500D02*
X72500Y59500D01*
X72500Y74500D02*
X71509Y75491D01*
X67786Y99124D02*
X64897Y102013D01*
X64897Y115570D01*
X67786Y99124D02*
X67786Y77786D01*
X62500Y72500D01*
X62500Y59500D01*
X64897Y115570D02*
X65000Y122000D01*
X59563Y105235D02*
X54896Y100568D01*
X59563Y115563D02*
X60000Y122000D01*
X59563Y115563D02*
X59563Y105235D01*
X54896Y100568D02*
X54896Y75104D01*
X57500Y72500D02*
X57500Y59500D01*
X57500Y72500D02*
X54896Y75104D01*
X51173Y101624D02*
X49784Y103013D01*
X49784Y115570D01*
X51173Y101624D02*
X51173Y75673D01*
X47500Y72000D01*
X47500Y59500D01*
X49784Y115570D02*
X50000Y122000D01*
X45339Y103124D02*
X38783Y96568D01*
X45339Y103124D02*
X45339Y115570D01*
X38783Y96568D02*
X38783Y78217D01*
X42500Y74500D02*
X42500Y59500D01*
X42500Y74500D02*
X38783Y78217D01*
X45339Y115570D02*
X45000Y122000D01*
X35000Y122000D02*
X35000Y77000D01*
X32500Y74500D01*
X32500Y59500D01*
X95000Y101500D02*
X101000Y95500D01*
X95000Y101500D02*
X95000Y122000D01*
X101000Y95500D02*
X101000Y80000D01*
X92500Y71500D01*
X92500Y59500D01*
X110000Y76000D02*
X110000Y122000D01*
X110000Y76000D02*
X107500Y73500D01*
X107500Y59500D01*
X105000Y122000D02*
X105000Y143500D01*
X112500Y151000D01*
X102500Y59500D02*
X102500Y49500D01*
X107000Y45000D01*
X130000Y45000D02*
X135500Y50500D01*
X135500Y140500D01*
X125000Y151000D01*
X112500Y151000D01*
X107000Y45000D02*
X130000Y45000D01*
X122682Y64008D02*
X122682Y68956D01*
X128849Y75123D01*
X122682Y64008D02*
X122500Y59500D01*
X128849Y75123D02*
X128849Y102651D01*
X125000Y106500D01*
X125000Y122000D01*
M02*
