G04 EAGLE Gerber RS-274X export*
G75*
%MOMM*%
%FSLAX34Y34*%
%LPD*%
%INMechanical*%
%IPPOS*%
%AMOC8*
5,1,8,0,0,1.08239X$1,22.5*%
G01*
%ADD10C,0.000000*%
%ADD11C,0.000009*%
%ADD12C,0.127000*%
%ADD13C,0.254000*%


D10*
X13000Y0D02*
X147000Y0D01*
X172000Y25000D02*
X172000Y195000D01*
X147000Y220000D02*
X13000Y220000D01*
X-12000Y195000D02*
X-12000Y25000D01*
D11*
X-11993Y24396D01*
X-11971Y23792D01*
X-11934Y23189D01*
X-11883Y22587D01*
X-11818Y21987D01*
X-11738Y21388D01*
X-11643Y20791D01*
X-11534Y20197D01*
X-11411Y19605D01*
X-11274Y19017D01*
X-11122Y18432D01*
X-10956Y17851D01*
X-10776Y17275D01*
X-10583Y16702D01*
X-10375Y16135D01*
X-10154Y15573D01*
X-9920Y15016D01*
X-9672Y14465D01*
X-9411Y13920D01*
X-9136Y13382D01*
X-8849Y12850D01*
X-8549Y12326D01*
X-8237Y11809D01*
X-7912Y11300D01*
X-7575Y10798D01*
X-7225Y10305D01*
X-6864Y9821D01*
X-6492Y9345D01*
X-6108Y8879D01*
X-5713Y8422D01*
X-5307Y7975D01*
X-4890Y7537D01*
X-4463Y7110D01*
X-4025Y6693D01*
X-3578Y6287D01*
X-3121Y5892D01*
X-2655Y5508D01*
X-2179Y5136D01*
X-1695Y4775D01*
X-1202Y4425D01*
X-700Y4088D01*
X-191Y3763D01*
X326Y3451D01*
X850Y3151D01*
X1382Y2864D01*
X1920Y2589D01*
X2465Y2328D01*
X3016Y2080D01*
X3573Y1846D01*
X4135Y1625D01*
X4702Y1417D01*
X5275Y1224D01*
X5851Y1044D01*
X6432Y878D01*
X7017Y726D01*
X7605Y589D01*
X8197Y466D01*
X8791Y357D01*
X9388Y262D01*
X9987Y182D01*
X10587Y117D01*
X11189Y66D01*
X11792Y29D01*
X12396Y7D01*
X13000Y0D01*
X147000Y0D02*
X147604Y7D01*
X148208Y29D01*
X148811Y66D01*
X149413Y117D01*
X150013Y182D01*
X150612Y262D01*
X151209Y357D01*
X151803Y466D01*
X152395Y589D01*
X152983Y726D01*
X153568Y878D01*
X154149Y1044D01*
X154725Y1224D01*
X155298Y1417D01*
X155865Y1625D01*
X156427Y1846D01*
X156984Y2080D01*
X157535Y2328D01*
X158080Y2589D01*
X158618Y2864D01*
X159150Y3151D01*
X159674Y3451D01*
X160191Y3763D01*
X160700Y4088D01*
X161202Y4425D01*
X161695Y4775D01*
X162179Y5136D01*
X162655Y5508D01*
X163121Y5892D01*
X163578Y6287D01*
X164025Y6693D01*
X164463Y7110D01*
X164890Y7537D01*
X165307Y7975D01*
X165713Y8422D01*
X166108Y8879D01*
X166492Y9345D01*
X166864Y9821D01*
X167225Y10305D01*
X167575Y10798D01*
X167912Y11300D01*
X168237Y11809D01*
X168549Y12326D01*
X168849Y12850D01*
X169136Y13382D01*
X169411Y13920D01*
X169672Y14465D01*
X169920Y15016D01*
X170154Y15573D01*
X170375Y16135D01*
X170583Y16702D01*
X170776Y17275D01*
X170956Y17851D01*
X171122Y18432D01*
X171274Y19017D01*
X171411Y19605D01*
X171534Y20197D01*
X171643Y20791D01*
X171738Y21388D01*
X171818Y21987D01*
X171883Y22587D01*
X171934Y23189D01*
X171971Y23792D01*
X171993Y24396D01*
X172000Y25000D01*
X-12000Y195000D02*
X-11993Y195604D01*
X-11971Y196208D01*
X-11934Y196811D01*
X-11883Y197413D01*
X-11818Y198013D01*
X-11738Y198612D01*
X-11643Y199209D01*
X-11534Y199803D01*
X-11411Y200395D01*
X-11274Y200983D01*
X-11122Y201568D01*
X-10956Y202149D01*
X-10776Y202725D01*
X-10583Y203298D01*
X-10375Y203865D01*
X-10154Y204427D01*
X-9920Y204984D01*
X-9672Y205535D01*
X-9411Y206080D01*
X-9136Y206618D01*
X-8849Y207150D01*
X-8549Y207674D01*
X-8237Y208191D01*
X-7912Y208700D01*
X-7575Y209202D01*
X-7225Y209695D01*
X-6864Y210179D01*
X-6492Y210655D01*
X-6108Y211121D01*
X-5713Y211578D01*
X-5307Y212025D01*
X-4890Y212463D01*
X-4463Y212890D01*
X-4025Y213307D01*
X-3578Y213713D01*
X-3121Y214108D01*
X-2655Y214492D01*
X-2179Y214864D01*
X-1695Y215225D01*
X-1202Y215575D01*
X-700Y215912D01*
X-191Y216237D01*
X326Y216549D01*
X850Y216849D01*
X1382Y217136D01*
X1920Y217411D01*
X2465Y217672D01*
X3016Y217920D01*
X3573Y218154D01*
X4135Y218375D01*
X4702Y218583D01*
X5275Y218776D01*
X5851Y218956D01*
X6432Y219122D01*
X7017Y219274D01*
X7605Y219411D01*
X8197Y219534D01*
X8791Y219643D01*
X9388Y219738D01*
X9987Y219818D01*
X10587Y219883D01*
X11189Y219934D01*
X11792Y219971D01*
X12396Y219993D01*
X13000Y220000D01*
X147000Y220000D02*
X147604Y219993D01*
X148208Y219971D01*
X148811Y219934D01*
X149413Y219883D01*
X150013Y219818D01*
X150612Y219738D01*
X151209Y219643D01*
X151803Y219534D01*
X152395Y219411D01*
X152983Y219274D01*
X153568Y219122D01*
X154149Y218956D01*
X154725Y218776D01*
X155298Y218583D01*
X155865Y218375D01*
X156427Y218154D01*
X156984Y217920D01*
X157535Y217672D01*
X158080Y217411D01*
X158618Y217136D01*
X159150Y216849D01*
X159674Y216549D01*
X160191Y216237D01*
X160700Y215912D01*
X161202Y215575D01*
X161695Y215225D01*
X162179Y214864D01*
X162655Y214492D01*
X163121Y214108D01*
X163578Y213713D01*
X164025Y213307D01*
X164463Y212890D01*
X164890Y212463D01*
X165307Y212025D01*
X165713Y211578D01*
X166108Y211121D01*
X166492Y210655D01*
X166864Y210179D01*
X167225Y209695D01*
X167575Y209202D01*
X167912Y208700D01*
X168237Y208191D01*
X168549Y207674D01*
X168849Y207150D01*
X169136Y206618D01*
X169411Y206080D01*
X169672Y205535D01*
X169920Y204984D01*
X170154Y204427D01*
X170375Y203865D01*
X170583Y203298D01*
X170776Y202725D01*
X170956Y202149D01*
X171122Y201568D01*
X171274Y200983D01*
X171411Y200395D01*
X171534Y199803D01*
X171643Y199209D01*
X171738Y198612D01*
X171818Y198013D01*
X171883Y197413D01*
X171934Y196811D01*
X171971Y196208D01*
X171993Y195604D01*
X172000Y195000D01*
D10*
X146900Y65500D02*
X146903Y65758D01*
X146913Y66015D01*
X146928Y66272D01*
X146951Y66529D01*
X146979Y66785D01*
X147014Y67041D01*
X147055Y67295D01*
X147102Y67548D01*
X147155Y67801D01*
X147215Y68051D01*
X147280Y68300D01*
X147352Y68548D01*
X147430Y68794D01*
X147514Y69037D01*
X147604Y69279D01*
X147699Y69518D01*
X147801Y69755D01*
X147908Y69989D01*
X148021Y70221D01*
X148140Y70450D01*
X148264Y70675D01*
X148394Y70898D01*
X148529Y71117D01*
X148670Y71333D01*
X148815Y71546D01*
X148966Y71755D01*
X149122Y71960D01*
X149283Y72161D01*
X149449Y72358D01*
X149620Y72551D01*
X149795Y72740D01*
X149975Y72925D01*
X150160Y73105D01*
X150349Y73280D01*
X150542Y73451D01*
X150739Y73617D01*
X150940Y73778D01*
X151145Y73934D01*
X151354Y74085D01*
X151567Y74230D01*
X151783Y74371D01*
X152002Y74506D01*
X152225Y74636D01*
X152450Y74760D01*
X152679Y74879D01*
X152911Y74992D01*
X153145Y75099D01*
X153382Y75201D01*
X153621Y75296D01*
X153863Y75386D01*
X154106Y75470D01*
X154352Y75548D01*
X154600Y75620D01*
X154849Y75685D01*
X155099Y75745D01*
X155352Y75798D01*
X155605Y75845D01*
X155859Y75886D01*
X156115Y75921D01*
X156371Y75949D01*
X156628Y75972D01*
X156885Y75987D01*
X157142Y75997D01*
X157400Y76000D01*
X157658Y75997D01*
X157915Y75987D01*
X158172Y75972D01*
X158429Y75949D01*
X158685Y75921D01*
X158941Y75886D01*
X159195Y75845D01*
X159448Y75798D01*
X159701Y75745D01*
X159951Y75685D01*
X160200Y75620D01*
X160448Y75548D01*
X160694Y75470D01*
X160937Y75386D01*
X161179Y75296D01*
X161418Y75201D01*
X161655Y75099D01*
X161889Y74992D01*
X162121Y74879D01*
X162350Y74760D01*
X162575Y74636D01*
X162798Y74506D01*
X163017Y74371D01*
X163233Y74230D01*
X163446Y74085D01*
X163655Y73934D01*
X163860Y73778D01*
X164061Y73617D01*
X164258Y73451D01*
X164451Y73280D01*
X164640Y73105D01*
X164825Y72925D01*
X165005Y72740D01*
X165180Y72551D01*
X165351Y72358D01*
X165517Y72161D01*
X165678Y71960D01*
X165834Y71755D01*
X165985Y71546D01*
X166130Y71333D01*
X166271Y71117D01*
X166406Y70898D01*
X166536Y70675D01*
X166660Y70450D01*
X166779Y70221D01*
X166892Y69989D01*
X166999Y69755D01*
X167101Y69518D01*
X167196Y69279D01*
X167286Y69037D01*
X167370Y68794D01*
X167448Y68548D01*
X167520Y68300D01*
X167585Y68051D01*
X167645Y67801D01*
X167698Y67548D01*
X167745Y67295D01*
X167786Y67041D01*
X167821Y66785D01*
X167849Y66529D01*
X167872Y66272D01*
X167887Y66015D01*
X167897Y65758D01*
X167900Y65500D01*
X167897Y65242D01*
X167887Y64985D01*
X167872Y64728D01*
X167849Y64471D01*
X167821Y64215D01*
X167786Y63959D01*
X167745Y63705D01*
X167698Y63452D01*
X167645Y63199D01*
X167585Y62949D01*
X167520Y62700D01*
X167448Y62452D01*
X167370Y62206D01*
X167286Y61963D01*
X167196Y61721D01*
X167101Y61482D01*
X166999Y61245D01*
X166892Y61011D01*
X166779Y60779D01*
X166660Y60550D01*
X166536Y60325D01*
X166406Y60102D01*
X166271Y59883D01*
X166130Y59667D01*
X165985Y59454D01*
X165834Y59245D01*
X165678Y59040D01*
X165517Y58839D01*
X165351Y58642D01*
X165180Y58449D01*
X165005Y58260D01*
X164825Y58075D01*
X164640Y57895D01*
X164451Y57720D01*
X164258Y57549D01*
X164061Y57383D01*
X163860Y57222D01*
X163655Y57066D01*
X163446Y56915D01*
X163233Y56770D01*
X163017Y56629D01*
X162798Y56494D01*
X162575Y56364D01*
X162350Y56240D01*
X162121Y56121D01*
X161889Y56008D01*
X161655Y55901D01*
X161418Y55799D01*
X161179Y55704D01*
X160937Y55614D01*
X160694Y55530D01*
X160448Y55452D01*
X160200Y55380D01*
X159951Y55315D01*
X159701Y55255D01*
X159448Y55202D01*
X159195Y55155D01*
X158941Y55114D01*
X158685Y55079D01*
X158429Y55051D01*
X158172Y55028D01*
X157915Y55013D01*
X157658Y55003D01*
X157400Y55000D01*
X157142Y55003D01*
X156885Y55013D01*
X156628Y55028D01*
X156371Y55051D01*
X156115Y55079D01*
X155859Y55114D01*
X155605Y55155D01*
X155352Y55202D01*
X155099Y55255D01*
X154849Y55315D01*
X154600Y55380D01*
X154352Y55452D01*
X154106Y55530D01*
X153863Y55614D01*
X153621Y55704D01*
X153382Y55799D01*
X153145Y55901D01*
X152911Y56008D01*
X152679Y56121D01*
X152450Y56240D01*
X152225Y56364D01*
X152002Y56494D01*
X151783Y56629D01*
X151567Y56770D01*
X151354Y56915D01*
X151145Y57066D01*
X150940Y57222D01*
X150739Y57383D01*
X150542Y57549D01*
X150349Y57720D01*
X150160Y57895D01*
X149975Y58075D01*
X149795Y58260D01*
X149620Y58449D01*
X149449Y58642D01*
X149283Y58839D01*
X149122Y59040D01*
X148966Y59245D01*
X148815Y59454D01*
X148670Y59667D01*
X148529Y59883D01*
X148394Y60102D01*
X148264Y60325D01*
X148140Y60550D01*
X148021Y60779D01*
X147908Y61011D01*
X147801Y61245D01*
X147699Y61482D01*
X147604Y61721D01*
X147514Y61963D01*
X147430Y62206D01*
X147352Y62452D01*
X147280Y62700D01*
X147215Y62949D01*
X147155Y63199D01*
X147102Y63452D01*
X147055Y63705D01*
X147014Y63959D01*
X146979Y64215D01*
X146951Y64471D01*
X146928Y64728D01*
X146913Y64985D01*
X146903Y65242D01*
X146900Y65500D01*
X-7000Y65500D02*
X-6997Y65758D01*
X-6987Y66015D01*
X-6972Y66272D01*
X-6949Y66529D01*
X-6921Y66785D01*
X-6886Y67041D01*
X-6845Y67295D01*
X-6798Y67548D01*
X-6745Y67801D01*
X-6685Y68051D01*
X-6620Y68300D01*
X-6548Y68548D01*
X-6470Y68794D01*
X-6386Y69037D01*
X-6296Y69279D01*
X-6201Y69518D01*
X-6099Y69755D01*
X-5992Y69989D01*
X-5879Y70221D01*
X-5760Y70450D01*
X-5636Y70675D01*
X-5506Y70898D01*
X-5371Y71117D01*
X-5230Y71333D01*
X-5085Y71546D01*
X-4934Y71755D01*
X-4778Y71960D01*
X-4617Y72161D01*
X-4451Y72358D01*
X-4280Y72551D01*
X-4105Y72740D01*
X-3925Y72925D01*
X-3740Y73105D01*
X-3551Y73280D01*
X-3358Y73451D01*
X-3161Y73617D01*
X-2960Y73778D01*
X-2755Y73934D01*
X-2546Y74085D01*
X-2333Y74230D01*
X-2117Y74371D01*
X-1898Y74506D01*
X-1675Y74636D01*
X-1450Y74760D01*
X-1221Y74879D01*
X-989Y74992D01*
X-755Y75099D01*
X-518Y75201D01*
X-279Y75296D01*
X-37Y75386D01*
X206Y75470D01*
X452Y75548D01*
X700Y75620D01*
X949Y75685D01*
X1199Y75745D01*
X1452Y75798D01*
X1705Y75845D01*
X1959Y75886D01*
X2215Y75921D01*
X2471Y75949D01*
X2728Y75972D01*
X2985Y75987D01*
X3242Y75997D01*
X3500Y76000D01*
X3758Y75997D01*
X4015Y75987D01*
X4272Y75972D01*
X4529Y75949D01*
X4785Y75921D01*
X5041Y75886D01*
X5295Y75845D01*
X5548Y75798D01*
X5801Y75745D01*
X6051Y75685D01*
X6300Y75620D01*
X6548Y75548D01*
X6794Y75470D01*
X7037Y75386D01*
X7279Y75296D01*
X7518Y75201D01*
X7755Y75099D01*
X7989Y74992D01*
X8221Y74879D01*
X8450Y74760D01*
X8675Y74636D01*
X8898Y74506D01*
X9117Y74371D01*
X9333Y74230D01*
X9546Y74085D01*
X9755Y73934D01*
X9960Y73778D01*
X10161Y73617D01*
X10358Y73451D01*
X10551Y73280D01*
X10740Y73105D01*
X10925Y72925D01*
X11105Y72740D01*
X11280Y72551D01*
X11451Y72358D01*
X11617Y72161D01*
X11778Y71960D01*
X11934Y71755D01*
X12085Y71546D01*
X12230Y71333D01*
X12371Y71117D01*
X12506Y70898D01*
X12636Y70675D01*
X12760Y70450D01*
X12879Y70221D01*
X12992Y69989D01*
X13099Y69755D01*
X13201Y69518D01*
X13296Y69279D01*
X13386Y69037D01*
X13470Y68794D01*
X13548Y68548D01*
X13620Y68300D01*
X13685Y68051D01*
X13745Y67801D01*
X13798Y67548D01*
X13845Y67295D01*
X13886Y67041D01*
X13921Y66785D01*
X13949Y66529D01*
X13972Y66272D01*
X13987Y66015D01*
X13997Y65758D01*
X14000Y65500D01*
X13997Y65242D01*
X13987Y64985D01*
X13972Y64728D01*
X13949Y64471D01*
X13921Y64215D01*
X13886Y63959D01*
X13845Y63705D01*
X13798Y63452D01*
X13745Y63199D01*
X13685Y62949D01*
X13620Y62700D01*
X13548Y62452D01*
X13470Y62206D01*
X13386Y61963D01*
X13296Y61721D01*
X13201Y61482D01*
X13099Y61245D01*
X12992Y61011D01*
X12879Y60779D01*
X12760Y60550D01*
X12636Y60325D01*
X12506Y60102D01*
X12371Y59883D01*
X12230Y59667D01*
X12085Y59454D01*
X11934Y59245D01*
X11778Y59040D01*
X11617Y58839D01*
X11451Y58642D01*
X11280Y58449D01*
X11105Y58260D01*
X10925Y58075D01*
X10740Y57895D01*
X10551Y57720D01*
X10358Y57549D01*
X10161Y57383D01*
X9960Y57222D01*
X9755Y57066D01*
X9546Y56915D01*
X9333Y56770D01*
X9117Y56629D01*
X8898Y56494D01*
X8675Y56364D01*
X8450Y56240D01*
X8221Y56121D01*
X7989Y56008D01*
X7755Y55901D01*
X7518Y55799D01*
X7279Y55704D01*
X7037Y55614D01*
X6794Y55530D01*
X6548Y55452D01*
X6300Y55380D01*
X6051Y55315D01*
X5801Y55255D01*
X5548Y55202D01*
X5295Y55155D01*
X5041Y55114D01*
X4785Y55079D01*
X4529Y55051D01*
X4272Y55028D01*
X4015Y55013D01*
X3758Y55003D01*
X3500Y55000D01*
X3242Y55003D01*
X2985Y55013D01*
X2728Y55028D01*
X2471Y55051D01*
X2215Y55079D01*
X1959Y55114D01*
X1705Y55155D01*
X1452Y55202D01*
X1199Y55255D01*
X949Y55315D01*
X700Y55380D01*
X452Y55452D01*
X206Y55530D01*
X-37Y55614D01*
X-279Y55704D01*
X-518Y55799D01*
X-755Y55901D01*
X-989Y56008D01*
X-1221Y56121D01*
X-1450Y56240D01*
X-1675Y56364D01*
X-1898Y56494D01*
X-2117Y56629D01*
X-2333Y56770D01*
X-2546Y56915D01*
X-2755Y57066D01*
X-2960Y57222D01*
X-3161Y57383D01*
X-3358Y57549D01*
X-3551Y57720D01*
X-3740Y57895D01*
X-3925Y58075D01*
X-4105Y58260D01*
X-4280Y58449D01*
X-4451Y58642D01*
X-4617Y58839D01*
X-4778Y59040D01*
X-4934Y59245D01*
X-5085Y59454D01*
X-5230Y59667D01*
X-5371Y59883D01*
X-5506Y60102D01*
X-5636Y60325D01*
X-5760Y60550D01*
X-5879Y60779D01*
X-5992Y61011D01*
X-6099Y61245D01*
X-6201Y61482D01*
X-6296Y61721D01*
X-6386Y61963D01*
X-6470Y62206D01*
X-6548Y62452D01*
X-6620Y62700D01*
X-6685Y62949D01*
X-6745Y63199D01*
X-6798Y63452D01*
X-6845Y63705D01*
X-6886Y63959D01*
X-6921Y64215D01*
X-6949Y64471D01*
X-6972Y64728D01*
X-6987Y64985D01*
X-6997Y65242D01*
X-7000Y65500D01*
D12*
X157000Y121000D02*
X157000Y139000D01*
X156998Y139133D01*
X156992Y139267D01*
X156982Y139400D01*
X156968Y139532D01*
X156951Y139664D01*
X156929Y139796D01*
X156904Y139927D01*
X156874Y140057D01*
X156841Y140186D01*
X156804Y140314D01*
X156763Y140441D01*
X156718Y140567D01*
X156670Y140691D01*
X156618Y140814D01*
X156563Y140935D01*
X156503Y141055D01*
X156441Y141173D01*
X156375Y141288D01*
X156305Y141402D01*
X156232Y141514D01*
X156156Y141623D01*
X156077Y141731D01*
X155994Y141835D01*
X155909Y141938D01*
X155820Y142037D01*
X155729Y142134D01*
X155634Y142229D01*
X155537Y142320D01*
X155438Y142409D01*
X155335Y142494D01*
X155231Y142577D01*
X155123Y142656D01*
X155014Y142732D01*
X154902Y142805D01*
X154788Y142875D01*
X154673Y142941D01*
X154555Y143003D01*
X154435Y143063D01*
X154314Y143118D01*
X154191Y143170D01*
X154067Y143218D01*
X153941Y143263D01*
X153814Y143304D01*
X153686Y143341D01*
X153557Y143374D01*
X153427Y143404D01*
X153296Y143429D01*
X153164Y143451D01*
X153032Y143468D01*
X152900Y143482D01*
X152767Y143492D01*
X152633Y143498D01*
X152500Y143500D01*
X152367Y143498D01*
X152233Y143492D01*
X152100Y143482D01*
X151968Y143468D01*
X151836Y143451D01*
X151704Y143429D01*
X151573Y143404D01*
X151443Y143374D01*
X151314Y143341D01*
X151186Y143304D01*
X151059Y143263D01*
X150933Y143218D01*
X150809Y143170D01*
X150686Y143118D01*
X150565Y143063D01*
X150445Y143003D01*
X150327Y142941D01*
X150212Y142875D01*
X150098Y142805D01*
X149986Y142732D01*
X149877Y142656D01*
X149769Y142577D01*
X149665Y142494D01*
X149562Y142409D01*
X149463Y142320D01*
X149366Y142229D01*
X149271Y142134D01*
X149180Y142037D01*
X149091Y141938D01*
X149006Y141835D01*
X148923Y141731D01*
X148844Y141623D01*
X148768Y141514D01*
X148695Y141402D01*
X148625Y141288D01*
X148559Y141173D01*
X148497Y141055D01*
X148437Y140935D01*
X148382Y140814D01*
X148330Y140691D01*
X148282Y140567D01*
X148237Y140441D01*
X148196Y140314D01*
X148159Y140186D01*
X148126Y140057D01*
X148096Y139927D01*
X148071Y139796D01*
X148049Y139664D01*
X148032Y139532D01*
X148018Y139400D01*
X148008Y139267D01*
X148002Y139133D01*
X148000Y139000D01*
X148000Y121000D01*
X148002Y120867D01*
X148008Y120733D01*
X148018Y120600D01*
X148032Y120468D01*
X148049Y120336D01*
X148071Y120204D01*
X148096Y120073D01*
X148126Y119943D01*
X148159Y119814D01*
X148196Y119686D01*
X148237Y119559D01*
X148282Y119433D01*
X148330Y119309D01*
X148382Y119186D01*
X148437Y119065D01*
X148497Y118945D01*
X148559Y118827D01*
X148625Y118712D01*
X148695Y118598D01*
X148768Y118486D01*
X148844Y118377D01*
X148923Y118269D01*
X149006Y118165D01*
X149091Y118062D01*
X149180Y117963D01*
X149271Y117866D01*
X149366Y117771D01*
X149463Y117680D01*
X149562Y117591D01*
X149665Y117506D01*
X149769Y117423D01*
X149877Y117344D01*
X149986Y117268D01*
X150098Y117195D01*
X150212Y117125D01*
X150327Y117059D01*
X150445Y116997D01*
X150565Y116937D01*
X150686Y116882D01*
X150809Y116830D01*
X150933Y116782D01*
X151059Y116737D01*
X151186Y116696D01*
X151314Y116659D01*
X151443Y116626D01*
X151573Y116596D01*
X151704Y116571D01*
X151836Y116549D01*
X151968Y116532D01*
X152100Y116518D01*
X152233Y116508D01*
X152367Y116502D01*
X152500Y116500D01*
X152633Y116502D01*
X152767Y116508D01*
X152900Y116518D01*
X153032Y116532D01*
X153164Y116549D01*
X153296Y116571D01*
X153427Y116596D01*
X153557Y116626D01*
X153686Y116659D01*
X153814Y116696D01*
X153941Y116737D01*
X154067Y116782D01*
X154191Y116830D01*
X154314Y116882D01*
X154435Y116937D01*
X154555Y116997D01*
X154673Y117059D01*
X154788Y117125D01*
X154902Y117195D01*
X155014Y117268D01*
X155123Y117344D01*
X155231Y117423D01*
X155335Y117506D01*
X155438Y117591D01*
X155537Y117680D01*
X155634Y117771D01*
X155729Y117866D01*
X155820Y117963D01*
X155909Y118062D01*
X155994Y118165D01*
X156077Y118269D01*
X156156Y118377D01*
X156232Y118486D01*
X156305Y118598D01*
X156375Y118712D01*
X156441Y118827D01*
X156503Y118945D01*
X156563Y119065D01*
X156618Y119186D01*
X156670Y119309D01*
X156718Y119433D01*
X156763Y119559D01*
X156804Y119686D01*
X156841Y119814D01*
X156874Y119943D01*
X156904Y120073D01*
X156929Y120204D01*
X156951Y120336D01*
X156968Y120468D01*
X156982Y120600D01*
X156992Y120733D01*
X156998Y120867D01*
X157000Y121000D01*
X12000Y121000D02*
X12000Y139000D01*
X11998Y139133D01*
X11992Y139267D01*
X11982Y139400D01*
X11968Y139532D01*
X11951Y139664D01*
X11929Y139796D01*
X11904Y139927D01*
X11874Y140057D01*
X11841Y140186D01*
X11804Y140314D01*
X11763Y140441D01*
X11718Y140567D01*
X11670Y140691D01*
X11618Y140814D01*
X11563Y140935D01*
X11503Y141055D01*
X11441Y141173D01*
X11375Y141288D01*
X11305Y141402D01*
X11232Y141514D01*
X11156Y141623D01*
X11077Y141731D01*
X10994Y141835D01*
X10909Y141938D01*
X10820Y142037D01*
X10729Y142134D01*
X10634Y142229D01*
X10537Y142320D01*
X10438Y142409D01*
X10335Y142494D01*
X10231Y142577D01*
X10123Y142656D01*
X10014Y142732D01*
X9902Y142805D01*
X9788Y142875D01*
X9673Y142941D01*
X9555Y143003D01*
X9435Y143063D01*
X9314Y143118D01*
X9191Y143170D01*
X9067Y143218D01*
X8941Y143263D01*
X8814Y143304D01*
X8686Y143341D01*
X8557Y143374D01*
X8427Y143404D01*
X8296Y143429D01*
X8164Y143451D01*
X8032Y143468D01*
X7900Y143482D01*
X7767Y143492D01*
X7633Y143498D01*
X7500Y143500D01*
X7367Y143498D01*
X7233Y143492D01*
X7100Y143482D01*
X6968Y143468D01*
X6836Y143451D01*
X6704Y143429D01*
X6573Y143404D01*
X6443Y143374D01*
X6314Y143341D01*
X6186Y143304D01*
X6059Y143263D01*
X5933Y143218D01*
X5809Y143170D01*
X5686Y143118D01*
X5565Y143063D01*
X5445Y143003D01*
X5327Y142941D01*
X5212Y142875D01*
X5098Y142805D01*
X4986Y142732D01*
X4877Y142656D01*
X4769Y142577D01*
X4665Y142494D01*
X4562Y142409D01*
X4463Y142320D01*
X4366Y142229D01*
X4271Y142134D01*
X4180Y142037D01*
X4091Y141938D01*
X4006Y141835D01*
X3923Y141731D01*
X3844Y141623D01*
X3768Y141514D01*
X3695Y141402D01*
X3625Y141288D01*
X3559Y141173D01*
X3497Y141055D01*
X3437Y140935D01*
X3382Y140814D01*
X3330Y140691D01*
X3282Y140567D01*
X3237Y140441D01*
X3196Y140314D01*
X3159Y140186D01*
X3126Y140057D01*
X3096Y139927D01*
X3071Y139796D01*
X3049Y139664D01*
X3032Y139532D01*
X3018Y139400D01*
X3008Y139267D01*
X3002Y139133D01*
X3000Y139000D01*
X3000Y121000D01*
X3002Y120867D01*
X3008Y120733D01*
X3018Y120600D01*
X3032Y120468D01*
X3049Y120336D01*
X3071Y120204D01*
X3096Y120073D01*
X3126Y119943D01*
X3159Y119814D01*
X3196Y119686D01*
X3237Y119559D01*
X3282Y119433D01*
X3330Y119309D01*
X3382Y119186D01*
X3437Y119065D01*
X3497Y118945D01*
X3559Y118827D01*
X3625Y118712D01*
X3695Y118598D01*
X3768Y118486D01*
X3844Y118377D01*
X3923Y118269D01*
X4006Y118165D01*
X4091Y118062D01*
X4180Y117963D01*
X4271Y117866D01*
X4366Y117771D01*
X4463Y117680D01*
X4562Y117591D01*
X4665Y117506D01*
X4769Y117423D01*
X4877Y117344D01*
X4986Y117268D01*
X5098Y117195D01*
X5212Y117125D01*
X5327Y117059D01*
X5445Y116997D01*
X5565Y116937D01*
X5686Y116882D01*
X5809Y116830D01*
X5933Y116782D01*
X6059Y116737D01*
X6186Y116696D01*
X6314Y116659D01*
X6443Y116626D01*
X6573Y116596D01*
X6704Y116571D01*
X6836Y116549D01*
X6968Y116532D01*
X7100Y116518D01*
X7233Y116508D01*
X7367Y116502D01*
X7500Y116500D01*
X7633Y116502D01*
X7767Y116508D01*
X7900Y116518D01*
X8032Y116532D01*
X8164Y116549D01*
X8296Y116571D01*
X8427Y116596D01*
X8557Y116626D01*
X8686Y116659D01*
X8814Y116696D01*
X8941Y116737D01*
X9067Y116782D01*
X9191Y116830D01*
X9314Y116882D01*
X9435Y116937D01*
X9555Y116997D01*
X9673Y117059D01*
X9788Y117125D01*
X9902Y117195D01*
X10014Y117268D01*
X10123Y117344D01*
X10231Y117423D01*
X10335Y117506D01*
X10438Y117591D01*
X10537Y117680D01*
X10634Y117771D01*
X10729Y117866D01*
X10820Y117963D01*
X10909Y118062D01*
X10994Y118165D01*
X11077Y118269D01*
X11156Y118377D01*
X11232Y118486D01*
X11305Y118598D01*
X11375Y118712D01*
X11441Y118827D01*
X11503Y118945D01*
X11563Y119065D01*
X11618Y119186D01*
X11670Y119309D01*
X11718Y119433D01*
X11763Y119559D01*
X11804Y119686D01*
X11841Y119814D01*
X11874Y119943D01*
X11904Y120073D01*
X11929Y120204D01*
X11951Y120336D01*
X11968Y120468D01*
X11982Y120600D01*
X11992Y120733D01*
X11998Y120867D01*
X12000Y121000D01*
X12000Y196000D02*
X11998Y196133D01*
X11992Y196267D01*
X11982Y196400D01*
X11968Y196532D01*
X11951Y196664D01*
X11929Y196796D01*
X11904Y196927D01*
X11874Y197057D01*
X11841Y197186D01*
X11804Y197314D01*
X11763Y197441D01*
X11718Y197567D01*
X11670Y197691D01*
X11618Y197814D01*
X11563Y197935D01*
X11503Y198055D01*
X11441Y198173D01*
X11375Y198288D01*
X11305Y198402D01*
X11232Y198514D01*
X11156Y198623D01*
X11077Y198731D01*
X10994Y198835D01*
X10909Y198938D01*
X10820Y199037D01*
X10729Y199134D01*
X10634Y199229D01*
X10537Y199320D01*
X10438Y199409D01*
X10335Y199494D01*
X10231Y199577D01*
X10123Y199656D01*
X10014Y199732D01*
X9902Y199805D01*
X9788Y199875D01*
X9673Y199941D01*
X9555Y200003D01*
X9435Y200063D01*
X9314Y200118D01*
X9191Y200170D01*
X9067Y200218D01*
X8941Y200263D01*
X8814Y200304D01*
X8686Y200341D01*
X8557Y200374D01*
X8427Y200404D01*
X8296Y200429D01*
X8164Y200451D01*
X8032Y200468D01*
X7900Y200482D01*
X7767Y200492D01*
X7633Y200498D01*
X7500Y200500D01*
X7367Y200498D01*
X7233Y200492D01*
X7100Y200482D01*
X6968Y200468D01*
X6836Y200451D01*
X6704Y200429D01*
X6573Y200404D01*
X6443Y200374D01*
X6314Y200341D01*
X6186Y200304D01*
X6059Y200263D01*
X5933Y200218D01*
X5809Y200170D01*
X5686Y200118D01*
X5565Y200063D01*
X5445Y200003D01*
X5327Y199941D01*
X5212Y199875D01*
X5098Y199805D01*
X4986Y199732D01*
X4877Y199656D01*
X4769Y199577D01*
X4665Y199494D01*
X4562Y199409D01*
X4463Y199320D01*
X4366Y199229D01*
X4271Y199134D01*
X4180Y199037D01*
X4091Y198938D01*
X4006Y198835D01*
X3923Y198731D01*
X3844Y198623D01*
X3768Y198514D01*
X3695Y198402D01*
X3625Y198288D01*
X3559Y198173D01*
X3497Y198055D01*
X3437Y197935D01*
X3382Y197814D01*
X3330Y197691D01*
X3282Y197567D01*
X3237Y197441D01*
X3196Y197314D01*
X3159Y197186D01*
X3126Y197057D01*
X3096Y196927D01*
X3071Y196796D01*
X3049Y196664D01*
X3032Y196532D01*
X3018Y196400D01*
X3008Y196267D01*
X3002Y196133D01*
X3000Y196000D01*
X3000Y184000D02*
X3002Y183867D01*
X3008Y183733D01*
X3018Y183600D01*
X3032Y183468D01*
X3049Y183336D01*
X3071Y183204D01*
X3096Y183073D01*
X3126Y182943D01*
X3159Y182814D01*
X3196Y182686D01*
X3237Y182559D01*
X3282Y182433D01*
X3330Y182309D01*
X3382Y182186D01*
X3437Y182065D01*
X3497Y181945D01*
X3559Y181827D01*
X3625Y181712D01*
X3695Y181598D01*
X3768Y181486D01*
X3844Y181377D01*
X3923Y181269D01*
X4006Y181165D01*
X4091Y181062D01*
X4180Y180963D01*
X4271Y180866D01*
X4366Y180771D01*
X4463Y180680D01*
X4562Y180591D01*
X4665Y180506D01*
X4769Y180423D01*
X4877Y180344D01*
X4986Y180268D01*
X5098Y180195D01*
X5212Y180125D01*
X5327Y180059D01*
X5445Y179997D01*
X5565Y179937D01*
X5686Y179882D01*
X5809Y179830D01*
X5933Y179782D01*
X6059Y179737D01*
X6186Y179696D01*
X6314Y179659D01*
X6443Y179626D01*
X6573Y179596D01*
X6704Y179571D01*
X6836Y179549D01*
X6968Y179532D01*
X7100Y179518D01*
X7233Y179508D01*
X7367Y179502D01*
X7500Y179500D01*
X7633Y179502D01*
X7767Y179508D01*
X7900Y179518D01*
X8032Y179532D01*
X8164Y179549D01*
X8296Y179571D01*
X8427Y179596D01*
X8557Y179626D01*
X8686Y179659D01*
X8814Y179696D01*
X8941Y179737D01*
X9067Y179782D01*
X9191Y179830D01*
X9314Y179882D01*
X9435Y179937D01*
X9555Y179997D01*
X9673Y180059D01*
X9788Y180125D01*
X9902Y180195D01*
X10014Y180268D01*
X10123Y180344D01*
X10231Y180423D01*
X10335Y180506D01*
X10438Y180591D01*
X10537Y180680D01*
X10634Y180771D01*
X10729Y180866D01*
X10820Y180963D01*
X10909Y181062D01*
X10994Y181165D01*
X11077Y181269D01*
X11156Y181377D01*
X11232Y181486D01*
X11305Y181598D01*
X11375Y181712D01*
X11441Y181827D01*
X11503Y181945D01*
X11563Y182065D01*
X11618Y182186D01*
X11670Y182309D01*
X11718Y182433D01*
X11763Y182559D01*
X11804Y182686D01*
X11841Y182814D01*
X11874Y182943D01*
X11904Y183073D01*
X11929Y183204D01*
X11951Y183336D01*
X11968Y183468D01*
X11982Y183600D01*
X11992Y183733D01*
X11998Y183867D01*
X12000Y184000D01*
X12000Y196000D02*
X11998Y196133D01*
X11992Y196267D01*
X11982Y196400D01*
X11968Y196532D01*
X11951Y196664D01*
X11929Y196796D01*
X11904Y196927D01*
X11874Y197057D01*
X11841Y197186D01*
X11804Y197314D01*
X11763Y197441D01*
X11718Y197567D01*
X11670Y197691D01*
X11618Y197814D01*
X11563Y197935D01*
X11503Y198055D01*
X11441Y198173D01*
X11375Y198288D01*
X11305Y198402D01*
X11232Y198514D01*
X11156Y198623D01*
X11077Y198731D01*
X10994Y198835D01*
X10909Y198938D01*
X10820Y199037D01*
X10729Y199134D01*
X10634Y199229D01*
X10537Y199320D01*
X10438Y199409D01*
X10335Y199494D01*
X10231Y199577D01*
X10123Y199656D01*
X10014Y199732D01*
X9902Y199805D01*
X9788Y199875D01*
X9673Y199941D01*
X9555Y200003D01*
X9435Y200063D01*
X9314Y200118D01*
X9191Y200170D01*
X9067Y200218D01*
X8941Y200263D01*
X8814Y200304D01*
X8686Y200341D01*
X8557Y200374D01*
X8427Y200404D01*
X8296Y200429D01*
X8164Y200451D01*
X8032Y200468D01*
X7900Y200482D01*
X7767Y200492D01*
X7633Y200498D01*
X7500Y200500D01*
X7367Y200498D01*
X7233Y200492D01*
X7100Y200482D01*
X6968Y200468D01*
X6836Y200451D01*
X6704Y200429D01*
X6573Y200404D01*
X6443Y200374D01*
X6314Y200341D01*
X6186Y200304D01*
X6059Y200263D01*
X5933Y200218D01*
X5809Y200170D01*
X5686Y200118D01*
X5565Y200063D01*
X5445Y200003D01*
X5327Y199941D01*
X5212Y199875D01*
X5098Y199805D01*
X4986Y199732D01*
X4877Y199656D01*
X4769Y199577D01*
X4665Y199494D01*
X4562Y199409D01*
X4463Y199320D01*
X4366Y199229D01*
X4271Y199134D01*
X4180Y199037D01*
X4091Y198938D01*
X4006Y198835D01*
X3923Y198731D01*
X3844Y198623D01*
X3768Y198514D01*
X3695Y198402D01*
X3625Y198288D01*
X3559Y198173D01*
X3497Y198055D01*
X3437Y197935D01*
X3382Y197814D01*
X3330Y197691D01*
X3282Y197567D01*
X3237Y197441D01*
X3196Y197314D01*
X3159Y197186D01*
X3126Y197057D01*
X3096Y196927D01*
X3071Y196796D01*
X3049Y196664D01*
X3032Y196532D01*
X3018Y196400D01*
X3008Y196267D01*
X3002Y196133D01*
X3000Y196000D01*
X3000Y184000D02*
X3002Y183867D01*
X3008Y183733D01*
X3018Y183600D01*
X3032Y183468D01*
X3049Y183336D01*
X3071Y183204D01*
X3096Y183073D01*
X3126Y182943D01*
X3159Y182814D01*
X3196Y182686D01*
X3237Y182559D01*
X3282Y182433D01*
X3330Y182309D01*
X3382Y182186D01*
X3437Y182065D01*
X3497Y181945D01*
X3559Y181827D01*
X3625Y181712D01*
X3695Y181598D01*
X3768Y181486D01*
X3844Y181377D01*
X3923Y181269D01*
X4006Y181165D01*
X4091Y181062D01*
X4180Y180963D01*
X4271Y180866D01*
X4366Y180771D01*
X4463Y180680D01*
X4562Y180591D01*
X4665Y180506D01*
X4769Y180423D01*
X4877Y180344D01*
X4986Y180268D01*
X5098Y180195D01*
X5212Y180125D01*
X5327Y180059D01*
X5445Y179997D01*
X5565Y179937D01*
X5686Y179882D01*
X5809Y179830D01*
X5933Y179782D01*
X6059Y179737D01*
X6186Y179696D01*
X6314Y179659D01*
X6443Y179626D01*
X6573Y179596D01*
X6704Y179571D01*
X6836Y179549D01*
X6968Y179532D01*
X7100Y179518D01*
X7233Y179508D01*
X7367Y179502D01*
X7500Y179500D01*
X7633Y179502D01*
X7767Y179508D01*
X7900Y179518D01*
X8032Y179532D01*
X8164Y179549D01*
X8296Y179571D01*
X8427Y179596D01*
X8557Y179626D01*
X8686Y179659D01*
X8814Y179696D01*
X8941Y179737D01*
X9067Y179782D01*
X9191Y179830D01*
X9314Y179882D01*
X9435Y179937D01*
X9555Y179997D01*
X9673Y180059D01*
X9788Y180125D01*
X9902Y180195D01*
X10014Y180268D01*
X10123Y180344D01*
X10231Y180423D01*
X10335Y180506D01*
X10438Y180591D01*
X10537Y180680D01*
X10634Y180771D01*
X10729Y180866D01*
X10820Y180963D01*
X10909Y181062D01*
X10994Y181165D01*
X11077Y181269D01*
X11156Y181377D01*
X11232Y181486D01*
X11305Y181598D01*
X11375Y181712D01*
X11441Y181827D01*
X11503Y181945D01*
X11563Y182065D01*
X11618Y182186D01*
X11670Y182309D01*
X11718Y182433D01*
X11763Y182559D01*
X11804Y182686D01*
X11841Y182814D01*
X11874Y182943D01*
X11904Y183073D01*
X11929Y183204D01*
X11951Y183336D01*
X11968Y183468D01*
X11982Y183600D01*
X11992Y183733D01*
X11998Y183867D01*
X12000Y184000D01*
X12000Y196000D02*
X11998Y196133D01*
X11992Y196267D01*
X11982Y196400D01*
X11968Y196532D01*
X11951Y196664D01*
X11929Y196796D01*
X11904Y196927D01*
X11874Y197057D01*
X11841Y197186D01*
X11804Y197314D01*
X11763Y197441D01*
X11718Y197567D01*
X11670Y197691D01*
X11618Y197814D01*
X11563Y197935D01*
X11503Y198055D01*
X11441Y198173D01*
X11375Y198288D01*
X11305Y198402D01*
X11232Y198514D01*
X11156Y198623D01*
X11077Y198731D01*
X10994Y198835D01*
X10909Y198938D01*
X10820Y199037D01*
X10729Y199134D01*
X10634Y199229D01*
X10537Y199320D01*
X10438Y199409D01*
X10335Y199494D01*
X10231Y199577D01*
X10123Y199656D01*
X10014Y199732D01*
X9902Y199805D01*
X9788Y199875D01*
X9673Y199941D01*
X9555Y200003D01*
X9435Y200063D01*
X9314Y200118D01*
X9191Y200170D01*
X9067Y200218D01*
X8941Y200263D01*
X8814Y200304D01*
X8686Y200341D01*
X8557Y200374D01*
X8427Y200404D01*
X8296Y200429D01*
X8164Y200451D01*
X8032Y200468D01*
X7900Y200482D01*
X7767Y200492D01*
X7633Y200498D01*
X7500Y200500D01*
X7367Y200498D01*
X7233Y200492D01*
X7100Y200482D01*
X6968Y200468D01*
X6836Y200451D01*
X6704Y200429D01*
X6573Y200404D01*
X6443Y200374D01*
X6314Y200341D01*
X6186Y200304D01*
X6059Y200263D01*
X5933Y200218D01*
X5809Y200170D01*
X5686Y200118D01*
X5565Y200063D01*
X5445Y200003D01*
X5327Y199941D01*
X5212Y199875D01*
X5098Y199805D01*
X4986Y199732D01*
X4877Y199656D01*
X4769Y199577D01*
X4665Y199494D01*
X4562Y199409D01*
X4463Y199320D01*
X4366Y199229D01*
X4271Y199134D01*
X4180Y199037D01*
X4091Y198938D01*
X4006Y198835D01*
X3923Y198731D01*
X3844Y198623D01*
X3768Y198514D01*
X3695Y198402D01*
X3625Y198288D01*
X3559Y198173D01*
X3497Y198055D01*
X3437Y197935D01*
X3382Y197814D01*
X3330Y197691D01*
X3282Y197567D01*
X3237Y197441D01*
X3196Y197314D01*
X3159Y197186D01*
X3126Y197057D01*
X3096Y196927D01*
X3071Y196796D01*
X3049Y196664D01*
X3032Y196532D01*
X3018Y196400D01*
X3008Y196267D01*
X3002Y196133D01*
X3000Y196000D01*
X3000Y184000D02*
X3002Y183867D01*
X3008Y183733D01*
X3018Y183600D01*
X3032Y183468D01*
X3049Y183336D01*
X3071Y183204D01*
X3096Y183073D01*
X3126Y182943D01*
X3159Y182814D01*
X3196Y182686D01*
X3237Y182559D01*
X3282Y182433D01*
X3330Y182309D01*
X3382Y182186D01*
X3437Y182065D01*
X3497Y181945D01*
X3559Y181827D01*
X3625Y181712D01*
X3695Y181598D01*
X3768Y181486D01*
X3844Y181377D01*
X3923Y181269D01*
X4006Y181165D01*
X4091Y181062D01*
X4180Y180963D01*
X4271Y180866D01*
X4366Y180771D01*
X4463Y180680D01*
X4562Y180591D01*
X4665Y180506D01*
X4769Y180423D01*
X4877Y180344D01*
X4986Y180268D01*
X5098Y180195D01*
X5212Y180125D01*
X5327Y180059D01*
X5445Y179997D01*
X5565Y179937D01*
X5686Y179882D01*
X5809Y179830D01*
X5933Y179782D01*
X6059Y179737D01*
X6186Y179696D01*
X6314Y179659D01*
X6443Y179626D01*
X6573Y179596D01*
X6704Y179571D01*
X6836Y179549D01*
X6968Y179532D01*
X7100Y179518D01*
X7233Y179508D01*
X7367Y179502D01*
X7500Y179500D01*
X7633Y179502D01*
X7767Y179508D01*
X7900Y179518D01*
X8032Y179532D01*
X8164Y179549D01*
X8296Y179571D01*
X8427Y179596D01*
X8557Y179626D01*
X8686Y179659D01*
X8814Y179696D01*
X8941Y179737D01*
X9067Y179782D01*
X9191Y179830D01*
X9314Y179882D01*
X9435Y179937D01*
X9555Y179997D01*
X9673Y180059D01*
X9788Y180125D01*
X9902Y180195D01*
X10014Y180268D01*
X10123Y180344D01*
X10231Y180423D01*
X10335Y180506D01*
X10438Y180591D01*
X10537Y180680D01*
X10634Y180771D01*
X10729Y180866D01*
X10820Y180963D01*
X10909Y181062D01*
X10994Y181165D01*
X11077Y181269D01*
X11156Y181377D01*
X11232Y181486D01*
X11305Y181598D01*
X11375Y181712D01*
X11441Y181827D01*
X11503Y181945D01*
X11563Y182065D01*
X11618Y182186D01*
X11670Y182309D01*
X11718Y182433D01*
X11763Y182559D01*
X11804Y182686D01*
X11841Y182814D01*
X11874Y182943D01*
X11904Y183073D01*
X11929Y183204D01*
X11951Y183336D01*
X11968Y183468D01*
X11982Y183600D01*
X11992Y183733D01*
X11998Y183867D01*
X12000Y184000D01*
X12000Y196000D01*
X11998Y196133D01*
X11992Y196267D01*
X11982Y196400D01*
X11968Y196532D01*
X11951Y196664D01*
X11929Y196796D01*
X11904Y196927D01*
X11874Y197057D01*
X11841Y197186D01*
X11804Y197314D01*
X11763Y197441D01*
X11718Y197567D01*
X11670Y197691D01*
X11618Y197814D01*
X11563Y197935D01*
X11503Y198055D01*
X11441Y198173D01*
X11375Y198288D01*
X11305Y198402D01*
X11232Y198514D01*
X11156Y198623D01*
X11077Y198731D01*
X10994Y198835D01*
X10909Y198938D01*
X10820Y199037D01*
X10729Y199134D01*
X10634Y199229D01*
X10537Y199320D01*
X10438Y199409D01*
X10335Y199494D01*
X10231Y199577D01*
X10123Y199656D01*
X10014Y199732D01*
X9902Y199805D01*
X9788Y199875D01*
X9673Y199941D01*
X9555Y200003D01*
X9435Y200063D01*
X9314Y200118D01*
X9191Y200170D01*
X9067Y200218D01*
X8941Y200263D01*
X8814Y200304D01*
X8686Y200341D01*
X8557Y200374D01*
X8427Y200404D01*
X8296Y200429D01*
X8164Y200451D01*
X8032Y200468D01*
X7900Y200482D01*
X7767Y200492D01*
X7633Y200498D01*
X7500Y200500D01*
X7367Y200498D01*
X7233Y200492D01*
X7100Y200482D01*
X6968Y200468D01*
X6836Y200451D01*
X6704Y200429D01*
X6573Y200404D01*
X6443Y200374D01*
X6314Y200341D01*
X6186Y200304D01*
X6059Y200263D01*
X5933Y200218D01*
X5809Y200170D01*
X5686Y200118D01*
X5565Y200063D01*
X5445Y200003D01*
X5327Y199941D01*
X5212Y199875D01*
X5098Y199805D01*
X4986Y199732D01*
X4877Y199656D01*
X4769Y199577D01*
X4665Y199494D01*
X4562Y199409D01*
X4463Y199320D01*
X4366Y199229D01*
X4271Y199134D01*
X4180Y199037D01*
X4091Y198938D01*
X4006Y198835D01*
X3923Y198731D01*
X3844Y198623D01*
X3768Y198514D01*
X3695Y198402D01*
X3625Y198288D01*
X3559Y198173D01*
X3497Y198055D01*
X3437Y197935D01*
X3382Y197814D01*
X3330Y197691D01*
X3282Y197567D01*
X3237Y197441D01*
X3196Y197314D01*
X3159Y197186D01*
X3126Y197057D01*
X3096Y196927D01*
X3071Y196796D01*
X3049Y196664D01*
X3032Y196532D01*
X3018Y196400D01*
X3008Y196267D01*
X3002Y196133D01*
X3000Y196000D01*
X3000Y184000D01*
X3002Y183867D01*
X3008Y183733D01*
X3018Y183600D01*
X3032Y183468D01*
X3049Y183336D01*
X3071Y183204D01*
X3096Y183073D01*
X3126Y182943D01*
X3159Y182814D01*
X3196Y182686D01*
X3237Y182559D01*
X3282Y182433D01*
X3330Y182309D01*
X3382Y182186D01*
X3437Y182065D01*
X3497Y181945D01*
X3559Y181827D01*
X3625Y181712D01*
X3695Y181598D01*
X3768Y181486D01*
X3844Y181377D01*
X3923Y181269D01*
X4006Y181165D01*
X4091Y181062D01*
X4180Y180963D01*
X4271Y180866D01*
X4366Y180771D01*
X4463Y180680D01*
X4562Y180591D01*
X4665Y180506D01*
X4769Y180423D01*
X4877Y180344D01*
X4986Y180268D01*
X5098Y180195D01*
X5212Y180125D01*
X5327Y180059D01*
X5445Y179997D01*
X5565Y179937D01*
X5686Y179882D01*
X5809Y179830D01*
X5933Y179782D01*
X6059Y179737D01*
X6186Y179696D01*
X6314Y179659D01*
X6443Y179626D01*
X6573Y179596D01*
X6704Y179571D01*
X6836Y179549D01*
X6968Y179532D01*
X7100Y179518D01*
X7233Y179508D01*
X7367Y179502D01*
X7500Y179500D01*
X7633Y179502D01*
X7767Y179508D01*
X7900Y179518D01*
X8032Y179532D01*
X8164Y179549D01*
X8296Y179571D01*
X8427Y179596D01*
X8557Y179626D01*
X8686Y179659D01*
X8814Y179696D01*
X8941Y179737D01*
X9067Y179782D01*
X9191Y179830D01*
X9314Y179882D01*
X9435Y179937D01*
X9555Y179997D01*
X9673Y180059D01*
X9788Y180125D01*
X9902Y180195D01*
X10014Y180268D01*
X10123Y180344D01*
X10231Y180423D01*
X10335Y180506D01*
X10438Y180591D01*
X10537Y180680D01*
X10634Y180771D01*
X10729Y180866D01*
X10820Y180963D01*
X10909Y181062D01*
X10994Y181165D01*
X11077Y181269D01*
X11156Y181377D01*
X11232Y181486D01*
X11305Y181598D01*
X11375Y181712D01*
X11441Y181827D01*
X11503Y181945D01*
X11563Y182065D01*
X11618Y182186D01*
X11670Y182309D01*
X11718Y182433D01*
X11763Y182559D01*
X11804Y182686D01*
X11841Y182814D01*
X11874Y182943D01*
X11904Y183073D01*
X11929Y183204D01*
X11951Y183336D01*
X11968Y183468D01*
X11982Y183600D01*
X11992Y183733D01*
X11998Y183867D01*
X12000Y184000D01*
X148000Y196000D02*
X148002Y196133D01*
X148008Y196267D01*
X148018Y196400D01*
X148032Y196532D01*
X148049Y196664D01*
X148071Y196796D01*
X148096Y196927D01*
X148126Y197057D01*
X148159Y197186D01*
X148196Y197314D01*
X148237Y197441D01*
X148282Y197567D01*
X148330Y197691D01*
X148382Y197814D01*
X148437Y197935D01*
X148497Y198055D01*
X148559Y198173D01*
X148625Y198288D01*
X148695Y198402D01*
X148768Y198514D01*
X148844Y198623D01*
X148923Y198731D01*
X149006Y198835D01*
X149091Y198938D01*
X149180Y199037D01*
X149271Y199134D01*
X149366Y199229D01*
X149463Y199320D01*
X149562Y199409D01*
X149665Y199494D01*
X149769Y199577D01*
X149877Y199656D01*
X149986Y199732D01*
X150098Y199805D01*
X150212Y199875D01*
X150327Y199941D01*
X150445Y200003D01*
X150565Y200063D01*
X150686Y200118D01*
X150809Y200170D01*
X150933Y200218D01*
X151059Y200263D01*
X151186Y200304D01*
X151314Y200341D01*
X151443Y200374D01*
X151573Y200404D01*
X151704Y200429D01*
X151836Y200451D01*
X151968Y200468D01*
X152100Y200482D01*
X152233Y200492D01*
X152367Y200498D01*
X152500Y200500D01*
X152633Y200498D01*
X152767Y200492D01*
X152900Y200482D01*
X153032Y200468D01*
X153164Y200451D01*
X153296Y200429D01*
X153427Y200404D01*
X153557Y200374D01*
X153686Y200341D01*
X153814Y200304D01*
X153941Y200263D01*
X154067Y200218D01*
X154191Y200170D01*
X154314Y200118D01*
X154435Y200063D01*
X154555Y200003D01*
X154673Y199941D01*
X154788Y199875D01*
X154902Y199805D01*
X155014Y199732D01*
X155123Y199656D01*
X155231Y199577D01*
X155335Y199494D01*
X155438Y199409D01*
X155537Y199320D01*
X155634Y199229D01*
X155729Y199134D01*
X155820Y199037D01*
X155909Y198938D01*
X155994Y198835D01*
X156077Y198731D01*
X156156Y198623D01*
X156232Y198514D01*
X156305Y198402D01*
X156375Y198288D01*
X156441Y198173D01*
X156503Y198055D01*
X156563Y197935D01*
X156618Y197814D01*
X156670Y197691D01*
X156718Y197567D01*
X156763Y197441D01*
X156804Y197314D01*
X156841Y197186D01*
X156874Y197057D01*
X156904Y196927D01*
X156929Y196796D01*
X156951Y196664D01*
X156968Y196532D01*
X156982Y196400D01*
X156992Y196267D01*
X156998Y196133D01*
X157000Y196000D01*
X157000Y184000D02*
X156998Y183867D01*
X156992Y183733D01*
X156982Y183600D01*
X156968Y183468D01*
X156951Y183336D01*
X156929Y183204D01*
X156904Y183073D01*
X156874Y182943D01*
X156841Y182814D01*
X156804Y182686D01*
X156763Y182559D01*
X156718Y182433D01*
X156670Y182309D01*
X156618Y182186D01*
X156563Y182065D01*
X156503Y181945D01*
X156441Y181827D01*
X156375Y181712D01*
X156305Y181598D01*
X156232Y181486D01*
X156156Y181377D01*
X156077Y181269D01*
X155994Y181165D01*
X155909Y181062D01*
X155820Y180963D01*
X155729Y180866D01*
X155634Y180771D01*
X155537Y180680D01*
X155438Y180591D01*
X155335Y180506D01*
X155231Y180423D01*
X155123Y180344D01*
X155014Y180268D01*
X154902Y180195D01*
X154788Y180125D01*
X154673Y180059D01*
X154555Y179997D01*
X154435Y179937D01*
X154314Y179882D01*
X154191Y179830D01*
X154067Y179782D01*
X153941Y179737D01*
X153814Y179696D01*
X153686Y179659D01*
X153557Y179626D01*
X153427Y179596D01*
X153296Y179571D01*
X153164Y179549D01*
X153032Y179532D01*
X152900Y179518D01*
X152767Y179508D01*
X152633Y179502D01*
X152500Y179500D01*
X152367Y179502D01*
X152233Y179508D01*
X152100Y179518D01*
X151968Y179532D01*
X151836Y179549D01*
X151704Y179571D01*
X151573Y179596D01*
X151443Y179626D01*
X151314Y179659D01*
X151186Y179696D01*
X151059Y179737D01*
X150933Y179782D01*
X150809Y179830D01*
X150686Y179882D01*
X150565Y179937D01*
X150445Y179997D01*
X150327Y180059D01*
X150212Y180125D01*
X150098Y180195D01*
X149986Y180268D01*
X149877Y180344D01*
X149769Y180423D01*
X149665Y180506D01*
X149562Y180591D01*
X149463Y180680D01*
X149366Y180771D01*
X149271Y180866D01*
X149180Y180963D01*
X149091Y181062D01*
X149006Y181165D01*
X148923Y181269D01*
X148844Y181377D01*
X148768Y181486D01*
X148695Y181598D01*
X148625Y181712D01*
X148559Y181827D01*
X148497Y181945D01*
X148437Y182065D01*
X148382Y182186D01*
X148330Y182309D01*
X148282Y182433D01*
X148237Y182559D01*
X148196Y182686D01*
X148159Y182814D01*
X148126Y182943D01*
X148096Y183073D01*
X148071Y183204D01*
X148049Y183336D01*
X148032Y183468D01*
X148018Y183600D01*
X148008Y183733D01*
X148002Y183867D01*
X148000Y184000D01*
X148000Y196000D02*
X148002Y196133D01*
X148008Y196267D01*
X148018Y196400D01*
X148032Y196532D01*
X148049Y196664D01*
X148071Y196796D01*
X148096Y196927D01*
X148126Y197057D01*
X148159Y197186D01*
X148196Y197314D01*
X148237Y197441D01*
X148282Y197567D01*
X148330Y197691D01*
X148382Y197814D01*
X148437Y197935D01*
X148497Y198055D01*
X148559Y198173D01*
X148625Y198288D01*
X148695Y198402D01*
X148768Y198514D01*
X148844Y198623D01*
X148923Y198731D01*
X149006Y198835D01*
X149091Y198938D01*
X149180Y199037D01*
X149271Y199134D01*
X149366Y199229D01*
X149463Y199320D01*
X149562Y199409D01*
X149665Y199494D01*
X149769Y199577D01*
X149877Y199656D01*
X149986Y199732D01*
X150098Y199805D01*
X150212Y199875D01*
X150327Y199941D01*
X150445Y200003D01*
X150565Y200063D01*
X150686Y200118D01*
X150809Y200170D01*
X150933Y200218D01*
X151059Y200263D01*
X151186Y200304D01*
X151314Y200341D01*
X151443Y200374D01*
X151573Y200404D01*
X151704Y200429D01*
X151836Y200451D01*
X151968Y200468D01*
X152100Y200482D01*
X152233Y200492D01*
X152367Y200498D01*
X152500Y200500D01*
X152633Y200498D01*
X152767Y200492D01*
X152900Y200482D01*
X153032Y200468D01*
X153164Y200451D01*
X153296Y200429D01*
X153427Y200404D01*
X153557Y200374D01*
X153686Y200341D01*
X153814Y200304D01*
X153941Y200263D01*
X154067Y200218D01*
X154191Y200170D01*
X154314Y200118D01*
X154435Y200063D01*
X154555Y200003D01*
X154673Y199941D01*
X154788Y199875D01*
X154902Y199805D01*
X155014Y199732D01*
X155123Y199656D01*
X155231Y199577D01*
X155335Y199494D01*
X155438Y199409D01*
X155537Y199320D01*
X155634Y199229D01*
X155729Y199134D01*
X155820Y199037D01*
X155909Y198938D01*
X155994Y198835D01*
X156077Y198731D01*
X156156Y198623D01*
X156232Y198514D01*
X156305Y198402D01*
X156375Y198288D01*
X156441Y198173D01*
X156503Y198055D01*
X156563Y197935D01*
X156618Y197814D01*
X156670Y197691D01*
X156718Y197567D01*
X156763Y197441D01*
X156804Y197314D01*
X156841Y197186D01*
X156874Y197057D01*
X156904Y196927D01*
X156929Y196796D01*
X156951Y196664D01*
X156968Y196532D01*
X156982Y196400D01*
X156992Y196267D01*
X156998Y196133D01*
X157000Y196000D01*
X157000Y184000D02*
X156998Y183867D01*
X156992Y183733D01*
X156982Y183600D01*
X156968Y183468D01*
X156951Y183336D01*
X156929Y183204D01*
X156904Y183073D01*
X156874Y182943D01*
X156841Y182814D01*
X156804Y182686D01*
X156763Y182559D01*
X156718Y182433D01*
X156670Y182309D01*
X156618Y182186D01*
X156563Y182065D01*
X156503Y181945D01*
X156441Y181827D01*
X156375Y181712D01*
X156305Y181598D01*
X156232Y181486D01*
X156156Y181377D01*
X156077Y181269D01*
X155994Y181165D01*
X155909Y181062D01*
X155820Y180963D01*
X155729Y180866D01*
X155634Y180771D01*
X155537Y180680D01*
X155438Y180591D01*
X155335Y180506D01*
X155231Y180423D01*
X155123Y180344D01*
X155014Y180268D01*
X154902Y180195D01*
X154788Y180125D01*
X154673Y180059D01*
X154555Y179997D01*
X154435Y179937D01*
X154314Y179882D01*
X154191Y179830D01*
X154067Y179782D01*
X153941Y179737D01*
X153814Y179696D01*
X153686Y179659D01*
X153557Y179626D01*
X153427Y179596D01*
X153296Y179571D01*
X153164Y179549D01*
X153032Y179532D01*
X152900Y179518D01*
X152767Y179508D01*
X152633Y179502D01*
X152500Y179500D01*
X152367Y179502D01*
X152233Y179508D01*
X152100Y179518D01*
X151968Y179532D01*
X151836Y179549D01*
X151704Y179571D01*
X151573Y179596D01*
X151443Y179626D01*
X151314Y179659D01*
X151186Y179696D01*
X151059Y179737D01*
X150933Y179782D01*
X150809Y179830D01*
X150686Y179882D01*
X150565Y179937D01*
X150445Y179997D01*
X150327Y180059D01*
X150212Y180125D01*
X150098Y180195D01*
X149986Y180268D01*
X149877Y180344D01*
X149769Y180423D01*
X149665Y180506D01*
X149562Y180591D01*
X149463Y180680D01*
X149366Y180771D01*
X149271Y180866D01*
X149180Y180963D01*
X149091Y181062D01*
X149006Y181165D01*
X148923Y181269D01*
X148844Y181377D01*
X148768Y181486D01*
X148695Y181598D01*
X148625Y181712D01*
X148559Y181827D01*
X148497Y181945D01*
X148437Y182065D01*
X148382Y182186D01*
X148330Y182309D01*
X148282Y182433D01*
X148237Y182559D01*
X148196Y182686D01*
X148159Y182814D01*
X148126Y182943D01*
X148096Y183073D01*
X148071Y183204D01*
X148049Y183336D01*
X148032Y183468D01*
X148018Y183600D01*
X148008Y183733D01*
X148002Y183867D01*
X148000Y184000D01*
X148000Y196000D02*
X148002Y196133D01*
X148008Y196267D01*
X148018Y196400D01*
X148032Y196532D01*
X148049Y196664D01*
X148071Y196796D01*
X148096Y196927D01*
X148126Y197057D01*
X148159Y197186D01*
X148196Y197314D01*
X148237Y197441D01*
X148282Y197567D01*
X148330Y197691D01*
X148382Y197814D01*
X148437Y197935D01*
X148497Y198055D01*
X148559Y198173D01*
X148625Y198288D01*
X148695Y198402D01*
X148768Y198514D01*
X148844Y198623D01*
X148923Y198731D01*
X149006Y198835D01*
X149091Y198938D01*
X149180Y199037D01*
X149271Y199134D01*
X149366Y199229D01*
X149463Y199320D01*
X149562Y199409D01*
X149665Y199494D01*
X149769Y199577D01*
X149877Y199656D01*
X149986Y199732D01*
X150098Y199805D01*
X150212Y199875D01*
X150327Y199941D01*
X150445Y200003D01*
X150565Y200063D01*
X150686Y200118D01*
X150809Y200170D01*
X150933Y200218D01*
X151059Y200263D01*
X151186Y200304D01*
X151314Y200341D01*
X151443Y200374D01*
X151573Y200404D01*
X151704Y200429D01*
X151836Y200451D01*
X151968Y200468D01*
X152100Y200482D01*
X152233Y200492D01*
X152367Y200498D01*
X152500Y200500D01*
X152633Y200498D01*
X152767Y200492D01*
X152900Y200482D01*
X153032Y200468D01*
X153164Y200451D01*
X153296Y200429D01*
X153427Y200404D01*
X153557Y200374D01*
X153686Y200341D01*
X153814Y200304D01*
X153941Y200263D01*
X154067Y200218D01*
X154191Y200170D01*
X154314Y200118D01*
X154435Y200063D01*
X154555Y200003D01*
X154673Y199941D01*
X154788Y199875D01*
X154902Y199805D01*
X155014Y199732D01*
X155123Y199656D01*
X155231Y199577D01*
X155335Y199494D01*
X155438Y199409D01*
X155537Y199320D01*
X155634Y199229D01*
X155729Y199134D01*
X155820Y199037D01*
X155909Y198938D01*
X155994Y198835D01*
X156077Y198731D01*
X156156Y198623D01*
X156232Y198514D01*
X156305Y198402D01*
X156375Y198288D01*
X156441Y198173D01*
X156503Y198055D01*
X156563Y197935D01*
X156618Y197814D01*
X156670Y197691D01*
X156718Y197567D01*
X156763Y197441D01*
X156804Y197314D01*
X156841Y197186D01*
X156874Y197057D01*
X156904Y196927D01*
X156929Y196796D01*
X156951Y196664D01*
X156968Y196532D01*
X156982Y196400D01*
X156992Y196267D01*
X156998Y196133D01*
X157000Y196000D01*
X157000Y184000D02*
X156998Y183867D01*
X156992Y183733D01*
X156982Y183600D01*
X156968Y183468D01*
X156951Y183336D01*
X156929Y183204D01*
X156904Y183073D01*
X156874Y182943D01*
X156841Y182814D01*
X156804Y182686D01*
X156763Y182559D01*
X156718Y182433D01*
X156670Y182309D01*
X156618Y182186D01*
X156563Y182065D01*
X156503Y181945D01*
X156441Y181827D01*
X156375Y181712D01*
X156305Y181598D01*
X156232Y181486D01*
X156156Y181377D01*
X156077Y181269D01*
X155994Y181165D01*
X155909Y181062D01*
X155820Y180963D01*
X155729Y180866D01*
X155634Y180771D01*
X155537Y180680D01*
X155438Y180591D01*
X155335Y180506D01*
X155231Y180423D01*
X155123Y180344D01*
X155014Y180268D01*
X154902Y180195D01*
X154788Y180125D01*
X154673Y180059D01*
X154555Y179997D01*
X154435Y179937D01*
X154314Y179882D01*
X154191Y179830D01*
X154067Y179782D01*
X153941Y179737D01*
X153814Y179696D01*
X153686Y179659D01*
X153557Y179626D01*
X153427Y179596D01*
X153296Y179571D01*
X153164Y179549D01*
X153032Y179532D01*
X152900Y179518D01*
X152767Y179508D01*
X152633Y179502D01*
X152500Y179500D01*
X152367Y179502D01*
X152233Y179508D01*
X152100Y179518D01*
X151968Y179532D01*
X151836Y179549D01*
X151704Y179571D01*
X151573Y179596D01*
X151443Y179626D01*
X151314Y179659D01*
X151186Y179696D01*
X151059Y179737D01*
X150933Y179782D01*
X150809Y179830D01*
X150686Y179882D01*
X150565Y179937D01*
X150445Y179997D01*
X150327Y180059D01*
X150212Y180125D01*
X150098Y180195D01*
X149986Y180268D01*
X149877Y180344D01*
X149769Y180423D01*
X149665Y180506D01*
X149562Y180591D01*
X149463Y180680D01*
X149366Y180771D01*
X149271Y180866D01*
X149180Y180963D01*
X149091Y181062D01*
X149006Y181165D01*
X148923Y181269D01*
X148844Y181377D01*
X148768Y181486D01*
X148695Y181598D01*
X148625Y181712D01*
X148559Y181827D01*
X148497Y181945D01*
X148437Y182065D01*
X148382Y182186D01*
X148330Y182309D01*
X148282Y182433D01*
X148237Y182559D01*
X148196Y182686D01*
X148159Y182814D01*
X148126Y182943D01*
X148096Y183073D01*
X148071Y183204D01*
X148049Y183336D01*
X148032Y183468D01*
X148018Y183600D01*
X148008Y183733D01*
X148002Y183867D01*
X148000Y184000D01*
X157000Y184000D02*
X157000Y196000D01*
X156998Y196133D01*
X156992Y196267D01*
X156982Y196400D01*
X156968Y196532D01*
X156951Y196664D01*
X156929Y196796D01*
X156904Y196927D01*
X156874Y197057D01*
X156841Y197186D01*
X156804Y197314D01*
X156763Y197441D01*
X156718Y197567D01*
X156670Y197691D01*
X156618Y197814D01*
X156563Y197935D01*
X156503Y198055D01*
X156441Y198173D01*
X156375Y198288D01*
X156305Y198402D01*
X156232Y198514D01*
X156156Y198623D01*
X156077Y198731D01*
X155994Y198835D01*
X155909Y198938D01*
X155820Y199037D01*
X155729Y199134D01*
X155634Y199229D01*
X155537Y199320D01*
X155438Y199409D01*
X155335Y199494D01*
X155231Y199577D01*
X155123Y199656D01*
X155014Y199732D01*
X154902Y199805D01*
X154788Y199875D01*
X154673Y199941D01*
X154555Y200003D01*
X154435Y200063D01*
X154314Y200118D01*
X154191Y200170D01*
X154067Y200218D01*
X153941Y200263D01*
X153814Y200304D01*
X153686Y200341D01*
X153557Y200374D01*
X153427Y200404D01*
X153296Y200429D01*
X153164Y200451D01*
X153032Y200468D01*
X152900Y200482D01*
X152767Y200492D01*
X152633Y200498D01*
X152500Y200500D01*
X152367Y200498D01*
X152233Y200492D01*
X152100Y200482D01*
X151968Y200468D01*
X151836Y200451D01*
X151704Y200429D01*
X151573Y200404D01*
X151443Y200374D01*
X151314Y200341D01*
X151186Y200304D01*
X151059Y200263D01*
X150933Y200218D01*
X150809Y200170D01*
X150686Y200118D01*
X150565Y200063D01*
X150445Y200003D01*
X150327Y199941D01*
X150212Y199875D01*
X150098Y199805D01*
X149986Y199732D01*
X149877Y199656D01*
X149769Y199577D01*
X149665Y199494D01*
X149562Y199409D01*
X149463Y199320D01*
X149366Y199229D01*
X149271Y199134D01*
X149180Y199037D01*
X149091Y198938D01*
X149006Y198835D01*
X148923Y198731D01*
X148844Y198623D01*
X148768Y198514D01*
X148695Y198402D01*
X148625Y198288D01*
X148559Y198173D01*
X148497Y198055D01*
X148437Y197935D01*
X148382Y197814D01*
X148330Y197691D01*
X148282Y197567D01*
X148237Y197441D01*
X148196Y197314D01*
X148159Y197186D01*
X148126Y197057D01*
X148096Y196927D01*
X148071Y196796D01*
X148049Y196664D01*
X148032Y196532D01*
X148018Y196400D01*
X148008Y196267D01*
X148002Y196133D01*
X148000Y196000D01*
X148000Y184000D01*
X148002Y183867D01*
X148008Y183733D01*
X148018Y183600D01*
X148032Y183468D01*
X148049Y183336D01*
X148071Y183204D01*
X148096Y183073D01*
X148126Y182943D01*
X148159Y182814D01*
X148196Y182686D01*
X148237Y182559D01*
X148282Y182433D01*
X148330Y182309D01*
X148382Y182186D01*
X148437Y182065D01*
X148497Y181945D01*
X148559Y181827D01*
X148625Y181712D01*
X148695Y181598D01*
X148768Y181486D01*
X148844Y181377D01*
X148923Y181269D01*
X149006Y181165D01*
X149091Y181062D01*
X149180Y180963D01*
X149271Y180866D01*
X149366Y180771D01*
X149463Y180680D01*
X149562Y180591D01*
X149665Y180506D01*
X149769Y180423D01*
X149877Y180344D01*
X149986Y180268D01*
X150098Y180195D01*
X150212Y180125D01*
X150327Y180059D01*
X150445Y179997D01*
X150565Y179937D01*
X150686Y179882D01*
X150809Y179830D01*
X150933Y179782D01*
X151059Y179737D01*
X151186Y179696D01*
X151314Y179659D01*
X151443Y179626D01*
X151573Y179596D01*
X151704Y179571D01*
X151836Y179549D01*
X151968Y179532D01*
X152100Y179518D01*
X152233Y179508D01*
X152367Y179502D01*
X152500Y179500D01*
X152633Y179502D01*
X152767Y179508D01*
X152900Y179518D01*
X153032Y179532D01*
X153164Y179549D01*
X153296Y179571D01*
X153427Y179596D01*
X153557Y179626D01*
X153686Y179659D01*
X153814Y179696D01*
X153941Y179737D01*
X154067Y179782D01*
X154191Y179830D01*
X154314Y179882D01*
X154435Y179937D01*
X154555Y179997D01*
X154673Y180059D01*
X154788Y180125D01*
X154902Y180195D01*
X155014Y180268D01*
X155123Y180344D01*
X155231Y180423D01*
X155335Y180506D01*
X155438Y180591D01*
X155537Y180680D01*
X155634Y180771D01*
X155729Y180866D01*
X155820Y180963D01*
X155909Y181062D01*
X155994Y181165D01*
X156077Y181269D01*
X156156Y181377D01*
X156232Y181486D01*
X156305Y181598D01*
X156375Y181712D01*
X156441Y181827D01*
X156503Y181945D01*
X156563Y182065D01*
X156618Y182186D01*
X156670Y182309D01*
X156718Y182433D01*
X156763Y182559D01*
X156804Y182686D01*
X156841Y182814D01*
X156874Y182943D01*
X156904Y183073D01*
X156929Y183204D01*
X156951Y183336D01*
X156968Y183468D01*
X156982Y183600D01*
X156992Y183733D01*
X156998Y183867D01*
X157000Y184000D01*
D13*
X-12000Y25000D02*
X-11905Y22821D01*
X-11620Y20659D01*
X-11148Y18530D01*
X-10492Y16450D01*
X-9658Y14435D01*
X-8651Y12500D01*
X-7479Y10661D01*
X-6151Y8930D01*
X-4678Y7322D01*
X-3070Y5849D01*
X-1339Y4521D01*
X500Y3349D01*
X2435Y2342D01*
X4450Y1508D01*
X6530Y852D01*
X8659Y380D01*
X10821Y95D01*
X13000Y0D01*
X147000Y0D01*
X149179Y95D01*
X151341Y380D01*
X153470Y852D01*
X155551Y1508D01*
X157565Y2342D01*
X159500Y3349D01*
X161339Y4521D01*
X163070Y5849D01*
X164678Y7322D01*
X166151Y8930D01*
X167479Y10661D01*
X168651Y12500D01*
X169658Y14435D01*
X170492Y16450D01*
X171148Y18530D01*
X171620Y20659D01*
X171905Y22821D01*
X172000Y25000D01*
X172000Y195000D01*
X171905Y197179D01*
X171620Y199341D01*
X171148Y201470D01*
X170492Y203551D01*
X169658Y205565D01*
X168651Y207500D01*
X167479Y209339D01*
X166151Y211070D01*
X164678Y212678D01*
X163070Y214151D01*
X161339Y215479D01*
X159500Y216651D01*
X157565Y217658D01*
X155551Y218492D01*
X153470Y219148D01*
X151341Y219620D01*
X149179Y219905D01*
X147000Y220000D01*
X13000Y220000D01*
X10821Y219905D01*
X8659Y219620D01*
X6530Y219148D01*
X4450Y218492D01*
X2435Y217658D01*
X500Y216651D01*
X-1339Y215479D01*
X-3070Y214151D01*
X-4678Y212678D01*
X-6151Y211070D01*
X-7479Y209339D01*
X-8651Y207500D01*
X-9658Y205565D01*
X-10492Y203551D01*
X-11148Y201470D01*
X-11620Y199341D01*
X-11905Y197179D01*
X-12000Y195000D01*
X-12000Y25000D01*
X148000Y184000D02*
X148017Y183608D01*
X148068Y183219D01*
X148153Y182835D01*
X148271Y182461D01*
X148422Y182098D01*
X148603Y181750D01*
X148814Y181419D01*
X149053Y181107D01*
X149318Y180818D01*
X149607Y180553D01*
X149919Y180314D01*
X150250Y180103D01*
X150598Y179922D01*
X150961Y179771D01*
X151335Y179653D01*
X151719Y179568D01*
X152108Y179517D01*
X152500Y179500D01*
X152892Y179517D01*
X153281Y179568D01*
X153665Y179653D01*
X154039Y179771D01*
X154402Y179922D01*
X154750Y180103D01*
X155081Y180314D01*
X155393Y180553D01*
X155682Y180818D01*
X155947Y181107D01*
X156186Y181419D01*
X156397Y181750D01*
X156578Y182098D01*
X156729Y182461D01*
X156847Y182835D01*
X156932Y183219D01*
X156983Y183608D01*
X157000Y184000D01*
X157000Y196000D01*
X156983Y196392D01*
X156932Y196781D01*
X156847Y197165D01*
X156729Y197539D01*
X156578Y197902D01*
X156397Y198250D01*
X156186Y198581D01*
X155947Y198893D01*
X155682Y199182D01*
X155393Y199447D01*
X155081Y199686D01*
X154750Y199897D01*
X154402Y200078D01*
X154039Y200229D01*
X153665Y200347D01*
X153281Y200432D01*
X152892Y200483D01*
X152500Y200500D01*
X152108Y200483D01*
X151719Y200432D01*
X151335Y200347D01*
X150961Y200229D01*
X150598Y200078D01*
X150250Y199897D01*
X149919Y199686D01*
X149607Y199447D01*
X149318Y199182D01*
X149053Y198893D01*
X148814Y198581D01*
X148603Y198250D01*
X148422Y197902D01*
X148271Y197539D01*
X148153Y197165D01*
X148068Y196781D01*
X148017Y196392D01*
X148000Y196000D01*
X148000Y184000D01*
X3000Y184000D02*
X3017Y183608D01*
X3068Y183219D01*
X3153Y182835D01*
X3271Y182461D01*
X3422Y182098D01*
X3603Y181750D01*
X3814Y181419D01*
X4053Y181107D01*
X4318Y180818D01*
X4607Y180553D01*
X4919Y180314D01*
X5250Y180103D01*
X5598Y179922D01*
X5961Y179771D01*
X6335Y179653D01*
X6719Y179568D01*
X7108Y179517D01*
X7500Y179500D01*
X7892Y179517D01*
X8281Y179568D01*
X8665Y179653D01*
X9039Y179771D01*
X9402Y179922D01*
X9750Y180103D01*
X10081Y180314D01*
X10393Y180553D01*
X10682Y180818D01*
X10947Y181107D01*
X11186Y181419D01*
X11397Y181750D01*
X11578Y182098D01*
X11729Y182461D01*
X11847Y182835D01*
X11932Y183219D01*
X11983Y183608D01*
X12000Y184000D01*
X12000Y196000D01*
X11983Y196392D01*
X11932Y196781D01*
X11847Y197165D01*
X11729Y197539D01*
X11578Y197902D01*
X11397Y198250D01*
X11186Y198581D01*
X10947Y198893D01*
X10682Y199182D01*
X10393Y199447D01*
X10081Y199686D01*
X9750Y199897D01*
X9402Y200078D01*
X9039Y200229D01*
X8665Y200347D01*
X8281Y200432D01*
X7892Y200483D01*
X7500Y200500D01*
X7108Y200483D01*
X6719Y200432D01*
X6335Y200347D01*
X5961Y200229D01*
X5598Y200078D01*
X5250Y199897D01*
X4919Y199686D01*
X4607Y199447D01*
X4318Y199182D01*
X4053Y198893D01*
X3814Y198581D01*
X3603Y198250D01*
X3422Y197902D01*
X3271Y197539D01*
X3153Y197165D01*
X3068Y196781D01*
X3017Y196392D01*
X3000Y196000D01*
X3000Y184000D01*
X148000Y121000D02*
X148017Y120608D01*
X148068Y120219D01*
X148153Y119835D01*
X148271Y119461D01*
X148422Y119098D01*
X148603Y118750D01*
X148814Y118419D01*
X149053Y118107D01*
X149318Y117818D01*
X149607Y117553D01*
X149919Y117314D01*
X150250Y117103D01*
X150598Y116922D01*
X150961Y116771D01*
X151335Y116653D01*
X151719Y116568D01*
X152108Y116517D01*
X152500Y116500D01*
X152892Y116517D01*
X153281Y116568D01*
X153665Y116653D01*
X154039Y116771D01*
X154402Y116922D01*
X154750Y117103D01*
X155081Y117314D01*
X155393Y117553D01*
X155682Y117818D01*
X155947Y118107D01*
X156186Y118419D01*
X156397Y118750D01*
X156578Y119098D01*
X156729Y119461D01*
X156847Y119835D01*
X156932Y120219D01*
X156983Y120608D01*
X157000Y121000D01*
X157000Y139000D01*
X156983Y139392D01*
X156932Y139781D01*
X156847Y140165D01*
X156729Y140539D01*
X156578Y140902D01*
X156397Y141250D01*
X156186Y141581D01*
X155947Y141893D01*
X155682Y142182D01*
X155393Y142447D01*
X155081Y142686D01*
X154750Y142897D01*
X154402Y143078D01*
X154039Y143229D01*
X153665Y143347D01*
X153281Y143432D01*
X152892Y143483D01*
X152500Y143500D01*
X152108Y143483D01*
X151719Y143432D01*
X151335Y143347D01*
X150961Y143229D01*
X150598Y143078D01*
X150250Y142897D01*
X149919Y142686D01*
X149607Y142447D01*
X149318Y142182D01*
X149053Y141893D01*
X148814Y141581D01*
X148603Y141250D01*
X148422Y140902D01*
X148271Y140539D01*
X148153Y140165D01*
X148068Y139781D01*
X148017Y139392D01*
X148000Y139000D01*
X148000Y121000D01*
X3000Y121000D02*
X3017Y120608D01*
X3068Y120219D01*
X3153Y119835D01*
X3271Y119461D01*
X3422Y119098D01*
X3603Y118750D01*
X3814Y118419D01*
X4053Y118107D01*
X4318Y117818D01*
X4607Y117553D01*
X4919Y117314D01*
X5250Y117103D01*
X5598Y116922D01*
X5961Y116771D01*
X6335Y116653D01*
X6719Y116568D01*
X7108Y116517D01*
X7500Y116500D01*
X7892Y116517D01*
X8281Y116568D01*
X8665Y116653D01*
X9039Y116771D01*
X9402Y116922D01*
X9750Y117103D01*
X10081Y117314D01*
X10393Y117553D01*
X10682Y117818D01*
X10947Y118107D01*
X11186Y118419D01*
X11397Y118750D01*
X11578Y119098D01*
X11729Y119461D01*
X11847Y119835D01*
X11932Y120219D01*
X11983Y120608D01*
X12000Y121000D01*
X12000Y139000D01*
X11983Y139392D01*
X11932Y139781D01*
X11847Y140165D01*
X11729Y140539D01*
X11578Y140902D01*
X11397Y141250D01*
X11186Y141581D01*
X10947Y141893D01*
X10682Y142182D01*
X10393Y142447D01*
X10081Y142686D01*
X9750Y142897D01*
X9402Y143078D01*
X9039Y143229D01*
X8665Y143347D01*
X8281Y143432D01*
X7892Y143483D01*
X7500Y143500D01*
X7108Y143483D01*
X6719Y143432D01*
X6335Y143347D01*
X5961Y143229D01*
X5598Y143078D01*
X5250Y142897D01*
X4919Y142686D01*
X4607Y142447D01*
X4318Y142182D01*
X4053Y141893D01*
X3814Y141581D01*
X3603Y141250D01*
X3422Y140902D01*
X3271Y140539D01*
X3153Y140165D01*
X3068Y139781D01*
X3017Y139392D01*
X3000Y139000D01*
X3000Y121000D01*
X167900Y65087D02*
X167835Y64265D01*
X167706Y63450D01*
X167514Y62648D01*
X167259Y61863D01*
X166943Y61101D01*
X166568Y60366D01*
X166137Y59662D01*
X165652Y58995D01*
X165116Y58367D01*
X164533Y57784D01*
X163906Y57248D01*
X163238Y56763D01*
X162534Y56332D01*
X161799Y55957D01*
X161037Y55641D01*
X160252Y55386D01*
X159450Y55194D01*
X158635Y55065D01*
X157813Y55000D01*
X156987Y55000D01*
X156165Y55065D01*
X155350Y55194D01*
X154548Y55386D01*
X153763Y55641D01*
X153001Y55957D01*
X152266Y56332D01*
X151562Y56763D01*
X150895Y57248D01*
X150267Y57784D01*
X149684Y58367D01*
X149148Y58995D01*
X148663Y59662D01*
X148232Y60366D01*
X147857Y61101D01*
X147541Y61863D01*
X147286Y62648D01*
X147094Y63450D01*
X146965Y64265D01*
X146900Y65087D01*
X146900Y65913D01*
X146965Y66735D01*
X147094Y67550D01*
X147286Y68352D01*
X147541Y69137D01*
X147857Y69899D01*
X148232Y70634D01*
X148663Y71338D01*
X149148Y72006D01*
X149684Y72633D01*
X150267Y73216D01*
X150895Y73752D01*
X151562Y74237D01*
X152266Y74668D01*
X153001Y75043D01*
X153763Y75359D01*
X154548Y75614D01*
X155350Y75806D01*
X156165Y75935D01*
X156987Y76000D01*
X157813Y76000D01*
X158635Y75935D01*
X159450Y75806D01*
X160252Y75614D01*
X161037Y75359D01*
X161799Y75043D01*
X162534Y74668D01*
X163238Y74237D01*
X163906Y73752D01*
X164533Y73216D01*
X165116Y72633D01*
X165652Y72006D01*
X166137Y71338D01*
X166568Y70634D01*
X166943Y69899D01*
X167259Y69137D01*
X167514Y68352D01*
X167706Y67550D01*
X167835Y66735D01*
X167900Y65913D01*
X167900Y65087D01*
X14000Y65087D02*
X13935Y64265D01*
X13806Y63450D01*
X13614Y62648D01*
X13359Y61863D01*
X13043Y61101D01*
X12668Y60366D01*
X12237Y59662D01*
X11752Y58995D01*
X11216Y58367D01*
X10633Y57784D01*
X10006Y57248D01*
X9338Y56763D01*
X8634Y56332D01*
X7899Y55957D01*
X7137Y55641D01*
X6352Y55386D01*
X5550Y55194D01*
X4735Y55065D01*
X3913Y55000D01*
X3087Y55000D01*
X2265Y55065D01*
X1450Y55194D01*
X648Y55386D01*
X-137Y55641D01*
X-899Y55957D01*
X-1634Y56332D01*
X-2338Y56763D01*
X-3006Y57248D01*
X-3633Y57784D01*
X-4216Y58367D01*
X-4752Y58995D01*
X-5237Y59662D01*
X-5668Y60366D01*
X-6043Y61101D01*
X-6359Y61863D01*
X-6614Y62648D01*
X-6806Y63450D01*
X-6935Y64265D01*
X-7000Y65087D01*
X-7000Y65913D01*
X-6935Y66735D01*
X-6806Y67550D01*
X-6614Y68352D01*
X-6359Y69137D01*
X-6043Y69899D01*
X-5668Y70634D01*
X-5237Y71338D01*
X-4752Y72006D01*
X-4216Y72633D01*
X-3633Y73216D01*
X-3006Y73752D01*
X-2338Y74237D01*
X-1634Y74668D01*
X-899Y75043D01*
X-137Y75359D01*
X648Y75614D01*
X1450Y75806D01*
X2265Y75935D01*
X3087Y76000D01*
X3913Y76000D01*
X4735Y75935D01*
X5550Y75806D01*
X6352Y75614D01*
X7137Y75359D01*
X7899Y75043D01*
X8634Y74668D01*
X9338Y74237D01*
X10006Y73752D01*
X10633Y73216D01*
X11216Y72633D01*
X11752Y72006D01*
X12237Y71338D01*
X12668Y70634D01*
X13043Y69899D01*
X13359Y69137D01*
X13614Y68352D01*
X13806Y67550D01*
X13935Y66735D01*
X14000Y65913D01*
X14000Y65087D01*
M02*
