G04 EAGLE Gerber RS-274X export*
G75*
%MOMM*%
%FSLAX34Y34*%
%LPD*%
%INTop Solder Mask*%
%IPPOS*%
%AMOC8*
5,1,8,0,0,1.08239X$1,22.5*%
G01*
%ADD10C,2.303200*%
%ADD11R,0.400000X1.400000*%
%ADD12R,1.900000X2.350000*%
%ADD13C,1.981200*%
%ADD14R,0.483200X2.803200*%


D10*
X157400Y65500D03*
X3500Y65500D03*
D11*
X32500Y59500D03*
X37500Y59500D03*
X42500Y59500D03*
X47500Y59500D03*
X52500Y59500D03*
X57500Y59500D03*
X62500Y59500D03*
X67500Y59500D03*
X72500Y59500D03*
X77500Y59500D03*
X82500Y59500D03*
X87500Y59500D03*
X92500Y59500D03*
X97500Y59500D03*
X102500Y59500D03*
X107500Y59500D03*
X112500Y59500D03*
X117500Y59500D03*
X122500Y59500D03*
X127500Y59500D03*
D12*
X146500Y27000D03*
X13500Y27000D03*
D13*
X152500Y121110D02*
X152500Y138890D01*
X7500Y138890D02*
X7500Y121110D01*
X152500Y181110D02*
X152500Y198890D01*
X7500Y198890D02*
X7500Y181110D01*
D14*
X80000Y122000D03*
X75000Y122000D03*
X70000Y122000D03*
X65000Y122000D03*
X60000Y122000D03*
X55000Y122000D03*
X50000Y122000D03*
X45000Y122000D03*
X85000Y122000D03*
X90000Y122000D03*
X95000Y122000D03*
X100000Y122000D03*
X105000Y122000D03*
X110000Y122000D03*
X115000Y122000D03*
X40000Y122000D03*
X35000Y122000D03*
X120000Y122000D03*
X125000Y122000D03*
M02*
