G04 EAGLE Gerber RS-274X export*
G75*
%MOMM*%
%FSLAX34Y34*%
%LPD*%
%INBottom Copper*%
%IPPOS*%
%AMOC8*
5,1,8,0,0,1.08239X$1,22.5*%
G01*
%ADD10C,1.778000*%
%ADD11C,0.706400*%

G36*
X144903Y10161D02*
X144903Y10161D01*
X147000Y10161D01*
X147013Y10164D01*
X147030Y10162D01*
X149292Y10340D01*
X149326Y10351D01*
X149379Y10357D01*
X153682Y11755D01*
X153715Y11775D01*
X153788Y11809D01*
X157448Y14468D01*
X157473Y14497D01*
X157532Y14552D01*
X160191Y18212D01*
X160206Y18248D01*
X160245Y18318D01*
X161643Y22621D01*
X161644Y22634D01*
X161645Y22637D01*
X161645Y22643D01*
X161646Y22656D01*
X161660Y22708D01*
X161838Y24970D01*
X161836Y24983D01*
X161839Y25000D01*
X161839Y27095D01*
X161839Y27097D01*
X161839Y44459D01*
X161828Y44509D01*
X161826Y44560D01*
X161808Y44592D01*
X161800Y44628D01*
X161767Y44667D01*
X161743Y44712D01*
X161713Y44733D01*
X161690Y44761D01*
X161643Y44782D01*
X161601Y44812D01*
X161559Y44820D01*
X161531Y44832D01*
X161501Y44831D01*
X161459Y44839D01*
X153290Y44839D01*
X145697Y47985D01*
X139885Y53797D01*
X136739Y61390D01*
X136739Y69610D01*
X139885Y77203D01*
X145697Y83015D01*
X153290Y86161D01*
X161459Y86161D01*
X161509Y86172D01*
X161560Y86174D01*
X161592Y86192D01*
X161628Y86200D01*
X161667Y86233D01*
X161712Y86257D01*
X161733Y86287D01*
X161761Y86310D01*
X161782Y86357D01*
X161812Y86399D01*
X161820Y86441D01*
X161832Y86469D01*
X161831Y86499D01*
X161839Y86541D01*
X161839Y114803D01*
X161833Y114828D01*
X161836Y114853D01*
X161814Y114911D01*
X161800Y114971D01*
X161783Y114991D01*
X161774Y115015D01*
X161729Y115057D01*
X161690Y115105D01*
X161666Y115116D01*
X161647Y115133D01*
X161588Y115151D01*
X161531Y115176D01*
X161506Y115175D01*
X161481Y115182D01*
X161420Y115172D01*
X161358Y115169D01*
X161336Y115157D01*
X161310Y115153D01*
X161239Y115104D01*
X161206Y115087D01*
X161200Y115078D01*
X161190Y115072D01*
X158399Y112281D01*
X154572Y110695D01*
X150428Y110695D01*
X146601Y112281D01*
X143671Y115211D01*
X142085Y119038D01*
X142085Y140962D01*
X143671Y144789D01*
X146601Y147719D01*
X150428Y149305D01*
X154572Y149305D01*
X158399Y147719D01*
X161190Y144928D01*
X161212Y144915D01*
X161228Y144895D01*
X161285Y144870D01*
X161337Y144837D01*
X161363Y144835D01*
X161387Y144824D01*
X161448Y144826D01*
X161510Y144821D01*
X161534Y144830D01*
X161560Y144831D01*
X161614Y144860D01*
X161672Y144882D01*
X161689Y144901D01*
X161712Y144913D01*
X161747Y144964D01*
X161789Y145009D01*
X161797Y145034D01*
X161812Y145055D01*
X161828Y145140D01*
X161839Y145175D01*
X161837Y145185D01*
X161839Y145197D01*
X161839Y174803D01*
X161833Y174828D01*
X161836Y174853D01*
X161814Y174911D01*
X161800Y174971D01*
X161783Y174991D01*
X161774Y175015D01*
X161729Y175057D01*
X161690Y175105D01*
X161666Y175116D01*
X161647Y175133D01*
X161588Y175151D01*
X161531Y175176D01*
X161506Y175175D01*
X161481Y175182D01*
X161420Y175172D01*
X161358Y175169D01*
X161336Y175157D01*
X161310Y175153D01*
X161239Y175104D01*
X161206Y175087D01*
X161200Y175078D01*
X161190Y175072D01*
X158399Y172281D01*
X154572Y170695D01*
X150428Y170695D01*
X146601Y172281D01*
X143671Y175211D01*
X142085Y179038D01*
X142085Y200962D01*
X143671Y204789D01*
X146601Y207719D01*
X149472Y208909D01*
X149505Y208932D01*
X149543Y208947D01*
X149575Y208982D01*
X149613Y209010D01*
X149632Y209046D01*
X149659Y209076D01*
X149672Y209121D01*
X149694Y209163D01*
X149695Y209203D01*
X149706Y209242D01*
X149698Y209289D01*
X149699Y209336D01*
X149682Y209373D01*
X149675Y209413D01*
X149647Y209450D01*
X149627Y209493D01*
X149595Y209519D01*
X149571Y209551D01*
X149521Y209579D01*
X149492Y209602D01*
X149470Y209607D01*
X149444Y209622D01*
X149379Y209643D01*
X149344Y209646D01*
X149292Y209660D01*
X147030Y209838D01*
X147017Y209836D01*
X147000Y209839D01*
X144903Y209839D01*
X15097Y209839D01*
X13000Y209839D01*
X12987Y209836D01*
X12970Y209838D01*
X10708Y209660D01*
X10674Y209649D01*
X10621Y209643D01*
X10556Y209622D01*
X10521Y209601D01*
X10482Y209589D01*
X10448Y209556D01*
X10408Y209532D01*
X10386Y209498D01*
X10356Y209470D01*
X10340Y209426D01*
X10315Y209386D01*
X10310Y209345D01*
X10296Y209307D01*
X10301Y209260D01*
X10296Y209214D01*
X10310Y209175D01*
X10314Y209135D01*
X10339Y209095D01*
X10356Y209051D01*
X10385Y209023D01*
X10407Y208989D01*
X10455Y208957D01*
X10481Y208932D01*
X10503Y208925D01*
X10528Y208909D01*
X13399Y207719D01*
X16329Y204789D01*
X17915Y200962D01*
X17915Y179038D01*
X16329Y175211D01*
X13399Y172281D01*
X9572Y170695D01*
X5428Y170695D01*
X1601Y172281D01*
X-1190Y175072D01*
X-1212Y175085D01*
X-1228Y175105D01*
X-1285Y175130D01*
X-1337Y175163D01*
X-1363Y175165D01*
X-1387Y175176D01*
X-1448Y175174D01*
X-1510Y175179D01*
X-1534Y175170D01*
X-1560Y175169D01*
X-1614Y175140D01*
X-1672Y175118D01*
X-1689Y175099D01*
X-1712Y175087D01*
X-1747Y175036D01*
X-1789Y174991D01*
X-1797Y174966D01*
X-1812Y174945D01*
X-1828Y174860D01*
X-1839Y174825D01*
X-1837Y174815D01*
X-1839Y174803D01*
X-1839Y145197D01*
X-1833Y145172D01*
X-1836Y145147D01*
X-1814Y145089D01*
X-1800Y145029D01*
X-1783Y145009D01*
X-1774Y144985D01*
X-1729Y144943D01*
X-1690Y144895D01*
X-1666Y144884D01*
X-1647Y144867D01*
X-1588Y144849D01*
X-1531Y144824D01*
X-1506Y144825D01*
X-1481Y144818D01*
X-1420Y144828D01*
X-1358Y144831D01*
X-1336Y144843D01*
X-1310Y144847D01*
X-1239Y144896D01*
X-1206Y144913D01*
X-1200Y144922D01*
X-1190Y144928D01*
X1601Y147719D01*
X5428Y149305D01*
X9572Y149305D01*
X13399Y147719D01*
X16329Y144789D01*
X17915Y140962D01*
X17915Y119038D01*
X16329Y115211D01*
X13399Y112281D01*
X9572Y110695D01*
X5428Y110695D01*
X1601Y112281D01*
X-1190Y115072D01*
X-1212Y115085D01*
X-1228Y115105D01*
X-1285Y115130D01*
X-1337Y115163D01*
X-1363Y115165D01*
X-1387Y115176D01*
X-1448Y115174D01*
X-1510Y115179D01*
X-1534Y115170D01*
X-1560Y115169D01*
X-1614Y115140D01*
X-1672Y115118D01*
X-1689Y115099D01*
X-1712Y115087D01*
X-1747Y115036D01*
X-1789Y114991D01*
X-1797Y114966D01*
X-1812Y114945D01*
X-1828Y114860D01*
X-1839Y114825D01*
X-1837Y114815D01*
X-1839Y114803D01*
X-1839Y86220D01*
X-1830Y86183D01*
X-1832Y86145D01*
X-1811Y86100D01*
X-1800Y86052D01*
X-1775Y86022D01*
X-1759Y85987D01*
X-1721Y85956D01*
X-1690Y85918D01*
X-1654Y85902D01*
X-1625Y85878D01*
X-1576Y85867D01*
X-1531Y85847D01*
X-1493Y85849D01*
X-1455Y85840D01*
X-1396Y85852D01*
X-1358Y85854D01*
X-1340Y85864D01*
X-1313Y85869D01*
X-610Y86161D01*
X7610Y86161D01*
X15203Y83015D01*
X21015Y77203D01*
X24161Y69610D01*
X24161Y61390D01*
X21015Y53797D01*
X15203Y47985D01*
X7610Y44839D01*
X-610Y44839D01*
X-1313Y45131D01*
X-1351Y45137D01*
X-1387Y45153D01*
X-1436Y45151D01*
X-1484Y45159D01*
X-1521Y45148D01*
X-1560Y45146D01*
X-1603Y45123D01*
X-1650Y45108D01*
X-1678Y45082D01*
X-1712Y45063D01*
X-1740Y45023D01*
X-1776Y44989D01*
X-1790Y44953D01*
X-1812Y44922D01*
X-1823Y44862D01*
X-1836Y44827D01*
X-1834Y44806D01*
X-1839Y44780D01*
X-1839Y27097D01*
X-1839Y25000D01*
X-1836Y24987D01*
X-1838Y24970D01*
X-1660Y22708D01*
X-1649Y22674D01*
X-1643Y22621D01*
X-245Y18318D01*
X-225Y18285D01*
X-191Y18212D01*
X2468Y14552D01*
X2497Y14527D01*
X2552Y14468D01*
X6212Y11809D01*
X6248Y11794D01*
X6318Y11755D01*
X10621Y10357D01*
X10656Y10354D01*
X10708Y10340D01*
X12970Y10162D01*
X12983Y10164D01*
X13000Y10161D01*
X15095Y10161D01*
X15097Y10161D01*
X144903Y10161D01*
X144903Y10161D01*
G37*
D10*
X152500Y138890D02*
X152500Y121110D01*
X7500Y121110D02*
X7500Y138890D01*
X152500Y181110D02*
X152500Y198890D01*
X7500Y198890D02*
X7500Y181110D01*
D11*
X11000Y106000D03*
X61500Y94500D03*
X78000Y95000D03*
X45000Y94000D03*
X157500Y106000D03*
X94500Y93000D03*
X102500Y103000D03*
X117000Y143000D03*
X116500Y96500D03*
M02*
